<?xml version="1.0" encoding="utf-8"?>
<!-- Generator: Adobe Illustrator 22.0.1, SVG Export Plug-In . SVG Version: 6.00 Build 0)  -->
<svg version="1.1" id="Слой_1" xmlns="http://www.w3.org/2000/svg" xmlns:xlink="http://www.w3.org/1999/xlink" x="0px" y="0px"
	 viewBox="0 0 595.3 841.9" style="enable-background:new 0 0 595.3 841.9;" xml:space="preserve">
<g>
	<g>
		<path d="M298,658.8c-63.2,0-126.3,0-189.5,0c-2.1,0-4.6,0.1-6.3-0.9c-1.4-0.8-2.8-3.3-2.6-4.8c3.9-24.2,8.2-48.4,12.2-72.6
			c5.6-34.1,11.1-68.1,16.6-102.2c4.7-29.1,9.4-58.3,14.1-87.5c2.5-15.6,5-31.1,7.5-46.7c4.8-30,9.7-59.9,14.6-89.9
			c1.5-9.3,3-18.6,4.2-28c0.6-5.1,2.8-7.9,7.9-9.2c35.5-9.6,71-19,106.3-29.2c10.5-3,19.9-3.1,30.4,0.1
			c35.7,11.1,71.7,21.5,107.7,31.9c5,1.4,7,4,7.7,8.8c4.6,29.7,9.3,59.3,14,89c4.7,30,9.4,60,14,90c5,32.3,10,64.6,15,96.9
			c4.8,31,9.5,62,14.2,93c2.7,18,5.5,36.1,8.1,54.1c1,6.6,0.3,7.2-6.3,7.2C424.7,658.8,361.3,658.8,298,658.8z M107.8,651.6
			c126.6,0,252.8,0,379.4,0c-1.9-13.1-3.7-25.8-5.7-38.6c-4.9-31.6-9.8-63.3-14.7-94.9c-5-32.5-10.1-64.9-15.1-97.4
			c-4.7-30-9.3-60-13.9-90c-5.2-33.3-10.5-66.6-15.5-99.9c-0.5-3.1-1.8-4.2-4.4-4.9c-9.2-2.6-18.5-5.2-27.7-7.9
			c-29.7-8.8-59.4-17.6-89.1-26.3c-1.8-0.5-3.9-0.3-5.7,0.2c-14.6,3.9-29.1,8-43.6,12c-24,6.6-47.9,13.1-71.9,19.8
			c-1.4,0.4-3.3,1.9-3.5,3.2c-2.5,14.4-4.8,28.8-7.1,43.2c-4.5,28.2-8.8,56.4-13.3,84.6c-3.1,19.5-6.6,38.9-9.7,58.4
			c-4.1,25.7-8.1,51.5-12.2,77.2c-3.5,21.6-7.2,43.2-10.8,64.8c-4.1,24.7-8,49.5-12,74.2C110,636.6,108.9,644,107.8,651.6z"/>
		<path d="M247.2,321.4c15.2-1.4,29.1-2.8,43.2-4.1c0.1-1.3,0.3-2.4,0.3-3.5c-1-25.3-1.8-50.6-3.2-75.9c-0.3-5.4-2.6-10.9-4.9-15.9
			c-2.4-5.3-0.5-10.2,5.3-9.5c7,0.9,13.9,3.1,20.5,5.6c4.3,1.7,5,5.7,4.4,10.5c-1.6,12-2.4,24-3.6,37c12.7-2.7,24-4.7,35.1-7.6
			c9.2-2.4,17.8-2.2,25.8,2.9c2.5,1.6,4.1,4.4,6.1,6.6c-2.5,1.4-4.9,3.7-7.5,4c-18.3,2.1-36.5,6.4-55.1,4.5c-1-0.1-2,0-3.8,0
			c0,13.1,0,26.1,0,39.9c3.7-0.2,8-0.1,12.2-0.6c25.3-3.1,50.4-7.2,75.8-9.3c12.9-1.1,24.7,4.6,33.8,14.3c3.7,3.9,2.4,7.7-2.9,8.6
			c-5.5,0.9-11.2,1.2-16.9,1.3c-34.6,0.6-69.3,1.2-103.9,1.7c-0.8,0-1.6,0.1-3.2,0.3c1.7,1.1,2.8,1.8,3.8,2.5
			c5.9,3.8,6.4,6.2,4.7,13c-1.6,6.2-2.9,12.6-3.2,19c-0.6,15.5-0.2,31-1,46.4c-0.2,4.4-2.5,9-4.8,12.9c-2.9,4.9-7.9,4.7-10.7-0.2
			c-4.5-7.9-7.2-16.1-3.5-25.2c0.7-1.8,1.2-3.8,1.3-5.8c0.8-18.9,2.7-37.9-3.2-56.5c-1.2-3.8-2.9-4.9-7.1-4.6
			c-23.8,1.8-47.3,5.5-70.4,11.2c-6.8,1.7-13.2,1.5-19.5-1.3c-5.9-2.6-11.7-5.5-17.4-8.6c-1.3-0.7-2.6-3.1-2.4-4.4
			c0.3-1.4,2.3-2.9,3.9-3.3c2.9-0.7,5.9-0.8,8.9-0.9c15.5-0.7,30.9-1.3,47.1-2c-0.5-5.9-0.8-11-1.2-16c-0.8-9.3-1.3-18.6-2.7-27.8
			c-0.7-5-2.7-9.8-4.6-14.5c-2-4.6-0.3-8.9,4.6-8.3c6.5,0.8,12.9,2.6,19.1,4.9c4.7,1.7,4.2,6.2,3.9,10.7
			C248.9,289.2,248.1,305.1,247.2,321.4z"/>
		<path d="M191.3,512.4c3.1-1.4,5.4-2.5,7.8-3.5c44.3-18.6,85-43.3,121.7-74.4c6-5,11.2-10.9,16.6-16.5c5.6-5.9,8.5-13,8.6-21.2
			c0-1.5,0.1-3,0.4-4.5c1.1-6,3.8-7.6,9.6-5.5c8.8,3.2,15.2,9.4,20.6,16.8c1.9,2.6,2.6,5.3-0.3,8c-21.5,19.7-42.6,39.8-67,55.9
			c-31.2,20.7-65,35.5-101.2,44.8c-4.5,1.1-9.2,1.2-13.8,1.7C193.6,514,192.9,513.3,191.3,512.4z"/>
		<path d="M190.5,435.6c1.2-1.3,2.3-2.7,3.5-4c13.7-15.8,26.5-32.1,35.3-51.2c1.9-4.1,2.8-8.8,3.4-13.4c0.4-3.2,1.5-5.2,4.5-4.2
			c7,2.3,14.3,4.5,20.7,8c5.6,3.1,4.9,7.9,0.2,12.2c-4.2,3.8-8.2,7.8-11.8,12.1c-13.7,16.1-28.7,30.6-47.6,40.5
			c-2.2,1.2-4.9,1.4-7.3,2C191.1,437.1,190.8,436.3,190.5,435.6z"/>
		<path d="M302,570.9c0,20.6,0,41.3,0,61.9c0,1.8,0.2,4-0.6,5.3c-1,1.6-3.2,3.4-4.8,3.4c-1.7,0-3.9-1.8-4.8-3.4
			c-0.9-1.5-0.7-3.9-0.7-5.8c0-41,0-81.9,0-122.9c0-0.3,0-0.7,0-1c0-5.8,1.8-8.5,5.5-8.5c3.7,0,5.5,2.7,5.5,8.5
			C302,529.3,302,550.1,302,570.9z"/>
		<path d="M350.8,344.5c5.1,0.6,9,0.4,12.5,1.6c12.1,4.1,24.3,8,36,13.2c11.6,5.2,17.3,17.6,15.9,30.2c-0.4,3.8-2.5,6.4-6.2,5.5
			c-5.1-1.2-10.8-2.4-14.6-5.5c-10-8.2-19.3-17.3-28.7-26.3c-4.3-4.1-8.2-8.8-12.1-13.3C352.6,348.8,352.2,347.2,350.8,344.5z"/>
	</g>
</g>
</svg>
