<?xml version="1.0" encoding="utf-8"?>
<!-- Generator: Adobe Illustrator 22.0.1, SVG Export Plug-In . SVG Version: 6.00 Build 0)  -->
<svg version="1.1" id="Слой_1" xmlns="http://www.w3.org/2000/svg" xmlns:xlink="http://www.w3.org/1999/xlink" x="0px" y="0px"
	 viewBox="0 0 595.3 841.9" style="enable-background:new 0 0 595.3 841.9;" xml:space="preserve">
<g>
	<g>
		<path d="M105,659.9c-3.4-1.8-3.8-4.2-3-8.1c2.7-12.7,4.7-25.4,6.9-38.2c2.3-13.4,4.3-26.9,6.5-40.3c5.1-31.6,10.3-63.2,15.4-94.8
			c4.7-28.8,9.3-57.6,13.9-86.5c5-31.1,10.1-62.2,15.1-93.4c3.8-24,7.6-48.1,11.2-72.2c0.8-5.1,3.3-7.3,8-8.6
			c28-7.5,55.9-15.3,83.9-22.9c10.4-2.8,20.7-6,31.2-8.4c4.2-0.9,9-1.1,13.1,0c38.8,11.2,77.5,22.9,116.3,34.1
			c4.7,1.4,6.9,3.7,7.6,8.4c2.2,14.8,4.7,29.5,7,44.2c3.8,24.5,7.4,48.9,11.2,73.4c3.5,22.9,7.3,45.8,10.9,68.7c4.7,30,9.3,60,14,90
			c5,32,10,63.9,14.9,95.9c2.6,16.9,4.9,33.8,7.3,50.8c0.1,0.6,0.5,1.2,0.8,1.8c0,2,0,4,0,6C366.3,659.9,235.7,659.9,105,659.9z
			 M489.1,652.6c-0.2-1.7-0.2-3.2-0.4-4.6c-1.6-10.8-3.2-21.6-4.9-32.4c-5.1-32.8-10.2-65.6-15.4-98.3c-2-12.8-4.4-25.5-6.3-38.3
			c-3-19.3-5.7-38.7-8.6-58.1c-4.5-29.5-9-59-13.6-88.5c-5.2-33.6-10.5-67.2-15.9-100.8c-0.3-1.6-2.1-3.8-3.7-4.3
			c-9-2.8-18.1-5.1-27.2-7.8c-29.7-8.8-59.3-17.7-89.1-26.4c-2.2-0.6-4.9-0.6-7.2,0c-14.4,3.8-28.7,7.9-43.1,11.9
			c-24,6.6-47.9,13.1-71.9,19.8c-1.4,0.4-3.3,1.9-3.6,3.2c-2.5,14.4-4.8,28.8-7.1,43.2c-4.4,28.2-8.8,56.4-13.3,84.6
			c-2.8,17.3-5.9,34.6-8.7,52c-4.5,28-8.8,56.1-13.3,84.1c-3.5,21.8-7.2,43.5-10.8,65.3c-4,24.4-8,48.8-11.9,73.2
			c-1.2,7.3-2.2,14.7-3.4,22.4C236.3,652.6,362.6,652.6,489.1,652.6z"/>
		<path d="M254,267.3c-10.9,18-21.8,35.8-33.4,54.8c12.8-3.4,25.3-6,37.3-10.1c7.4-2.5,13.1-0.1,18.8,3.3c3.5,2.1,3,5.1-1.1,6.4
			c-8.1,2.5-16.3,4.6-24.9,6.9c9.9,5.9,0.6,14.6,3.1,22.3c3.9-1.1,7.8-1.9,11.5-3.3c7.8-2.9,14,0.7,20.1,4.6
			c3.3,2.1,2.4,5.3-1.7,6.3c-7.9,2-15.9,3.6-23.8,5.4c-2.1,0.5-4.2,0.8-7,1.4c0,17.8,0,35.6,0,53.7c0.7-0.2,2-0.2,3.1-0.7
			c7.5-2.8,14.9-5.8,22.5-8.3c3.2-1,6.9-1.4,10.2-1.1c3.8,0.4,4.9,3.9,2.1,6.5c-2,1.9-4.7,3.2-7.2,4.2
			c-19.5,7.8-39.1,15.2-58.4,23.2c-7.7,3.2-15,7.2-22.2,11.3c-3.8,2.1-7.4,2.8-10.7,0.2c-5.3-4-10.2-8.4-15-13
			c-1.3-1.3-1.3-3.8-1.9-5.8c2-0.5,4-1.5,5.9-1.6c8.1-0.2,16.4,0.9,24.2-0.5c10.1-1.8,19.9-5.4,29.7-8.5c1-0.3,2.2-2.1,2.1-3.1
			c-0.5-17.8-1.1-35.6-1.7-54.1c-2.9,0.2-5.5,0.6-8.1,0.6c-7,0-13.9-0.1-20.9-0.4c-1.6-0.1-3.4-0.7-4.6-1.7
			c-1.5-1.3-2.6-3.2-3.8-4.9c1.8-0.6,3.5-1.6,5.3-1.9c10.4-1.6,20.7-2.9,31.9-4.5c-0.5-5.6-0.5-10.8-1.6-15.7
			c-1.5-6.7-3.9-6.8-10.6-8.6c-8.7-2.4-12.7,2.4-18.2,7.3c-10.7,9.5-22.2,17.9-33.8,26.3c-2.8,2-6.8,2.4-10.3,3.5
			c-0.3-0.6-0.6-1.2-0.9-1.8c1-1.1,2-2.3,3.1-3.4c30.6-28.4,54.4-61.6,70.7-99.9c3-7,3.4-15.2,4.2-22.9c0.8-7.9,3-9.6,10.1-6.2
			c1,0.5,2.1,1,3.1,1.7c11.7,8,12.5,11.2,6.3,24.5c3.7,1.3,7.5,2.4,11,4c5.9,2.7,11.9,5.3,17.3,8.7c6.8,4.3,8.5,12.1,5.1,19.4
			c-1.8,3.8-5.2,5.3-8.5,2.8c-4.9-3.7-9.4-7.9-13.7-12.2c-4.6-4.6-8.8-9.5-13.2-14.3C254.8,267.7,254.2,267.4,254,267.3z"/>
		<path d="M315.8,341c-0.9,20.5-1.8,40.9-2.7,61.4c-0.4,10-0.7,20-1,30c-0.2,6.9,0.6,7.4,7.2,4.5c9.7-4.3,19.4-8.7,29.2-13.1
			c1.9-0.8,3.9-1.3,5.8-2c0.3,0.4,0.7,0.7,1,1.1c-0.9,1.5-1.6,3.3-2.8,4.5c-14.3,13.3-28.6,26.5-42.9,39.7c-3.7,3.4-7.1,1.9-9.5-1.1
			c-5.1-6.5-7.8-13.3-4.9-22.2c2.6-7.9,3.9-16.5,4.4-24.9c2.1-42.9,4.2-85.9,1.4-128.9c-0.6-9.4-1.7-18.5-5.5-27.2
			c-2.5-5.6,0.7-9.7,5.8-7.5c13.4,5.8,26.2,1.7,39-1.3c9.2-2.1,18.1-5.6,27.1-8.6c4.7-1.6,8.9-1.8,13.3,1.1
			c5.2,3.5,10.8,6.5,15.9,10.1c2.8,2,4.2,5.2,2.2,8.4c-7.1,11.1-8.3,24.1-11.6,36.4c-2.8,10.4-5.1,21-7.9,31.4
			c-0.7,2.6-2,5.4-3.7,7.4c-3.7,4.2-8.2,3.5-11.5-1c-0.9-1.3-3.1-2.4-4.6-2.3c-10.4,0.9-20.9,2.3-31.3,3.4
			C324.3,340.6,320.5,340.8,315.8,341z M370.5,294.4c0.6-10.9,1.2-20.4,1.5-30c0.1-4-2.4-5.6-6.3-4.9c-15.3,2.7-30.6,5.4-46.7,8.3
			c0,9.3,0,18.7,0,28.7c6.2-1.1,12.4-2,18.6-3.2C348.2,291.1,358.7,287.5,370.5,294.4z M317.8,306c-0.3,7.9-0.7,16.2-1.1,25.5
			c9.1-1.5,17.2-3,25.4-4.2c7.1-1.1,14.1-4.2,22.1-0.5c1.7-9.1,3.4-17.8,5-26.5C351.9,302.2,335.2,304,317.8,306z"/>
		<path d="M357.7,383.8c11.4-9.6,19.3-20.4,25.1-32.8c2.8-6,4.3-6.6,9.7-3c3.7,2.4,7.4,5.2,10.4,8.4c4.8,5.1,3.5,8.9-2.8,11.9
			c-12.8,6-25.4,12.3-38.7,18.7c1.4,1.6,2.2,2.7,3.2,3.8c21.1,21.9,47.3,34.6,76.4,42c2.3,0.6,4.6,1,6.7,1.9
			c1.6,0.7,2.9,2.2,4.4,3.4c-1.3,1.1-2.4,2.9-3.9,3.3c-9.8,2.7-19.6,5.2-29.4,7.5c-14,3.3-24.6-1.9-33.1-13
			c-13.3-17.3-26.7-34.5-40.6-51.4c-5.5-6.7-12.6-12.1-18.8-18.3c-1.5-1.5-2.3-3.7-3.4-5.6c2.1-0.9,4.6-3,6.3-2.5
			c3.9,1,8.1,2.6,10.9,5.3c5.7,5.4,10.5,11.6,15.6,17.5C356.5,381.7,356.9,382.6,357.7,383.8z"/>
		<path d="M296.5,568.3c-18.5,18.5-36.9,36.9-55.3,55.3c-1.1,1.1-2,2.5-3.2,3.1c-1.4,0.6-3.2,0.2-4.8,0.3c0-1.7-0.5-3.4,0-4.9
			c0.4-1.3,1.9-2.2,3-3.3c18.4-18.4,36.8-36.8,55.3-55.3c-11.5-11.5-23-22.9-34.4-34.4c-7.5-7.5-15.1-15.1-22.6-22.6
			c-1.8-1.8-3.8-3.8-1.4-6.4c2.6-2.8,4.4-0.4,6.2,1.4c16,16,32.1,32,48.1,48.1c1.2,1.2,2.1,2.6,4.1,5.1c0.2-3,0.4-4.3,0.4-5.7
			c0-17.7,0-35.3,0-53c0-1.3-0.4-2.9,0.2-3.9c0.7-1.2,2.2-2.6,3.5-2.7c0.9-0.1,2.5,1.5,3,2.7c0.6,1.3,0.3,2.9,0.3,4.4
			c0,18.3,0,36.7,0,55c0,1.1,0,2.3,0,4.3c1.8-1.6,3-2.6,4.1-3.7c16.9-16.8,33.7-33.7,50.6-50.5c0.9-0.9,1.8-2.3,2.9-2.7
			c1.2-0.4,3.1-0.5,3.9,0.2c0.8,0.8,1.2,2.8,0.8,3.9c-0.5,1.5-2,2.6-3.1,3.8c-18.8,18.9-37.7,37.7-56.8,56.8
			c8.2,8.2,16.3,16.3,24.4,24.4c10.8,10.8,21.7,21.7,32.5,32.5c0.9,0.9,2.4,1.8,2.6,2.9c0.3,1.5,0.2,3.5-0.6,4.8
			c-0.4,0.6-3,0.3-4.2-0.3c-1.3-0.6-2.2-2-3.2-3.1C334.1,605.9,315.4,587.2,296.5,568.3z"/>
		<path d="M228.1,407.1c-1.5,4.6-1.9,8.8-6.4,10.5c-4.6,1.7-7.8-0.7-10.1-4.3c-4.6-7.1-9-14.4-13.2-21.7c-1.9-3.3-0.2-5.7,3.3-4.5
			c6.9,2.2,14.1,4.5,20,8.4C225,397.6,226.1,403.1,228.1,407.1z"/>
		<path d="M256.8,410c0.9-1.5,2.1-2.8,2.7-4.4c3.8-9.3,7.7-18.6,11-28.2c1.4-4,3-4.5,5.9-2.4c3.8,2.7,7.7,5.3,10.8,8.7
			c3.8,4,2.7,7.5-2,10.4c-7.2,4.5-14.1,9.4-21.2,13.9c-1.9,1.3-4.1,2.1-6.2,3.1C257.4,410.8,257.1,410.4,256.8,410z"/>
	</g>
</g>
</svg>
