<?xml version="1.0" encoding="utf-8"?>
<!-- Generator: Adobe Illustrator 22.0.1, SVG Export Plug-In . SVG Version: 6.00 Build 0)  -->
<svg version="1.1" id="Слой_1" xmlns="http://www.w3.org/2000/svg" xmlns:xlink="http://www.w3.org/1999/xlink" x="0px" y="0px"
	 viewBox="0 0 595.3 841.9" style="enable-background:new 0 0 595.3 841.9;" xml:space="preserve">
<g>
	<g>
		<path d="M298.6,658.8c-63,0-126,0-189,0c-2,0-4-0.1-5.9-0.6c-2.8-0.7-3.7-2.4-3.1-5.6c4.9-28.8,9.6-57.6,14.4-86.4
			c2.4-14.9,4.8-29.8,7.3-44.7c2.9-17.5,5.8-35,8.6-52.5c4.2-25.5,8.3-51.1,12.5-76.7c5.1-31.6,10.3-63.2,15.4-94.8
			c3.9-24,7.6-48.1,11.2-72.2c0.7-4.8,3.2-7.1,7.7-8.3c27-7.3,54-14.7,81-22.1c12.3-3.4,24.5-6.9,36.9-9.9c3.3-0.8,7.3-0.3,10.6,0.7
			c21.7,6.2,43.2,12.7,64.8,19.1c17.2,5.1,34.3,10.3,51.5,15c4.9,1.3,6.6,4.2,7.3,8.6c4.6,29.7,9.3,59.3,14,89c4.7,30,9.4,60,14,90
			c5,32.3,10,64.6,15,96.9c4.8,31,9.5,62,14.2,93c2.8,18.2,5.5,36.4,8.2,54.6c0.9,6,0.1,6.8-6.2,6.8
			C425.6,658.8,362.1,658.8,298.6,658.8z M487.8,651.7c0-1.3,0.1-2.5,0-3.6c-1.7-11.5-3.4-22.9-5.2-34.4c-4.9-32-9.9-63.9-14.9-95.9
			c-5-32.3-10-64.6-15.1-96.9c-4.7-30-9.3-60-13.9-90c-5.2-33.3-10.5-66.6-15.5-99.9c-0.5-3-1.6-4.3-4.3-5
			c-8.9-2.4-17.9-4.9-26.8-7.5c-29.7-8.8-59.3-17.7-89.1-26.4c-2.2-0.6-4.9-0.6-7.2,0c-14.6,3.9-29.1,8-43.6,12
			c-23.8,6.6-47.6,13-71.4,19.7c-1.5,0.4-3.4,2.2-3.7,3.6c-3.2,18.6-6.2,37.3-9.2,56c-3.8,23.8-7.4,47.6-11.2,71.3
			c-2.5,15.4-5.3,30.7-7.8,46.1c-4.8,30-9.4,60-14.2,90c-3.5,21.9-7.3,43.8-10.9,65.8c-4,24.2-7.9,48.5-11.8,72.7
			c-1.2,7.4-2.2,14.9-3.4,22.5C235.6,651.7,361.6,651.7,487.8,651.7z"/>
		<path d="M225.6,300.7c4,2.3,7.2,3.8,10.1,5.7c3.6,2.4,4.7,5.4,2.4,9.8c-3.4,6.6-4.6,13.8-3.8,22c9.8-2.1,19.4-4.1,28.9-6.2
			c0.9-0.2,2-1.8,2-2.7c-0.3-19.3-0.5-38.6-1.3-57.9c-0.2-3.9-2.3-7.9-4.1-11.6c-2.7-5.2-1.7-7.5,4.3-7.5c7.4,0,14,2.8,19.9,7.2
			c3.2,2.4,3.7,5.6,2.5,9.4c-6,19.1-4.6,38.8-6.1,59.2c3.9-0.9,7.3-1.5,10.5-2.3c5-1.2,10.2-2,14.9-4c9.3-4,16.7-0.6,23.9,4.9
			c5.1,4,5.7,6.7,2.5,12.4c-5.5,9.7-9.4,25.5-8.8,35.8c4.9,1.6,9.8,3.3,15.2,5.1c6.7-11.3,14.2-22,16.3-35.2c0.5-3,2.3-4.6,4.7-3.6
			c6,2.6,12,5.5,17.6,8.9c3.1,1.9,3,4.5-0.7,6.9c-5,3.2-9.5,7.3-14.3,10.9c-6.1,4.5-12.4,8.9-18.9,13.5c5.7,2.1,11.3,4,16.6,6.4
			c6.5,2.9,13,5.9,19.1,9.6c5.5,3.4,4.3,15.8-1.5,18.8c-3.7,1.9-6.6,0.4-9.6-1.9c-13.3-10-26.7-19.9-40-29.9c-1.3-1-2.7-1.7-4.7-2.9
			c0,15.9,4.9,29.5,14.5,41.1c14.4,17.5,33.3,26.1,55.9,26.6c8.2,0.2,13.9-3.6,16.5-11.9c2.7-8.7,4.2-17.8,6.1-26.7
			c0.6-2.6,1-5.3,1.5-8c0.5,0,1,0,1.5-0.1c0.7,2.8,1.5,5.5,2.1,8.3c2.2,9.6,4.1,19.2,6.5,28.7c1,4,2.8,7.8,4.6,11.5
			c3.6,7.9,1.5,16-6.5,19.3c-5.7,2.4-12.2,3.8-18.3,4c-39.3,1-69.8-14.9-89.5-49.4c-9-15.8-11.2-33.7-11.6-51.6
			c-0.2-9.1,1.3-18.2,2.4-27.3c0.8-6.8-0.9-8.9-7.5-7.8c-6.9,1.1-13.7,2.4-21.2,3.7c0,11.4-0.1,22.5,0,33.7
			c0.3,21.3,0.8,42.6,1.1,64c0.1,9-1.7,17.6-6.9,25.1c-4.4,6.5-7.5,6.4-10.9-0.7c-5.1-10.5-7.4-21-4.1-33.2
			c3-10.9,3.6-22.7,4.3-34.1c1-16.3,1.1-32.6,1.5-49c0-0.8-0.2-1.6-0.3-2.8c-10.4,2.1-20.7,4.1-30.9,6.1c-0.6,8.6-0.7,16.9-1.7,25.2
			c-2.3,19.6-7.5,38.2-20.1,54c-10.9,13.6-25.6,21.5-41.6,27.4c-1.5,0.5-3.2,0.3-5.2-0.1c15.7-12.8,31.6-25.2,40.1-44.2
			c8.2-18.5,12.6-37.8,11.9-59.1c-5.7,1.2-11.2,2.1-16.5,3.6c-10,3-19.1,1.6-27.3-4.9c-1.6-1.3-2.3-3.7-3.5-5.6
			c1.8-0.6,3.5-1.6,5.3-1.8c13.8-1.6,27.7-3.1,41.4-4.6c1.5-9.2-0.6-25.8-4.2-32.9c-10.3,4.3-20.9,8-32.1,9
			c-0.2-0.5-0.4-1.1-0.6-1.6c1.5-0.9,2.9-1.8,4.4-2.7c9.5-6.2,19.2-12.1,28.4-18.6c6.4-4.5,11.3-10.3,12.6-18.5
			c0.2-1.3,3-3.3,4.3-3.1c7.3,1.3,14,4.1,19,10.1c2.5,3,2.2,5.1-1.6,6.9C239.8,292.9,233.2,296.7,225.6,300.7z"/>
		<path d="M328.6,259.6c0.6,0.4,0.9,0.6,1.2,0.7c13.5,4.6,13.8,4.8,21.6-7.4c3.5-5.5,5.6-11.9,8.6-17.7c0.7-1.3,2.7-2.9,3.9-2.7
			c7.4,1.1,14.1,4,19.1,9.8c1.5,1.7,1.9,3.3-0.7,4.8c-11.1,6.1-22,12.3-33.5,18.8c2.5,0.9,4.9,1.6,7.3,2.5c4.7,1.8,9.4,3.4,13.9,5.4
			c8,3.6,9.4,7.3,6.1,15.4c-2.3,5.7-7,7-11.9,3.2c-10.6-8.1-21.1-16.3-31.6-24.4c-1.3-1-2.7-1.8-4.1-2.7
			c-3.2,12.4,3.3,28.7,14.2,36.3c10.4,7.3,22.1,10.8,34.8,10.2c8-0.4,14.8-3.7,17.9-11.5c3-7.7,4.9-15.8,7.3-23.8
			c0.4-1.3,0.7-2.7,1.1-4c0.5,0,0.9-0.1,1.4-0.1c0.6,1.7,1.5,3.4,1.9,5.1c1.1,5.4,1.5,10.9,3.1,16.2c1.7,6,4,11.9,6.7,17.5
			c2.6,5.6,2.4,8.8-2.4,12.7c-5.8,4.6-12.6,6.7-19.8,7.5c-17.1,1.8-33.5-0.1-49.2-7.5c-21.1-10.1-29.7-28-30.3-50.1
			c-0.3-11.6,1.4-23.2,2.3-34.8c0.1-1.3,0.4-2.6,0.5-4c0.7-10.6-0.5-11.8-11-9.6c-21.8,4.5-43.6,9.4-65.3,14.1
			c-8.2,1.8-15.6-0.1-21.8-5.6c-1.2-1.1-1.7-3-2.5-4.6c1.5-0.7,2.9-1.7,4.4-1.9c12.4-1.6,24.9-2.4,37.1-4.7c18.1-3.4,36.1-7.4,54-12
			c8.2-2.1,15.6-2.5,23.3,1c7.2,3.2,8.6,6.3,4.9,13.2c-5.7,10.5-10.1,21.3-12.1,33.1C328.6,258.4,328.6,258.9,328.6,259.6z"/>
		<path d="M311.3,500.8c-5.2,0-9.2,0-13.6,0c0,17.6,0,34.7,0,52.2c17.3,0,34.5,0,52.2,0c0-4,0-8.1,0-13.5
			c10.9,5.9,20.9,11.3,32,17.2c-10.7,6-20.7,11.7-31.5,17.7c0-4.8,0-8.8,0-13.2c-17.8,0-35,0-52.6,0c0,17,0,34.1,0,51.7
			c4.2,0,8.3,0,13.5,0c-5.8,10.9-11.2,20.9-17.1,31.9c-6-10.7-11.7-20.8-17.7-31.6c4.9,0,8.9,0,13.2,0c0-17.6,0-34.7,0-52
			c-17.2,0-34.2,0-51.8,0c0,4.2,0,8.2,0,13.4c-10.9-6.1-20.9-11.8-31.8-17.8c10.8-5.8,20.8-11.2,31.6-17c0,5.1,0,9.1,0,13.5
			c17.6,0,34.6,0,52,0c0-17.5,0-34.7,0-52.4c-4.3,0-8.3,0-13.3,0c6.1-10.9,11.7-20.9,17.8-31.7C300.1,479.9,305.4,489.9,311.3,500.8
			z"/>
	</g>
</g>
</svg>
