<?xml version="1.0" encoding="utf-8"?>
<!-- Generator: Adobe Illustrator 22.0.1, SVG Export Plug-In . SVG Version: 6.00 Build 0)  -->
<svg version="1.1" id="Слой_1" xmlns="http://www.w3.org/2000/svg" xmlns:xlink="http://www.w3.org/1999/xlink" x="0px" y="0px"
	 viewBox="0 0 595.3 841.9" style="enable-background:new 0 0 595.3 841.9;" xml:space="preserve">
<g>
	<g>
		<path d="M99,650.9c2-10.4,4.1-20.7,5.8-31.1c2.6-15.5,5-31.1,7.5-46.7c5.1-31.6,10.3-63.2,15.4-94.8c4.6-28.3,9-56.7,13.6-85
			c5.1-31.6,10.3-63.2,15.4-94.8c3.9-24,7.6-48.1,11.2-72.2c0.7-4.8,3.2-7.1,7.7-8.3c27-7.3,54-14.7,81-22.1
			c11.5-3.2,22.9-6.7,34.5-9.4c4.1-1,9-0.9,13.1,0.3c21.7,6.1,43.2,12.7,64.9,19.1c17,5,33.9,10.2,51,14.9c5,1.4,7.1,4,7.8,8.7
			c4.6,29.7,9.3,59.3,14,89c4.7,30,9.4,60,14,90c5,32.3,10,64.6,15,96.9c4.8,31,9.5,62,14.2,93c2.8,18.4,5.6,36.7,8.2,55.1
			c0.3,2-0.8,4.3-1.3,6.4c-131,0-262,0-393,0C99,656.9,99,653.9,99,650.9z M106.8,652.6c126.6,0,252.8,0,379.4,0
			c-1.9-13.1-3.7-25.8-5.7-38.6c-4.9-31.6-9.8-63.3-14.7-94.9c-5-32.5-10.1-64.9-15.1-97.4c-4.7-30-9.3-60-13.9-90
			c-5.2-33.3-10.5-66.6-15.5-99.9c-0.5-3.1-1.8-4.2-4.5-4.9c-9.2-2.6-18.5-5.2-27.7-7.9c-29.7-8.8-59.4-17.6-89.1-26.3
			c-1.8-0.5-3.9-0.3-5.7,0.2c-14.6,3.9-29.1,8-43.6,12c-24,6.6-47.9,13.1-71.8,19.8c-1.4,0.4-3.3,1.9-3.5,3.2
			c-2.5,14.4-4.8,28.8-7.1,43.2c-4.5,28.2-8.8,56.4-13.3,84.6c-3.1,19.5-6.6,38.9-9.7,58.4c-4.1,25.7-8.1,51.5-12.2,77.2
			c-3.5,21.6-7.2,43.2-10.8,64.8c-4.1,24.7-8,49.5-12,74.2C109,637.6,107.9,645,106.8,652.6z"/>
		<path d="M214.9,296c1.2-1.4,2.4-2.7,3.6-4c16.6-18.7,32.3-38.2,42.6-61.2c1.8-4.1,2.3-8.9,2.8-13.5c0.4-3.5,2.1-5.1,5.2-4.2
			c6.3,2,12.8,3.8,18.6,7c7,3.8,6.6,8.7,1,14.3c-7.1,7.1-13.5,14.9-20.2,22.4c0.3,0.6,0.7,1.1,1,1.7c8.5-2.1,17.1-3.7,25.3-6.4
			c10.7-3.6,21.1-8.1,31.6-12.3c8.6-3.4,22.6-0.3,29,6.3c3.3,3.4,3.4,6.9-0.6,9.8c-18.5,13.4-30.5,32.9-46.1,49
			c-0.3,0.3-0.4,0.9-0.8,2.1c15.9-3.4,31.4-6.5,46.8-10c5.1-1.2,9.5-0.9,13.7,2.1c5.1,3.7,10.4,7.1,15.4,11.1c3.2,2.5,4.1,6.1,2,9.9
			c-4.5,8.3-5.7,17.4-5.7,26.6c0.1,31,0.7,62,1,92.9c0.1,12,1.1,24.2-3.3,35.6c-2.6,6.8-6.7,13.3-11.2,19.1c-3.9,5-7.3,4.3-11.7-0.3
			c-10.4-11-21-21.9-31.4-32.9c-0.9-1-1.6-2.2-3.2-4.6c3.2,0.4,4.9,0.4,6.6,0.8c6.8,1.6,13.5,3.5,20.3,5.1c5.7,1.3,9.3-0.4,9.9-6
			c1.7-15.3,2.7-30.7,4-47.6c-14.6,0-27.8-0.8-40.8,0.2c-21,1.6-42,4.1-63,6.9c-6.2,0.8-12,3-17.7-2c-2,8.1-3.7,15.4-5.7,22.7
			c-3.8,13.7-8.5,27.1-16.8,38.8c-4.9,6.8-11.1,12.7-17,18.8c-1.3,1.4-3.7,1.6-5.7,2.4c-0.3-0.5-0.6-0.9-0.9-1.4
			c0.9-1.9,1.7-3.8,2.7-5.7c15.8-28.6,24.2-59.4,26.5-91.8c1.3-18.7,1.9-37.6,1.9-56.4c0-6-3.1-12-4.8-18c-0.5-1.6-1.3-3.1-1.6-4.7
			c-1-4.8,1.1-7.8,5.6-6.7c21.1,5.1,41.6-1.3,62.4-2.3c3.8-0.2,6.4-1.5,8.4-5.1c7.5-13.4,15.3-26.5,22.9-39.8c0.8-1.4,0.6-3.3,0.8-5
			c-1.6,0-3.2-0.2-4.7,0.2c-13.6,3.1-27.2,6.3-40.8,9.3c-2.6,0.6-5.5,0.9-7.9,0.3c-5.6-1.4-9,1.4-13.1,4.8
			c-9.2,7.6-19,14.5-28.6,21.5C220.9,297.5,218.1,299.3,214.9,296z M307.3,355.3c10-1.5,18.8-2.5,27.4-4.2c7.7-1.5,15.2-2,22.3,2
			c0.7,0.4,1.5,0.5,3.1,1c-0.5-11.2-0.9-21.7-1.6-32.3c-0.3-4.9-3.8-6.3-8.1-6c-10.5,0.5-21,1.1-31.4,1.8c-4.3,0.3-8.7,1-14.3,1.6
			c5.7,3.4,5.5,7.2,4.8,11.9C308.2,338.7,308,346.5,307.3,355.3z M307.3,396.6c5.5-0.5,10.7-1.1,16-1.3c12.3-0.4,24.9-6.6,36.8,2.9
			c0-12.6,0-24.2,0-35.6c-17.8,2-35,3.9-52.7,5.8C307.3,377.8,307.3,386.9,307.3,396.6z M289.8,357.1c-0.5-8.8-0.7-16.9-1.6-25
			c-0.3-2.8-1.9-5.7-3.4-8.2c-0.6-1.1-2.7-2.2-3.9-2c-9.7,1.1-19.5,2.5-29.2,4c-1.4,0.2-3.1,1.8-3.7,3.2c-4.2,10.2-3,20.8-3,31.8
			C260.3,359.6,274.8,358.4,289.8,357.1z M241.6,403.5c16.9-1.8,33.4-3.6,50-5.5c-0.5-9.9-0.9-19-1.3-27.6c-15.7,0-30.6,0-45.5,0
			C243.7,381.6,242.7,392.1,241.6,403.5z"/>
		<path d="M254.6,529c11.9,12.6,23.5,24.9,34.8,36.9c12.9-12.5,25.4-24.5,38.9-37.6c-3.5-2.9-6.7-5.6-10.6-8.8
			c12.1-3.5,23-6.7,35-10.2c-3.4,12-6.6,22.9-9.7,33.8c-0.5,0.3-1,0.6-1.5,0.9c-2.4-3.4-4.8-6.8-6.6-9.3
			c-13.5,12.8-26,24.7-37.6,35.8c12.2,12.9,24,25.4,37,39.1c2.7-3.8,5.1-7.2,7.5-10.6c0.6,0.3,1.2,0.6,1.8,0.8
			c3.4,10.8,6.7,21.6,10.4,33.4c-12-3.2-23-6.2-34.9-9.4c3.3-3.6,6.1-6.5,8-8.6c-12.1-12.7-23.9-25.2-35.1-37
			c-12.7,12.1-25.1,23.9-38.4,36.5c3.6,2.9,6.8,5.5,11.2,9c-12.4,3.9-23.1,7.2-35.1,10.9c3.3-12.1,6.2-23.1,9.6-35.8
			c3.2,4.2,5.6,7.4,7.5,10c13.5-12.9,25.9-24.7,37.4-35.6c-12.2-12.9-23.9-25.4-36.6-38.9c-2.9,3.8-5.4,7.1-8.8,11.5
			c-3.7-12.6-6.9-23.5-10.4-35.5c11.8,3.4,22.8,6.5,34.5,9.9C259.5,523.8,256.7,526.8,254.6,529z"/>
	</g>
</g>
</svg>
