<?xml version="1.0" encoding="utf-8"?>
<!-- Generator: Adobe Illustrator 22.0.1, SVG Export Plug-In . SVG Version: 6.00 Build 0)  -->
<svg version="1.1" id="Слой_1" xmlns="http://www.w3.org/2000/svg" xmlns:xlink="http://www.w3.org/1999/xlink" x="0px" y="0px"
	 viewBox="0 0 595.3 841.9" style="enable-background:new 0 0 595.3 841.9;" xml:space="preserve">
<g>
	<g>
		<path d="M298.5,659.8c-63,0-126,0-189,0c-2.1,0-4.6,0.1-6.3-0.9c-1.4-0.8-2.8-3.3-2.5-4.8c3.9-24.2,8.2-48.4,12.2-72.6
			c5.6-34.1,11.1-68.1,16.6-102.2c4.7-29.1,9.4-58.3,14.1-87.5c2.5-15.6,5-31.1,7.5-46.7c4.8-30,9.7-59.9,14.6-89.9
			c1.5-9.3,3-18.6,4.2-28c0.6-5.1,2.8-7.9,7.9-9.2c35.5-9.6,71-19,106.3-29.2c10.5-3,19.9-3.1,30.4,0.1
			c35.7,11.1,71.7,21.5,107.7,31.9c5,1.4,7,4.1,7.7,8.8c4.6,29.7,9.3,59.3,14,89c4.7,30,9.4,60,14,90c5,32.3,10,64.6,15,96.9
			c5,32,10,63.9,14.9,95.9c2.6,17.1,5,34.2,7.4,51.3c0.9,6.5,0.3,7.2-6.3,7.2c-51.2,0-102.3,0-153.5,0
			C323.2,659.8,310.8,659.8,298.5,659.8z M488.2,652.6c-1.9-13.1-3.7-25.8-5.7-38.6c-4.9-31.6-9.8-63.3-14.7-94.9
			c-5-32.5-10.1-64.9-15.1-97.4c-4.7-30-9.3-60-13.9-90c-5.2-33.3-10.5-66.6-15.5-99.9c-0.5-3.1-1.8-4.2-4.5-4.9
			c-9.2-2.6-18.5-5.2-27.7-8c-29.7-8.8-59.4-17.6-89.1-26.3c-1.8-0.5-3.9-0.3-5.7,0.2c-14.6,3.9-29.1,8-43.6,12
			c-24,6.6-47.9,13.1-71.8,19.8c-1.4,0.4-3.3,1.9-3.5,3.2c-2.5,14.4-4.8,28.8-7.1,43.2c-4.5,28.2-8.8,56.4-13.3,84.6
			c-3.1,19.5-6.6,38.9-9.7,58.4c-4.1,25.7-8.1,51.5-12.2,77.2c-3.5,21.6-7.2,43.2-10.8,64.8c-4.1,24.7-8,49.5-12,74.2
			c-1.2,7.3-2.2,14.7-3.4,22.3C235.4,652.6,361.7,652.6,488.2,652.6z"/>
		<path d="M224.4,363c-4.2,7.3-8.2,14.7-12.6,21.8c-11.5,18.3-25.1,34.9-43.4,47c-5.7,3.8-7.8,4.4-13.3,3.1
			c31.3-31.3,53.7-67.7,68.1-109.7c-8.7,1.1-16.7,2.6-24.8,3.1c-6.9,0.5-13.9-0.1-20.9-0.3c-1,0-2.2-0.2-2.8-0.8
			c-2.2-2-4.2-4.2-6.3-6.4c2.4-0.9,4.7-2.2,7.1-2.6c15.4-2.7,30.8-5.3,46.2-7.7c3.6-0.6,5-2.1,4.8-5.9c-1.3-18.6-2.2-37.2-3.6-55.7
			c-0.3-3.9-2.5-7.6-3.3-11.4c-0.5-2.4-0.9-6.4,0.3-7.1c2.2-1.3,6-1.9,8.3-0.8c5.2,2.4,10.1,5.8,14.8,9.1c3.5,2.5,4.7,6,4.1,10.5
			c-1.9,13.5-3.5,27-5,40.6c-0.6,5.2-0.7,10.5-1.1,16.5c6.2-2,11.7-3.8,17.2-5.6c5.5-1.9,16.5,0.9,20.4,5.2c2.5,2.8,1.9,5.8-2.5,7.2
			c-8.2,2.6-16.6,4.8-24.9,7c-3.5,0.9-7.1,1.5-11.1,2.4c-0.4,8-0.8,15.9-1.1,22.2c10.1,5.8,19.4,10.5,27.9,16.4
			c6.9,4.8,8.5,13.2,5.8,21.1c-1.9,5.5-6.1,6.8-10.2,2.8c-3.4-3.4-6.3-7.3-9.1-11.2c-4.5-6.3-8.8-12.9-14.4-19
			c-0.1,1.7-0.2,3.4-0.2,5.1c-0.3,36.3-0.6,72.6-0.7,109c0,7.6-2.3,14.4-6,20.8c-3.1,5.4-6,5.4-9,0.2c-6.2-10.8-8.7-21.9-6.6-34.9
			c3.5-21.6,5.2-43.6,7.4-65.4c0.9-8.7,1-17.4,1.5-26.1C225,363.1,224.7,363.1,224.4,363z"/>
		<path d="M338.6,452.3c0-13.3,0-25.4,0-38c-5.3,0.4-10.2,1-15.1,1c-6.5,0.1-13,0.1-19.4-0.4c-5-0.5-9.5-2.5-11.8-8.9
			c5.7-0.7,10.7-1.3,15.7-1.9c8.8-1.1,17.5-2.3,26.3-3.1c3.2-0.3,4.4-1.3,4.2-4.5c-0.5-8.6,0.6-17.3-5.1-25
			c-2.4-3.2,0.2-7.3,4.2-7.5c7.5-0.3,14.5,1.6,20.8,5.8c2.9,1.9,3.6,4.8,2.9,8.3c-1.1,6-1.9,12.1-3,19.4c9.5-2.1,18-3.4,26.1-5.9
			c8.7-2.6,15.6,1,22.5,5c1.2,0.7,2.6,3.2,2.2,4c-0.8,1.5-2.7,3-4.3,3.4c-13.2,2.5-26.5,4.8-39.7,7.1c-2.3,0.4-4.5,0.7-7.2,1.1
			c-0.8,12.6-1.6,25-2.4,38.3c10.8-1,20.9-1.7,30.9-3c11-1.4,22-4.3,33-4.9c11.5-0.6,21.8,3.9,29.7,12.6c2.9,3.3,1.9,6-2.3,6.9
			c-4.4,0.9-8.9,1.3-13.4,1.2c-32.3-0.9-64.6-0.3-96.8,3c-14.2,1.5-28.3,4.3-42.3,7.2c-12.2,2.5-21.7-3.1-31.1-9.1
			c-2.8-1.7-2.2-4.4,1-5.7c1.8-0.7,3.9-0.8,5.8-1C292.9,455.9,315.6,454.1,338.6,452.3z"/>
		<path d="M275.5,351.4c20.8-4.6,41.1-5.1,61-8.9c0-11.8,0-23.4,0-34.8c-14.6-0.8-30.1,6.8-42.6-5.3c0-0.7,0-1.4,0-2.1
			c2-0.5,3.9-1.2,5.9-1.5c11.2-1.7,22.4-3.3,33.6-4.8c2.7-0.4,3.6-1.4,3.6-4.1c-0.1-16.8,0.2-33.7-0.2-50.5c-0.1-3.9-2.1-8-3.9-11.6
			c-2.6-5.3-0.7-9.5,5.2-8.8c5.8,0.7,11.7,2.4,17.2,4.4c5.1,1.9,5.2,6.3,4.7,11.2c-1.8,18-3.1,36.1-4.8,55.5
			c9.2-2.6,17.2-4.7,25-7.2c8-2.6,14.3,1.2,20.3,5.4c3.1,2.2,2,5.5-2.5,6.8c-9.3,2.6-18.7,4.7-28.1,6.8c-4.7,1.1-9.5,1.7-14.9,2.6
			c-0.7,11.6-1.4,23.3-2.1,35.9c9.8-1.4,18.9-2.7,28-4.2c7.6-1.2,15.1-2.5,22.7-3.6c10.4-1.6,18.4,3.2,25.3,10.2
			c3.1,3.1,2.3,5.1-1.9,6.4c-2.2,0.6-4.6,0.8-6.9,0.9c-39.2,1.4-78.1,4.8-116.7,11.7c-9.2,1.6-17-1.8-24.5-6.3
			C278,354.9,277.4,353.6,275.5,351.4z"/>
		<path d="M254.5,535.2c-2.5,3.2-5,6.3-7.5,9.4c-0.5-0.2-1-0.3-1.5-0.5c-3.2-11-6.4-22-9.9-33.9c11.8,3.4,22.8,6.5,34.4,9.9
			c-3.3,3.6-6.1,6.5-9.5,10.2c15.5,14.7,27.1,31.9,33,54.4c6-22.1,17.2-39.5,33.7-54.8c-3.9-2.7-7.2-5.1-10.6-7.5
			c0.3-0.8,0.7-1.6,1-2.4c11-3.2,21.9-6.3,33.8-9.8c-3.4,11.9-6.6,22.8-10,34.6c-3.4-3.3-6.4-6.1-9.6-9.1
			c-10.3,7.9-17.7,17.9-23.6,29.2c-8.1,15.4-11.3,31.9-11.1,49.1c0.1,7.8,0,15.7,0,23.5c0,2.7-0.4,5.6-3.7,5.1
			c-1.3-0.2-3.1-3.2-3.2-5c-0.6-13.8,0.1-27.7-1.5-41.4c-2.5-22-12.5-40.8-28.4-56.3c-0.9-0.9-2-1.8-3-2.6
			C256.6,536.7,255.9,536.3,254.5,535.2z"/>
	</g>
</g>
</svg>
