<?xml version="1.0" encoding="utf-8"?>
<!-- Generator: Adobe Illustrator 22.0.1, SVG Export Plug-In . SVG Version: 6.00 Build 0)  -->
<svg version="1.1" id="Слой_1" xmlns="http://www.w3.org/2000/svg" xmlns:xlink="http://www.w3.org/1999/xlink" x="0px" y="0px"
	 viewBox="0 0 595.3 841.9" style="enable-background:new 0 0 595.3 841.9;" xml:space="preserve">
<g>
	<g>
		<path d="M298.6,658.8c-63,0-126,0-189,0c-2,0-4-0.1-5.9-0.6c-2.8-0.7-3.7-2.4-3.1-5.6c4.9-28.8,9.6-57.6,14.4-86.4
			c2.6-15.4,5.3-30.7,7.8-46.1c2.8-17,5.4-34.1,8.1-51.1c4.1-25.6,8.3-51.1,12.4-76.7c5.1-31.6,10.3-63.2,15.4-94.8
			c3.9-24,7.6-48.1,11.2-72.2c0.7-4.9,3.2-7.1,7.8-8.3c27-7.3,54-14.7,81-22.1c12.3-3.4,24.5-6.9,36.9-9.9c3.3-0.8,7.3-0.3,10.6,0.7
			c21.7,6.2,43.2,12.7,64.8,19.1c17,5,33.9,10.2,51,14.9c5,1.4,7.1,4,7.8,8.7c4.6,29.7,9.3,59.3,14,89c4.7,30,9.4,60,14,90
			c5,32.3,10,64.6,15,96.9c4.8,31,9.5,62,14.2,93c2.8,18.2,5.5,36.4,8.2,54.6c0.9,6,0.1,6.8-6.3,6.8
			C425.6,658.8,362.1,658.8,298.6,658.8z M108.8,651.6c126.6,0,252.8,0,379.5,0c-15.8-101.6-31.5-202.8-47-303
			c-13.9,2.5-27.3,5-40.7,7.4c-12.8,2.3-22.8-2.3-30.7-12.3c-5.6-7.1-11.5-13.8-17.1-20.9c-14.8-18.6-29.4-37.5-44.4-56
			c-4.2-5.2-9.7-9.3-14.7-14.1c-8.6,12.3-16.5,23.7-24.6,35.1c-18.5,26.1-40.4,48.9-67.4,66c-11.7,7.4-24.6,13.1-37.1,19.2
			c-2,1-4.8,0.5-7.3,0.7c-0.1-0.5-0.3-1.1-0.4-1.6c1.4-1.1,2.7-2.2,4.1-3.3c11.1-8.5,22.8-16.3,33.1-25.7
			c28.7-26.2,55.8-54.1,74.5-88.8c3-5.6,4.8-12,6.5-18.2c1-3.9,0.7-8.3,1.1-12.4c0.6-6.8,3.6-8.9,9.6-5.9c4,2,7.7,4.7,11,7.7
			c7.8,7,7.9,8.6,2.7,17.7c-0.1,0.2,0.1,0.6-0.1-0.5c8.9,8.2,17.1,15.4,25.1,23c8.9,8.5,17.7,17.2,26.3,26
			c24.9,25.3,57.3,37.5,89.4,51.3c-0.5-4.3-0.7-8.1-1.3-11.9c-5.2-33.6-10.5-67.2-15.9-100.8c-0.3-1.6-2.1-3.8-3.7-4.3
			c-9-2.8-18.1-5.2-27.2-7.8c-29.7-8.8-59.3-17.7-89.1-26.4c-2.2-0.6-4.9-0.6-7.2,0c-14.4,3.8-28.7,7.9-43.1,11.9
			c-24,6.6-47.9,13.1-71.9,19.8c-1.4,0.4-3.3,1.9-3.6,3.2c-2.5,14.4-4.8,28.8-7.1,43.2c-4.4,28.2-8.8,56.4-13.3,84.6
			c-2.8,17.3-5.9,34.6-8.7,52c-4.5,28-8.8,56.1-13.3,84.1c-3.5,21.8-7.2,43.5-10.8,65.3c-4,24.4-8,48.8-11.9,73.2
			C111,636.6,109.9,644,108.8,651.6z"/>
		<path d="M212.6,380.5c22.3-4.4,44.2-5.1,66.3-8.8c-0.5-9.8,1.8-19.9-4.5-28.9c-1.6-2.4-2.9-3.1-5.5-2.3c-9,2.9-17.7,2.2-25.9-2.8
			c-1.8-1.1-3.3-2.5-5-3.7c0.1-0.5,0.1-1,0.2-1.5c3.1-0.8,6.1-1.7,9.3-2.3c22.1-4.2,44.1-8.4,66.2-12.6c6.9-1.3,19.7,4.3,23.1,10.2
			c1.7,3,0.1,4.6-2.5,5c-3.6,0.7-7.3,0.8-10.9,1.1c-9.6,0.8-19.1,1.5-28.9,3.2c1,0.7,2,1.4,3,2c4.2,2.4,5.2,5.9,4.3,10.6
			c-1.2,6.1-1.7,12.4-2.6,19.7c10-1.5,18.8-2.4,27.5-4.3c11.5-2.5,21.4,0,30,7.9c1.5,1.4,2.2,3.5,3.3,5.3c-1.9,1.1-3.7,3-5.7,3.2
			c-9.1,0.8-18.3,1-27.4,1.5c-7.7,0.4-15.3,0.8-23,1.2c-1.5,0.1-2.9,0.4-4.6,0.7c-0.7,22.7-1.4,45.1-2.2,68.4
			c11-0.9,21.4-1.6,31.7-2.8c12.6-1.5,25-4.4,37.6-5c11.3-0.6,21.5,4,29.4,12.5c3.1,3.3,2,6.3-2.4,7.2c-4.2,0.9-8.6,1.2-12.9,1.1
			c-36.9-0.9-73.7-0.4-110.4,3c-16.4,1.5-32.6,4.6-48.8,7.4c-12.1,2.1-21.7-3.2-31.1-9.3c-2.8-1.8-2-4.6,1.2-5.6
			c2.3-0.8,4.9-0.8,7.3-1c26.4-2.1,52.8-4.2,79.2-6.3c0.8-0.1,1.6-0.3,2.1-0.4c0-22.4,0-44.7,0-67.7c-9.7,1.1-18.4,2.1-27.1,3.1
			c-5.3,0.6-10.5,1.7-15.8,2.1c-8.2,0.7-15.2-2.9-21.9-7.2C214.3,383.8,213.9,382.5,212.6,380.5z"/>
		<path d="M283.6,559.1c-13.2-11.7-25.3-22.3-37.4-33c-2.6-2.3-5.5-4.4-7.7-7.1c-1-1.2-0.8-3.5-1.2-5.3c1.9-0.1,4.6-1,5.7-0.1
			c7.4,5.9,14.4,12.3,21.5,18.5c8.1,7.1,16.1,14.3,24.9,22.2c0.2-2.7,0.3-4.1,0.3-5.5c0-16,0-32,0-48c0-2.8,0-5.9,3.6-5.9
			c3.7,0.1,3.5,3.3,3.5,6c0,17,0,33.9,0,51.8c1.8-1.3,3-1.9,4.1-2.9c12.6-11.1,25.1-22.3,37.7-33.4c1.6-1.4,3.3-3,5.3-3.7
			c1.2-0.4,3.6,0.1,4.3,1c0.7,0.9,0.5,3.4-0.3,4.4c-2.2,2.7-4.9,5-7.5,7.3c-12.4,10.8-24.8,21.6-38.5,33.5c3,0,4.6,0,6.2,0
			c19.2,0,38.3,0,57.5,0c1.5,0,3.2-0.2,4.4,0.4c1.1,0.6,2.3,2.1,2.3,3.3c0,1.1-1.2,2.8-2.3,3.3c-1.4,0.6-3.2,0.4-4.9,0.4
			c-22.5,0-45,0-68.3,0c0,2,0,3.8,0,5.5c0,21.5,0,43,0,64.5c0,1.3,0.4,2.9-0.2,3.9c-0.7,1.3-2.3,3.2-3.1,3.1
			c-1.4-0.3-2.8-1.9-3.6-3.2c-0.6-1-0.2-2.6-0.2-3.9c0-21.3,0-42.7,0-64c0-1.8,0-3.6,0-5.9c-2.4,0-4.2,0-5.9,0c-20.3,0-40.7,0-61,0
			c-1.3,0-2.9,0.4-3.9-0.2c-1.5-0.9-2.5-2.5-3.7-3.8c1.2-1.1,2.3-2.6,3.7-3.3c1.1-0.5,2.6-0.1,3.9-0.1c18.2,0,36.3,0,54.5,0
			C279.1,559.1,280.7,559.1,283.6,559.1z"/>
		<path d="M362.4,414.4c-1.8,2-3,4.4-4.9,5.4c-13.7,7.4-27.6,14.7-41.5,21.7c-2.4,1.2-5.5,1-8.2,1.5c1.4-2,2.6-4.3,4.3-6.1
			c10.4-10.9,17.9-23.5,23.3-37.5c2.3-6,3.9-6.7,9.2-3.3c4.9,3.1,9.4,6.9,13.7,10.8C359.9,408.7,360.7,411.5,362.4,414.4z"/>
		<path d="M262.7,435.4c-1.4,5.1-1.7,9.6-6.8,11.7c-5.3,2.2-9.3-0.3-12.2-4.2c-7-9.5-13.6-19.2-20.1-29c-1.8-2.7-0.2-5,2.7-4.6
			c11.1,1.5,22,4.5,30.3,12.4C259.9,424.9,260.7,430.7,262.7,435.4z"/>
	</g>
</g>
</svg>
