<?xml version="1.0" encoding="utf-8"?>
<!-- Generator: Adobe Illustrator 22.0.1, SVG Export Plug-In . SVG Version: 6.00 Build 0)  -->
<svg version="1.1" id="Слой_1" xmlns="http://www.w3.org/2000/svg" xmlns:xlink="http://www.w3.org/1999/xlink" x="0px" y="0px"
	 viewBox="0 0 595.3 841.9" style="enable-background:new 0 0 595.3 841.9;" xml:space="preserve">
<g>
	<g>
		<path d="M103,659.9c-3.4-1.9-3.8-4.2-3-8.1c2.6-12.5,4.7-25.1,6.8-37.7c2.3-13.6,4.3-27.2,6.5-40.8c5.1-31.6,10.3-63.2,15.4-94.8
			c4.6-28.7,9.2-57.3,13.8-86c5-31.3,10.2-62.6,15.2-93.9c3.8-24.1,7.6-48.1,11.2-72.2c0.8-5.1,3.5-7.2,8.2-8.5
			c34.2-9.2,68.5-18.1,102.5-28.2c13-3.9,24.7-3.9,37.6,0.3c34.4,10.9,69.2,20.8,103.9,30.7c5.3,1.5,7.2,4.3,7.9,9.2
			c4.2,27.4,8.6,54.8,12.9,82.2c4.4,28.7,8.7,57.4,13.2,86.1c3.2,20.6,6.6,41.3,9.8,61.9c4.1,26.6,8.1,53.2,12.2,79.8
			c3.2,20.5,6.7,40.9,9.8,61.4c2.7,17.6,5.2,35.2,7.5,52.8c0.3,1.9-0.9,4-1.4,5.9C363,659.9,233,659.9,103,659.9z M486.8,652.7
			c0-1.3,0.1-2.5,0-3.6c-1.7-11.5-3.4-23-5.2-34.4c-4.9-32-9.9-63.9-14.9-95.9c-5-32.3-10-64.6-15.1-96.9c-4.7-30-9.3-60-13.9-90
			c-5.2-33.3-10.5-66.6-15.5-99.9c-0.5-3-1.8-4.2-4.4-5c-18.9-5.4-37.8-11-56.7-16.5c-8.8-2.6-17.6-5.2-26.4-7.8
			c3.1,3.7,6.7,6.3,9.8,9.5c3.5,3.7,2.5,7.5-2.1,9.5c-1.4,0.6-2.9,0.8-4.3,1.3c-13.6,4.3-27.2,8.6-42,13.2c8.2,3.8,7.7,9.7,6.5,16.2
			c-1.2,6.7-1.8,13.6-2.7,20.8c2.9-0.2,4.5-0.2,6.2-0.5c19.7-3.1,39.5-5.8,59.1-9.6c14.8-2.9,28.1-1.6,39.2,9.4
			c1.5,1.5,3.5,4.5,2.9,5.7c-0.9,1.8-3.7,2.9-5.9,3.6c-2.2,0.7-4.6,0.6-6.9,0.7c-20.5,1.2-40.9,2.2-61.4,3.5
			c-10.9,0.7-21.8,2-32.3,3c-1.7,4.8,0.4,6.4,4,7.9c21.9,8.8,44.1,17.2,65.4,27.2c14.8,6.9,28.8,15.9,42.8,24.5
			c7.2,4.4,9.4,11.3,7,19.6c-1.6,5.5-4.7,8.4-10.2,7c-4.5-1.1-8.9-3.5-12.8-6.1c-30.6-20.1-61-40.5-91.6-60.7c-1.4-1-3-1.7-5.3-3
			c0,12.7,0,24.5,0,36.3c0,6.6-1.6,12.9-5.6,18.3c-3.3,4.4-7.5,4.2-10.5-0.3c-1.2-1.8-2-3.8-2.9-5.8c-3.6-8.3-2.4-17-1.6-25.6
			c0.5-5.8,1-11.7,1.5-17.5c-0.4-0.3-0.9-0.5-1.3-0.8c-32.2,41.3-71.5,71.3-124.7,79.3c43.8-25.1,84.7-53.5,114.7-96.2
			c-1.8,0-2.5-0.1-3.1,0c-18.7,3-37.6,5.5-56.1,9.3c-11.6,2.4-21.3-1-30.9-6.5c-1.6-0.9-2.6-2.7-3.9-4.1c0.1-0.6,0.2-1.2,0.3-1.8
			c34.8-5.9,70-8.5,105-14.2c-0.1-11.9,0.3-23.3-3.6-34.5c-20.1,4.1-39.7,8.6-60,5c1.9-1.8,4-2.9,6.2-3.5c6-1.5,12.1-2.5,17.9-4.4
			c28.8-8.9,57.4-18.5,80.8-39.5c-6.8-2.1-13.4-4.3-20-6.1c-2.4-0.6-5.3-0.7-7.7,0c-14.4,3.8-28.8,7.9-43.1,11.9
			c-24,6.6-47.9,13.1-71.9,19.9c-1.4,0.4-3.2,2-3.4,3.3c-2.9,16.7-5.5,33.4-8.2,50.1c-4.1,25.9-8.1,51.8-12.2,77.7
			c-2.4,15.2-5.3,30.4-7.7,45.6c-4.8,30-9.4,60-14.2,90c-3.5,21.9-7.3,43.8-10.9,65.8c-4,24.2-7.9,48.5-11.9,72.7
			c-1.2,7.4-2.2,14.9-3.4,22.6C234.5,652.7,360.6,652.7,486.8,652.7z"/>
		<path d="M251.8,479.6c-1.3,4-2.3,7.7-3.6,11.2c-0.5,1.3-1.8,3.2-2.6,3.1c-1.4-0.1-3.1-1.3-3.9-2.5c-5.6-9.2-8.7-19-6.3-30
			c4.5-20.4,6.3-41.1,5.3-62c-0.3-6.2-2.3-12.4-4.2-18.3c-2.5-7.4-0.9-10,6.8-9.5c1,0.1,2.1,0,2.9,0.4c10,5.3,20.2,2,30.1,0.1
			c15.6-3.1,31.1-6.9,46.6-10.8c5.1-1.3,9.4-1.1,13.7,1.8c4.8,3.2,10,6,14.6,9.5c5,3.8,4.8,6.3,2,11.9c-1.4,2.8-1.8,6.3-2.2,9.6
			c-2.4,23.2,0.3,46.2,2.2,69.2c1.1,13.5-3,25.7-13.1,35.3c-6.2,5.9-9.2,5.1-12.4-2.6c-2.4-5.7-4.8-11.3-6.9-17.1
			c-1.1-2.8-2.6-3.6-5.6-3.3c-14.4,1.4-28.8,2.8-43.3,3.8C265.4,480,258.7,479.6,251.8,479.6z M254,467.6
			c12.7-1.5,24.7-3.1,36.7-4.3c12-1.2,24.2-6.3,36.2,2.2c4.7-13.7,3.6-27.2,4-40.5c-24.8,2.5-49,7.3-74.1,5.7
			C255.9,442.5,255,454.4,254,467.6z M258.1,421.4c11.3-2,23.1-4.3,34.9-6.2c12.3-2,24.6-7.1,36.8,0.5c0.1,0.1,0.6-0.2,0.6-0.3
			c0-7.4,0.2-14.8-0.1-22.1c-0.5-12.7-0.7-13.7-13.3-12.9c-18.7,1.2-37.3,3.8-55.9,6c-1.1,0.1-2.7,2.4-2.8,3.7
			C258,400.4,258.1,410.5,258.1,421.4z"/>
		<path d="M287,524.5c-4.3,0-7.9,0-12.2,0c5.4-10.7,10.5-20.8,16.1-32c6.3,10.6,12.1,20.3,18.3,30.7c-4,0.3-7.3,0.6-11.2,0.9
			c0,2,0,3.9,0,5.9c0,35.1,0,70.2,0,105.4c0,1.7,0.5,3.7-0.3,4.9c-1.3,1.8-3.4,4.3-5.1,4.3c-1.8,0-3.9-2.4-5.2-4.2
			c-0.8-1.2-0.3-3.2-0.3-4.9c0-35,0-69.9,0-104.9C287,528.7,287,526.9,287,524.5z"/>
	</g>
</g>
</svg>
