<?xml version="1.0" encoding="utf-8"?>
<!-- Generator: Adobe Illustrator 22.0.1, SVG Export Plug-In . SVG Version: 6.00 Build 0)  -->
<svg version="1.1" id="Слой_1" xmlns="http://www.w3.org/2000/svg" xmlns:xlink="http://www.w3.org/1999/xlink" x="0px" y="0px"
	 viewBox="0 0 595.3 841.9" style="enable-background:new 0 0 595.3 841.9;" xml:space="preserve">
<style type="text/css">
	.st0{fill:#060606;}
	.st1{fill:#FD0404;}
	.st2{fill:#FD0304;}
	.st3{fill:#FD0B0B;}
	.st4{fill:#FD0F10;}
</style>
<g>
	<g>
		<path class="st0" d="M100,646.9c0.6-1.1,1.5-2.1,1.7-3.3c1.8-10.3,3.5-20.6,5.2-31c2.2-13.6,4.3-27.2,6.5-40.7
			c5.1-31.6,10.3-63.1,15.4-94.7c4.6-28.6,9.2-57.2,13.8-85.8c2.9-18.6,5.6-37.3,8.5-56c1.9-11.9,4.3-23.8,6.2-35.8
			c3-18.9,5.8-37.9,8.8-56.9c1-6.2,2.3-12.3,3.1-18.6c0.6-4.3,3.2-6.1,7-7.1c18.6-5,37.2-10.2,55.9-15.3
			c21.3-5.8,42.5-11.7,63.8-17.5c0.1,0,0.1-0.3,0.2-0.5c1.7,0,3.3,0,5,0c16.7,5,33.3,10,50,15c10,3,19.9,5.9,29.9,8.9
			c13.5,4,26.8,8.3,40.4,11.9c5,1.3,7,4,7.7,8.7c4.6,29.6,9.4,59.3,13.9,88.9c4.5,29,8.8,58,13.2,87.1c4.9,32.3,9.9,64.5,15,96.8
			c2.8,18,6,35.9,8.8,53.9c4.2,26.7,8.1,53.5,12.2,80.2c0.9,6.1,1.7,12.1,2.6,18.2c0.6,3.7-0.9,5.4-4.5,5.4c-1.2,0-2.3,0-3.5,0
			c-123,0-246,0-368.9,0c-5.9,0-11.8-0.6-17.7-0.9C100,654.2,100,650.6,100,646.9z M487.1,651.8c-1.9-12.8-3.6-25.3-5.5-37.7
			c-4.9-32.1-9.9-64.2-14.9-96.3c-5-32.3-10-64.5-15-96.8c-4.7-30.1-9.3-60.3-14-90.4c-5.2-33.2-10.5-66.5-15.5-99.7
			c-0.5-3.1-1.7-4.2-4.4-4.9c-9.5-2.6-19-5.3-28.5-8.1c-24.2-7-48.7-13.3-72.6-21.5c-12.5-4.3-23.7-4.4-36.3-0.6
			c-33.4,9.9-67.1,18.8-100.7,27.9c-2.5,0.7-3.3,1.7-3.7,4.3c-1.6,11.5-3.4,23-5.3,34.5c-2.5,15.5-5.2,31-7.7,46.5
			c-2.5,15.5-4.9,31.1-7.4,46.6c-2.5,15.4-5.1,30.7-7.6,46.1c-2.6,15.8-5.1,31.7-7.7,47.5c-2.4,15.2-4.9,30.4-7.3,45.6
			c-2.2,13.6-4.2,27.2-6.5,40.8c-2.4,14.9-5.1,29.7-7.5,44.6c-2.6,16-5.2,32.1-7.7,48.1c-1.2,7.8-2.4,15.5-3.6,23.5
			C234.4,651.8,360.6,651.8,487.1,651.8z"/>
		<path class="st1" d="M271.3,443.9c0-14.3,0-27.4,0-39.8c-10.1,0-19.6,0.1-29-0.1c-2.7-0.1-5.7-0.8-8.1-2c-2.1-1.1-3.6-3.3-5.4-5.1
			c2-1.4,3.9-3.5,6.1-4c5-1.1,10.2-1.4,15.3-1.9c6.6-0.8,13.2-1.5,20.7-2.3c-1.2-12.1,2.1-24.7-7.2-35.5c-12.7-1-27.5,5.1-38.8-6.4
			c0-0.6,0-1.2,0.1-1.8c1.5-0.4,2.9-0.9,4.5-1.1c28.4-3.6,56.7-7.3,85.1-10.8c7.4-0.9,13.7,2.2,19.4,6.3c3.2,2.3,2.4,4.9-1.8,5.6
			c-11.8,1.9-23.7,3.4-35.5,5.1c-3.2,0.4-6.5,0.7-11.4,1.3c8.7,3.5,8.1,8.9,6.7,15.3c-1.3,6.1-1.3,12.5-1.9,19.1
			c5.6-0.8,10.4-1.2,15.1-2.1c9.4-1.7,18.1,0.8,26.6,4.5c1.6,0.7,2.7,2.6,4,3.9c-1.4,1.3-2.6,3.4-4.2,3.8c-5.4,1.4-11,2.4-16.6,3.1
			c-8.2,1-16.5,1.5-25.2,2.3c-0.5,13.6-1.1,26.8-1.6,40.9c7.6-0.5,14.8-0.7,22-1.5c14-1.6,28-3.9,42.1-5.3
			c11.7-1.1,21.8,3.6,30,11.7c3.5,3.4,2.4,6.5-2.5,7.4c-4.5,0.8-9.3,1.2-13.9,1c-37.2-1.4-74.3,0-111.3,3.7
			c-10.7,1.1-21.4,3.2-32,5.1c-11.5,2.1-20.7-3.3-29.7-9c-2.9-1.8-2.1-4.4,1.1-5.5c2.1-0.7,4.5-0.8,6.8-1
			C224.3,447.1,247.9,445.5,271.3,443.9z"/>
		<path class="st2" d="M287.1,260.1c-10.8,16.7-22.8,32-36.1,46.3c-20.7,22.4-44.8,40.2-73,52.1c-8.6,3.6-13.5,4.5-19.1,2.7
			c47.5-28.7,86.8-65,114.1-114.7c-6.6-1.5-12.7-2.9-18.8-4.3c-2.2-0.5-4.7-0.9-6.5-2.2c-1.6-1.1-2.3-3.4-3.4-5.2
			c1.8-1,3.5-2.7,5.3-2.8c6.6-0.4,13.3,0,20-0.4c5.2-0.3,9,1.3,12.7,5.1c15.2,15.6,30.7,31,46.2,46.4c21.5,21.4,48.3,33.8,76.4,43.9
			c7.5,2.7,15.1,5.1,22.5,8c2.3,0.9,4,3.4,5.9,5.1c-2,1.4-3.9,3.6-6.1,4.1c-14.7,3.5-29.6,6.6-44.9,6c-6.4-0.2-11.7-2.7-16.7-6.8
			c-20.8-17.4-37.7-38.6-56-58.4C302,276.8,294.6,268.5,287.1,260.1z"/>
		<path class="st3" d="M282.6,559.1c-13.1-11.6-25.3-22.3-37.4-33c-2.6-2.3-5.5-4.4-7.7-7.1c-1-1.2-0.7-3.5-1-5.3
			c1.9-0.1,4.6-1,5.7,0c7.4,5.9,14.4,12.2,21.5,18.5c8.1,7.1,16.1,14.4,24.8,22.2c0.2-2.2,0.4-3.4,0.4-4.6c0-15.7,0-31.3,0-47
			c0-1-0.4-2.2,0.1-3c1-1.7,2.4-3.3,3.7-4.9c1.1,1.6,3.1,3.1,3.2,4.7c0.3,8.3,0.2,16.7,0.2,25c0,9.1,0,18.3,0,28.2
			c1.6-1.1,2.9-1.8,3.9-2.7c12.6-11.1,25.1-22.3,37.7-33.4c1.5-1.3,3-3,4.7-3.5c1.6-0.5,3.5,0.4,5.3,0.7c-0.3,1.7-0.1,3.9-1.1,4.9
			c-7.8,7.2-15.8,14.2-23.7,21.3c-6.9,6.1-13.8,12.2-21.6,19c2.6,0,4.2,0,5.8,0c19.8,0,39.7-0.1,59.5,0.1c1.8,0,4.7,1.9,5,3.3
			c0.6,3-1.9,4.2-4.8,4.1c-1-0.1-2,0-3,0c-20.5,0-41,0-61.5,0c-1.8,0-3.7,0-6.1,0c0,1.9,0,3.7,0,5.5c0,21.5,0,43,0,64.5
			c0,1.5,0.3,3.2-0.3,4.4c-0.5,1.2-2.1,2.7-3,2.6c-1.3-0.1-2.9-1.4-3.6-2.6c-0.6-1.2-0.3-2.9-0.3-4.4c0-21.5,0-43,0-64.5
			c0-1.6,0-3.3,0-5.5c-2.1,0-3.9,0-5.6,0c-20.5,0-41,0-61.5,0c-1.3,0-3,0.4-3.9-0.2c-1.5-0.9-3.1-2.5-3.4-4c-0.2-0.9,2.2-3,3.5-3.1
			c4.3-0.4,8.7-0.2,13-0.2C247.8,559.1,264.6,559.1,282.6,559.1z"/>
		<path class="st4" d="M409.7,583c7.1,7.4,14.1,14.6,21.1,21.9c0.7-0.4,1.4-0.9,2.1-1.3c0-6.5-0.1-13,0.1-19.6c0-1.5,1.3-2.9,2-4.3
			c0.8,1.5,2.2,2.9,2.3,4.4c0.2,6.8,0.1,13.6,0.1,21.7c8.5-8.5,16.2-16,24-23.8c3,3.3,1.4,5-0.4,6.9c-6.9,7.4-13.8,14.8-20.8,22.3
			c5.7,5.8,12.4,12.6,19.1,19.4c0.8,0.8,2,1.5,2.4,2.5c0.6,1.3,0.6,2.9,0.9,4.4c-1.3-0.4-2.9-0.5-3.8-1.3
			c-7-6.6-13.8-13.4-20.7-20.1c-0.8-0.8-1.7-1.6-3.8-3.5c-8,8.4-16,16.8-24.2,25.3c-2.6-2.4-1.2-4.2,0.6-6.2
			c6.7-7.3,13.4-14.7,20.4-22.6c-5.9-5.9-13.1-13-20.3-20.1C409,587.3,407.8,585.5,409.7,583z"/>
	</g>
</g>
</svg>
