<?xml version="1.0" encoding="utf-8"?>
<!-- Generator: Adobe Illustrator 22.0.1, SVG Export Plug-In . SVG Version: 6.00 Build 0)  -->
<svg version="1.1" id="Слой_1" xmlns="http://www.w3.org/2000/svg" xmlns:xlink="http://www.w3.org/1999/xlink" x="0px" y="0px"
	 viewBox="0 0 595.3 841.9" style="enable-background:new 0 0 595.3 841.9;" xml:space="preserve">
<style type="text/css">
	.st0{fill:#060606;}
	.st1{fill:#FD0303;}
	.st2{fill:#FD0B0B;}
	.st3{fill:#FD191A;}
</style>
<g>
	<g>
		<path class="st0" d="M297.5,658.8c-63,0-126,0-188.9,0c-2.1,0-4.6,0.1-6.2-0.9c-1.4-0.8-2.8-3.3-2.5-4.8
			c2.2-14.9,4.8-29.8,7.3-44.6c2-11.9,4.2-23.8,6.2-35.8c5.2-31.7,10.4-63.4,15.5-95.2c4.7-28.8,9.2-57.6,13.9-86.3
			c5-31.2,10.2-62.5,15.1-93.7c3.8-24,7.6-48,11.2-72c0.8-5.1,3.4-7.2,8.1-8.5c28.1-7.6,56-15.3,84.1-23c10.3-2.8,20.6-6.1,31-8.4
			c4.3-0.9,9.2-0.8,13.5,0.4c22,6.1,43.8,12.7,65.6,19.1c16.6,4.9,33.1,10.1,49.9,14.6c5.3,1.4,7.2,4.2,8,9.1
			c4.2,27.4,8.6,54.7,12.8,82.1c2.8,18.3,5.4,36.7,8.2,55c2.1,13.6,4.5,27.1,6.7,40.7c2.5,16,4.8,32.1,7.3,48.2
			c2.5,16.2,5.1,32.4,7.6,48.6c2.5,15.9,4.9,31.8,7.3,47.7c2.5,16.2,5.2,32.4,7.7,48.6c2.2,14.1,4.2,28.2,6.3,42.3
			c0.6,3.9,1,7.9,1.6,11.8c0.5,3.4-0.9,5.1-4.3,5.1c-1,0-2,0-3,0C424.1,658.8,360.8,658.8,297.5,658.8z M487.1,651.7
			c-1.8-12.6-3.5-25-5.4-37.5c-5-32.3-10-64.5-15-96.7c-5-32.1-10-64.2-14.9-96.3c-4.7-30.1-9.3-60.3-14-90.4
			c-5.2-33.4-10.5-66.8-15.6-100.2c-0.4-2.9-1.8-3.9-4.1-4.6c-9-2.6-18.1-5-27.1-7.7c-29.9-8.8-59.8-17.7-89.7-26.5
			c-1.5-0.4-3.3-0.6-4.7-0.2c-13.7,3.7-27.4,7.6-41.1,11.4c-24.5,6.7-49,13.4-73.6,20c-3.4,0.9-5.5,1.8-6,6.2
			c-1.3,11.5-3.7,22.9-5.6,34.4c-2.5,15.2-4.8,30.4-7.2,45.7c-2.4,15.4-4.8,30.8-7.3,46.2c-2.5,15.5-5.2,31-7.7,46.5
			c-2.5,15.5-4.9,31.1-7.4,46.6c-2.5,15.4-5.1,30.7-7.6,46.1c-2.3,13.9-4.5,27.8-6.8,41.7c-2.4,14.7-4.8,29.4-7.2,44.1
			c-2.6,15.9-5.1,31.7-7.6,47.6c-1.2,7.8-2.5,15.6-3.7,23.6C234.4,651.7,360.7,651.7,487.1,651.7z"/>
		<path class="st1" d="M279.4,445.3c0-11.6,0-23,0-34.7c-10.9,0.9-21.1,2.2-31.3,2.5c-6.2,0.1-12.6-0.9-18.6-2.3
			c-2.4-0.6-4.3-3.5-6.5-5.4c2.5-1.6,4.9-4.1,7.5-4.5c14.8-2.3,29.7-4.1,44.5-6.1c1.1-0.1,2.2-0.5,3.9-0.8
			c-1.6-12.1,1.8-24.8-6.2-35.8c-2.5-3.5,0.1-8.1,4.4-8.4c8.6-0.6,16.5,1.7,23.6,6.4c4,2.6,3.6,6.6,3,10.8c-1.2,7.5-2.1,15-3.2,23.5
			c8.7-1.6,16.3-2.8,23.9-4.3c10.9-2.1,21.1,0.2,30.9,4.9c1.5,0.7,3.3,2.5,3.3,3.8c-0.1,1.3-2,3.4-3.4,3.7
			c-7.4,1.7-14.9,3.2-22.4,4.3c-10.7,1.6-21.4,2.8-32.5,4.2c-0.6,12.3-1.1,24.2-1.7,36.7c6.1-0.4,11.9-0.6,17.6-1.1
			c24.7-2.2,49.4-4.3,74.1-6.7c12.4-1.2,22.4,3.9,31,12c1.7,1.6,3,5.5,2.2,7.4c-0.7,1.8-4.5,3.4-6.9,3.4c-10.8,0-21.6-0.6-32.5-0.9
			c-37-1-74,1.2-110.8,4.9c-24.8,2.5-49.4,6.8-74.1,9.9c-4.2,0.5-9-0.3-12.9-2c-5.2-2.4-9.9-6.1-14.6-9.5c-1.3-0.9-1.9-2.9-2.8-4.4
			c1.6-1,3.2-2.6,4.9-2.7c6.3-0.6,12.7-0.4,19-1c28.4-2.4,56.7-4.9,85.1-7.4C278.7,445.6,279.2,445.4,279.4,445.3z"/>
		<path class="st1" d="M188.5,337.3c30.3-5.1,59.8-6.2,88.5-10.4c0-12.7,0-25,0-36.8c-13.5,0.3-26.3,1.1-39.1,0.6
			c-4.7-0.2-9.4-3.3-14-5.4c-1-0.5-2-2.6-1.8-3.7c0.2-0.9,2.2-1.8,3.5-1.9c11.9-1.4,23.8-2.6,35.7-3.9c4.9-0.6,9.8-1.4,13.9-1.9
			c0-15.2,0.3-29.8-0.2-44.4c-0.2-4-2.6-8.1-4.6-11.9c-2.7-5.2-0.5-10.2,5.2-9.5c7,0.9,13.9,2.8,20.5,5.3c4.7,1.7,5.7,5.9,5,11.1
			c-1.8,15-2.8,30.1-4.2,46.5c12-2.5,22.8-4,33.2-7.2c9.7-3,18-1.3,26.1,3.6c2.1,1.3,3.3,4.1,5,6.2c-2,1.3-3.8,3.4-5.9,3.8
			c-16.5,3.1-33.1,5.8-49.6,8.6c-2.6,0.4-5.3,0.7-8.8,1.1c0,12.4,0,24.8,0,37.6c8.9-1.1,18.2-2.1,27.6-3.3c15.3-2,30.6-4.7,46-6.1
			c11-1,19.8,4.6,27,12.6c2.2,2.5,1.2,4.8-1.8,5.8c-2.3,0.8-4.9,1.1-7.3,1.3c-34.3,2.1-68.5,3.5-102.7,6.3
			c-22.5,1.8-45,5.3-67.4,8.2c-10.2,1.3-18.5-2.8-26.7-7.8C190.8,341.1,190.3,339.7,188.5,337.3z"/>
		<path class="st2" d="M288.9,554.2c0-17.6,0-34.1,0-50.5c0-1.3-0.4-2.8,0.1-4c0.8-1.7,2.2-3.2,3.3-4.7c1.2,1.6,3.5,3.2,3.6,4.9
			c0.3,15.2,0.2,30.3,0.2,45.5c0,2.3,0,4.6,0,8c3.4-2.8,6-4.8,8.6-7.1c11.1-9.8,22.1-19.7,33.1-29.6c1.4-1.2,2.7-2.8,4.3-3.3
			c1.6-0.5,3.6,0.1,5.4,0.3c-0.3,1.8,0.1,4.2-0.9,5.2c-7.3,7-14.9,13.8-22.5,20.5c-7.2,6.4-14.6,12.5-22.6,19.4
			c2,0.1,3.4,0.3,4.7,0.3c19.5,0,39,0,58.5,0c1.3,0,2.9-0.4,3.9,0.2c1.3,0.7,3,2.3,2.9,3.3c-0.2,1.4-1.7,3-3,3.8
			c-1.2,0.6-2.9,0.2-4.4,0.2c-22.5,0-45,0-68,0c0,2,0,3.8,0,5.6c0,21.3,0,42.7,0,64c0,1.2,0.4,2.5-0.1,3.5c-0.8,1.6-2.2,2.8-3.3,4.2
			c-1.2-1.5-2.7-2.8-3.6-4.5c-0.5-0.9-0.1-2.3-0.1-3.5c0-21.3,0-42.7,0-64c0-1.6,0-3.3,0-5.4c-4,0-7.7,0-11.3,0c-18.5,0-37,0-55.5,0
			c-1,0-2.2,0.4-3-0.1c-1.8-1-3.3-2.4-4.9-3.7c1.6-1.2,3.2-3.5,4.9-3.6c10.2-0.3,20.3-0.2,30.5-0.2c10.6,0,21.2,0,32.8,0
			c-5.7-5.1-10.6-9.7-15.7-14.1c-9.3-8.3-18.7-16.5-28.1-24.7c-2.2-1.9-4.3-4-2.1-6.6c2.2-2.6,4.7-1,6.9,0.9
			c13.6,12,27.2,24,40.8,35.9C285.5,551.6,286.8,552.5,288.9,554.2z"/>
		<path class="st3" d="M434,612.4c4.1-6.3,8.6-13.4,13.2-20.6c-0.6-0.8-1.7-2-3-3.7c4.7-1.4,9.2-2.7,14.5-4.3
			c-1.5,5.2-2.8,9.8-4.2,14.9c-1.7-1.5-2.9-2.5-4.2-3.6c-14.9,12-15.3,28.9-14.7,46.1c-0.8-0.1-1.5-0.1-2.3-0.2
			c-0.3-1.7-0.8-3.3-1-5c-0.6-6.6-0.4-13.3-1.6-19.8c-1.6-8.4-6.2-15.3-13-21.2c-1.3,1.1-2.6,2.2-4.3,3.7c-1.4-5-2.7-9.6-4.2-14.9
			c5.3,1.5,9.8,2.8,14.6,4.3c-1.5,1.7-2.5,3-3.1,3.7C425.4,599,429.9,606,434,612.4z"/>
	</g>
</g>
</svg>
