<?xml version="1.0" encoding="utf-8"?>
<!-- Generator: Adobe Illustrator 22.0.1, SVG Export Plug-In . SVG Version: 6.00 Build 0)  -->
<svg version="1.1" id="Слой_1" xmlns="http://www.w3.org/2000/svg" xmlns:xlink="http://www.w3.org/1999/xlink" x="0px" y="0px"
	 viewBox="0 0 595.3 841.9" style="enable-background:new 0 0 595.3 841.9;" xml:space="preserve">
<style type="text/css">
	.st0{fill:#060606;}
	.st1{fill:#FD0000;}
	.st2{fill:#FD0404;}
	.st3{fill:#FD0B0B;}
	.st4{fill:#FD0506;}
	.st5{fill:#FD0202;}
</style>
<g>
	<g>
		<path class="st0" d="M297.6,658.8c-63,0-126,0-189,0c-2.3,0-4.8-0.1-6.7-1c-1.2-0.6-2.5-3.2-2.2-4.6c2.6-16,5.6-32,8.2-48
			c4.3-25.7,8.4-51.4,12.6-77.1c5.1-31.6,10.3-63.1,15.4-94.7c4.9-30.1,9.6-60.2,14.5-90.2c4.8-29.8,9.7-59.5,14.5-89.3
			c1.5-9.4,3-18.9,4.2-28.4c0.6-5,3.2-7.3,8-8.6c28.1-7.5,56.1-15.3,84.1-23c10.5-2.9,20.9-6.2,31.5-8.6c4.1-0.9,8.9-0.7,13,0.5
			c22.1,6.2,44.1,12.8,66.1,19.3c16.6,4.9,33.2,10.1,49.9,14.6c5.1,1.4,6.9,4.2,7.6,8.9c4.2,27.5,8.7,55,12.9,82.6
			c4.4,28.7,8.7,57.4,13.2,86c3.2,20.8,6.7,41.5,9.9,62.3c4.8,31,9.4,62,14.2,92.9c2.5,16,5.4,32,7.8,48c2.6,17,4.9,34.1,7.3,51.2
			c0.9,6.5,0.3,7.2-6.2,7.2C424.5,658.8,361,658.8,297.6,658.8z M487.1,651.7c-1.8-12.6-3.5-25.1-5.4-37.5c-5-32.3-10-64.5-15-96.7
			c-5-32.1-10-64.2-14.9-96.3c-4.7-30.1-9.3-60.3-14-90.4c-5.2-33.4-10.5-66.8-15.6-100.2c-0.4-2.9-1.8-3.9-4.1-4.6
			c-9-2.6-18.1-5-27.1-7.7c-29.9-8.8-59.8-17.7-89.7-26.5c-1.5-0.4-3.3-0.6-4.7-0.2c-13.7,3.7-27.4,7.6-41.1,11.4
			c-24.5,6.7-49,13.4-73.6,20c-3.4,0.9-5.5,1.8-6,6.2c-1.3,11.5-3.7,22.9-5.6,34.4c-2.5,15.2-4.8,30.4-7.2,45.7
			c-2.4,15.4-4.8,30.8-7.3,46.2c-2.5,15.5-5.2,31-7.7,46.5c-2.5,15.5-4.9,31.1-7.4,46.6c-2.5,15.4-5.1,30.7-7.6,46.1
			c-2.3,13.9-4.5,27.8-6.8,41.7c-2.4,14.7-4.8,29.4-7.2,44.1c-2.6,15.9-5.1,31.7-7.6,47.6c-1.2,7.8-2.5,15.6-3.7,23.6
			C234.4,651.7,360.7,651.7,487.1,651.7z"/>
		<path class="st1" d="M191.8,271.4c5.1-1.1,10.2-2.6,15.4-3.3c9.2-1.2,18.5-2,27.8-3c0.2,0.8,0.4,1.6,0.7,2.4c0.3,0,0.5,0,0.8,0
			c0.2-0.8,0.4-1.7,0.6-2.5c2.7-0.3,5.3-0.7,8-1c0.3,0.5,0.5,1,0.8,1.5c0.4-0.5,0.8-1,1.2-1.5c12.5-1.6,25-3.3,37.9-4.9
			c-0.2-15.5,1.2-31-3.1-46.1c1.2-1.2,2.4-2.4,3.6-3.6c-0.3-0.3-0.7-0.7-1-1c-1.4,0.2-2.9,0.3-4.3,0.5c-0.9-2.7,0.2-4.4,2.9-4.3
			c3.4,0.1,6.7,0.9,10.1,1.4c2.1,0.9,4.2,1.7,6.3,2.6l-0.3,0.1c0,0,0.3-0.1,0.3-0.1c0.5,1.3,1,2.6,1.4,3.9c0.5-0.7,1-1.4,1.4-2.1
			c3.4,2,4.3,5.2,3.7,8.9c-0.6,4.5-1.4,9.1-2,13.6c-0.9,0.8-1.8,1.5-2.7,2.3c0.6,0.6,1.3,1.1,1.9,1.7c-0.3,6.7-0.6,13.3-1,20
			c-1,1-2.1,1.9-3.1,2.9c0.6,0.5,1.1,1,1.7,1.6c1.1-1.4,2.2-2.9,3.3-4.3c1-0.1,2-0.2,2.9-0.3c0.8,0.7,2,2.2,2.4,2
			c1.1-0.6,1.8-1.8,2.7-2.7c17.7-2.3,35.3-4.7,53-7c1.3,0.4,2.6,0.7,3.8,1.1c8.1,1.6,14.7,5.5,19.3,12.6c0,0.9,0,1.9,0,2.8
			c-2.4,0.9-4.8,1.7-7.1,2.6c-0.4-0.6-0.8-1.2-1.3-1.7c-0.6,0.7-1.2,1.4-1.8,2.1c-1.7,0.1-3.3,0.2-5,0.3c-0.3-0.5-0.7-0.9-1-1.4
			c-0.3,0.5-0.7,1-1,1.4c-7.7,0.3-15.3,0.6-23,0.9c-0.7-0.8-1.3-1.6-2-2.4c-0.3,0.8-0.7,1.6-1,2.5c-14.3,1-28.5,2-43,3
			c0,6.4,0,12.3,0,18.5c9.5,2.5,19.2,4.6,28.6,7.7c15.7,5.2,31.5,10.7,46.8,17c12.8,5.3,22.3,14.4,26.1,28.4
			c1.8,6.9-1.1,11-8.2,10.5c-3.7-0.2-7.8-1.1-10.8-3.1c-15-9.5-29.7-19.5-44.7-29.2c-10.6-6.9-21.4-13.5-32.1-20.2
			c-1.6-1-3.4-1.8-6-3.1c0,2.5,0,4.2,0,6c-0.1,21.8-0.2,43.7-0.5,65.5c-0.1,6.4-2.8,11.9-7.5,16.3c-1.3,0-2.6,0-3.9,0
			c-7.1-5.4-8.7-13.3-8.4-21.3c0.7-19.4,2.1-38.8,3.1-58.2c0.2-4.8,0-9.6,0-15.5c-1.4,1.8-2.4,3-3.3,4.2
			c-25.9,34.9-57.8,61.7-100.3,74.1c-1.9,0.6-3.9,0.9-5.8,1.4c-0.1-1-0.2-2.1-0.3-3.1c23.4-16,46-33,65.8-53.3
			c10.4-10.6,19-23,28.4-34.6c0.7-0.9,1.2-2,1.7-3c0.2-0.4,0-1,0-1.9c-11.8,1.6-23.4,3.1-35.1,4.7c-5.3,0.7-10.5,1.8-15.8,2.4
			c-10.8,1.1-20.2-2-28.1-9.5C191.8,272.7,191.8,272.1,191.8,271.4z M355.4,321c1.3,1.2,2.1,2.2,3.1,2.9c1.6,1.1,4.4,1.6,4.7,2.9
			c1.5,5.4,5.3,5.1,9.6,5.3c2.4,0.1,6.7,1.8,6.6,2.7c-0.1,4.7,3.3,5.5,6.3,7.1c0.9,0.5,1.9,1.5,2.2,2.5c1.3,4.6,4.3,4,7.8,2.6
			c-5-2.1-3.5-9.8-9.7-10.8c-0.4-0.1-1-1.4-0.9-2.1c0.1-3.4-1.8-4.2-4.8-4.1c-2.9,0.1-5.3-0.5-5.4-4.2c-0.1-2.8-1.9-3.8-4.7-3.8
			C365.7,321.8,361.4,321.3,355.4,321z M355.4,317.4c-0.2-3.8-7.7-5-14.4-2.1C346.2,316,350.8,316.7,355.4,317.4z"/>
		<path class="st2" d="M289.8,387c1.3,0,2.6,0,3.9,0c16.3-2.4,32.6-4.6,48.8-7.4c8.3-1.5,15.8-1.2,22.3,4.7c1.7,1.5,3.8,2.7,5.6,4.1
			c8.5,6.7,7.7,7.3,3.6,17c-4.4,10.3-6.9,21.4-9.8,32.3c-1.9,6.9-3,13.9-4.7,21.6c-0.2-0.5-0.1-0.2,0,0.1c1.5,2.4,3.1,4.8,4.6,7.2
			c-2.6,0.5-5.2,1.4-7.9,1.6c-29.9,1.8-59.8,3.6-89.8,5.3c-5.1,0.3-10.3,0.5-15.6,0.7c-0.1,0.1-0.4,0.2-0.6,0.5
			c-1.7,2.7-3.4,5.3-5.1,8c-2.5-2.2-6.1-4-7.1-6.8c-2.4-6.6-3.8-13.7-5.1-20.6c-2.7-13.8-5.2-27.8-7.8-41.6
			c-1.3-6.6-5.1-11.8-10.1-16.2c-1.1-1-2.2-3.3-1.8-4.4c0.4-1.3,2.6-2.8,4-2.8c3.4-0.1,6.9,0.6,10.3,1.1c1.5,0.2,2.9,0.9,4.3,0.8
			c18.8-1.3,37.5-2.7,56.3-4.1C288.7,387.8,289.2,387.3,289.8,387z M241.6,404.1c3,18.8,6,37.1,9.1,56c29.5-2.6,58.8-5.1,88.9-7.8
			c1.6-17,3.1-33.5,4.6-50.1c0.3-3.7-1.7-5.8-5-6.2c-4.1-0.5-8.3-0.8-12.4-0.4C298.7,398.3,270.8,401.2,241.6,404.1z"/>
		<path class="st3" d="M288.9,554.2c0-18.1,0-35.1,0-52c0-1.3-0.4-2.9,0.2-3.9c0.7-1.3,2.3-3.2,3.2-3c1.4,0.2,3.3,1.8,3.5,3.1
			c0.6,2.7,0.2,5.6,0.2,8.5c0,15.1,0,30.2,0,46.5c3.3-2.8,6-4.8,8.6-7.1c11.1-9.8,22.1-19.7,33.1-29.6c1.4-1.2,2.7-2.8,4.3-3.3
			c1.6-0.5,3.6,0.1,5.4,0.3c-0.3,1.8,0.1,4.2-0.9,5.2c-7.3,7-14.9,13.8-22.5,20.5c-7.2,6.4-14.6,12.5-22.6,19.4
			c2,0.1,3.4,0.3,4.7,0.3c19.5,0,39,0,58.5,0c1.3,0,2.9-0.4,3.9,0.2c1.3,0.7,3,2.3,2.9,3.3c-0.2,1.4-1.7,3-3,3.8
			c-1.2,0.6-2.9,0.2-4.4,0.2c-22.5,0-45,0-68,0c0,2,0,3.8,0,5.6c0,21.3,0,42.7,0,64c0,1.2,0.4,2.5-0.1,3.5c-0.8,1.6-2.2,2.8-3.3,4.2
			c-1.2-1.5-2.7-2.8-3.6-4.5c-0.5-0.9-0.1-2.3-0.1-3.5c0-21.3,0-42.7,0-64c0-1.6,0-3.3,0-5.4c-5.4,0-10.3,0-15.3,0
			c-17.2,0-34.3,0-51.5,0c-1,0-2.2,0.4-3-0.1c-1.8-1-3.3-2.4-4.9-3.7c1.6-1.2,3.2-3.5,4.9-3.6c9.8-0.3,19.7-0.2,29.5-0.2
			c10.9,0,21.9,0,33.8,0c-5.7-5.1-10.6-9.6-15.6-14.1c-9.3-8.3-18.7-16.5-28.1-24.7c-2.2-1.9-4.4-4-2.1-6.6c2.2-2.6,4.7-1,6.9,0.9
			c13.6,12,27.2,24,40.8,35.9C285.5,551.6,286.8,552.5,288.9,554.2z"/>
		<path class="st4" d="M439.8,581.7c-2.3,0-3.9,0-6.3,0c2.7-5.6,5.2-10.7,8.2-16.8c3.2,5.5,6,10.3,9.2,15.7
			c-2.2,0.3-3.7,0.5-5.6,0.8c0,6.5,0,12.8,0,19.1c0,12.8,0,25.6,0,38.4c0,2.3,0.9,5.7-2.8,5.6c-0.9,0-2.4-3.5-2.4-5.4
			c-0.2-17.3-0.1-34.6-0.1-51.9C439.8,585.5,439.8,583.8,439.8,581.7z"/>
		<path class="st5" d="M280.1,208.9c1.4-0.2,2.9-0.3,4.3-0.5c0.3,0.3,0.7,0.7,1,1c-1.2,1.2-2.4,2.4-3.6,3.6
			C281.2,211.6,280.6,210.2,280.1,208.9z"/>
		<path class="st5" d="M304,257c-1.1,1.4-2.2,2.9-3.3,4.3c-0.6-0.5-1.1-1-1.7-1.6c1-1,2.1-1.9,3.1-2.9
			C302.7,256.9,303.4,256.9,304,257z"/>
		<path class="st5" d="M312,256c-0.9,1-1.6,2.2-2.7,2.7c-0.4,0.2-1.6-1.3-2.4-2C308.6,256.4,310.3,256.2,312,256z"/>
		<path class="st5" d="M299.3,208.6c-2.1-0.9-4.2-1.7-6.3-2.6C295.1,206.8,297.2,207.7,299.3,208.6z"/>
		<path class="st5" d="M303,236.9c-0.6-0.6-1.3-1.1-1.9-1.7c0.9-0.8,1.8-1.5,2.7-2.3C303.6,234.2,303.3,235.6,303,236.9z"/>
		<path class="st5" d="M302.2,210.4c-0.5,0.7-1,1.4-1.4,2.1c-0.5-1.3-1-2.6-1.4-3.9C300.3,209.1,301.2,209.7,302.2,210.4z"/>
		<path class="st5" d="M378,268.3c0.6-0.7,1.2-1.4,1.8-2.1c0.4,0.6,0.8,1.2,1.3,1.7C380,268.1,379,268.2,378,268.3z"/>
		<path class="st5" d="M345,269.7c0.3-0.8,0.7-1.6,1-2.5c0.7,0.8,1.3,1.6,2,2.4C347,269.7,346,269.7,345,269.7z"/>
		<path class="st2" d="M174.9,368.5c0.1,1,0.2,2.1,0.3,3.1c-1,0-2.1,0-3.1,0c-0.1-0.4-0.3-0.7-0.4-1.1
			C172.7,369.9,173.8,369.2,174.9,368.5z"/>
		<path class="st5" d="M368.8,250c-1.3-0.4-2.6-0.7-3.8-1.1C366.3,249.3,367.6,249.6,368.8,250z"/>
		<path class="st5" d="M237,265c-0.2,0.8-0.4,1.7-0.6,2.5c-0.3,0-0.5,0-0.8,0c-0.2-0.8-0.4-1.6-0.7-2.4
			C235.7,265.1,236.3,265,237,265z"/>
		<path class="st5" d="M247,264c-0.4,0.5-0.8,1-1.2,1.5c-0.3-0.5-0.5-1-0.8-1.5C245.7,264,246.3,264,247,264z"/>
		<path class="st5" d="M371,268.7c0.3-0.5,0.7-1,1-1.4c0.3,0.5,0.7,0.9,1,1.4C372.3,268.7,371.7,268.7,371,268.7z"/>
		<path class="st5" d="M388.2,265.4c0-0.9,0-1.9,0-2.8C388.1,263.5,388.1,264.4,388.2,265.4z"/>
		<path class="st2" d="M191.8,271.4c0,0.7,0,1.3,0,2C191.8,272.7,191.8,272.1,191.8,271.4z"/>
		<path class="st1" d="M355.4,321c6,0.4,10.4,0.8,14.8,0.9c2.8,0,4.7,1,4.7,3.8c0.1,3.8,2.5,4.3,5.4,4.2c3-0.1,4.9,0.7,4.8,4.1
			c0,0.7,0.5,2.1,0.9,2.1c6.2,1,4.7,8.6,9.7,10.8c-3.5,1.4-6.5,2-7.8-2.6c-0.3-1-1.3-1.9-2.2-2.5c-2.9-1.6-6.4-2.4-6.3-7.1
			c0-0.9-4.3-2.6-6.6-2.7c-4.3-0.2-8.1,0.1-9.6-5.3c-0.4-1.3-3.1-1.8-4.7-2.9C357.5,323.2,356.7,322.2,355.4,321z"/>
		<path class="st1" d="M355.4,317.4c-4.6-0.7-9.2-1.4-14.4-2.1C347.7,312.4,355.2,313.6,355.4,317.4z"/>
	</g>
</g>
</svg>
