<?xml version="1.0" encoding="utf-8"?>
<!-- Generator: Adobe Illustrator 22.0.1, SVG Export Plug-In . SVG Version: 6.00 Build 0)  -->
<svg version="1.1" id="Слой_1" xmlns="http://www.w3.org/2000/svg" xmlns:xlink="http://www.w3.org/1999/xlink" x="0px" y="0px"
	 viewBox="0 0 595.3 841.9" style="enable-background:new 0 0 595.3 841.9;" xml:space="preserve">
<g>
	<g>
		<path d="M102,659.9c-3.4-1.9-3.8-4.2-3-8.1c2.6-12.5,4.7-25.1,6.8-37.7c2.3-13.6,4.3-27.2,6.5-40.8c5.1-31.6,10.3-63.2,15.4-94.8
			c4.6-28.7,9.2-57.3,13.8-86c5-31.3,10.2-62.6,15.2-93.9c3.8-24.1,7.6-48.1,11.2-72.2c0.8-5.1,3.5-7.2,8.2-8.5
			c34.2-9.2,68.5-18.1,102.5-28.2c13-3.9,24.7-3.9,37.6,0.3c34.4,10.9,69.2,20.8,103.9,30.7c5.3,1.5,7.2,4.3,7.9,9.2
			c4.2,27.4,8.6,54.8,12.9,82.2c4.4,28.7,8.7,57.4,13.2,86.1c3.2,20.6,6.6,41.3,9.8,61.9c4.1,26.6,8.1,53.2,12.2,79.8
			c3.2,20.5,6.7,40.9,9.8,61.4c2.7,17.6,5.2,35.2,7.5,52.8c0.3,1.9-0.9,4-1.4,5.9C362,659.9,232,659.9,102,659.9z M486.1,652.7
			c-1.9-13-3.6-25.5-5.5-37.9c-4.9-32-9.9-63.9-14.9-95.9c-5-32.5-10.1-64.9-15.2-97.4c-4.6-29.8-9.2-59.7-13.8-89.5
			c-5.2-33.5-10.5-66.9-15.6-100.4c-0.4-2.9-1.7-3.9-4.2-4.6c-9.1-2.5-18.2-5.1-27.2-7.8c-29.9-8.8-59.7-17.7-89.6-26.4
			c-1.9-0.6-4.2-0.4-6.2,0.1c-14.6,3.9-29.1,8-43.6,12c-23.8,6.6-47.6,13-71.4,19.7c-1.5,0.4-3.5,2.1-3.8,3.5
			c-2.9,16.7-5.5,33.4-8.2,50.1c-4.1,25.9-8.1,51.8-12.3,77.7c-2.4,15.2-5.3,30.4-7.7,45.6c-4.8,30-9.4,60-14.2,90
			c-3.5,21.9-7.3,43.8-10.9,65.8c-4,24.2-7.9,48.5-11.8,72.7c-1.2,7.4-2.2,14.9-3.4,22.6C233.5,652.7,359.6,652.7,486.1,652.7z"/>
		<path d="M294.3,265.7c3.2,1.8,5.1,2.7,6.9,3.9c6.1,4,6.6,8.1,3.6,14.7c-2.2,4.9-3.1,10.5-4.1,15.8c-1.1,6-1.9,12.2-2.5,18.3
			c-0.4,4.3-0.1,8.6-0.1,13.8c8.2-1.2,15.8-2.4,23.4-3.6c3.8-0.6,7.6-1.1,11.2-2.3c10.2-3.6,19,0.3,27.4,5.2c1.8,1.1,2.7,3.8,4,5.8
			c-1.9,1.1-3.7,2.9-5.7,3.2c-17.6,2.6-35.2,5-52.9,7.4c-2.4,0.3-4.9,0.6-7.5,0.9c0,24.7,0,49,0,73.9c7.4-0.4,14.7-0.4,21.9-1.1
			c24.8-2.6,49.6-6,74.4-8.1c13-1.1,24.4,4.3,33.5,13.7c3.6,3.7,2.5,6.9-2.5,7.9c-5,1-10.2,1.6-15.3,1.4
			c-49.8-1.6-99.6-0.3-149.3,3.8c-21.8,1.8-43.5,5.9-65.2,9.1c-12.9,1.9-23.3-3.8-33.4-10.4c-2.9-1.9-2.4-4.8,1-6.1
			c2.1-0.8,4.5-1,6.8-1.2c18.8-1,37.6-1.6,56.4-3c17.4-1.3,34.7-3.3,51.8-5c0-24.2,0-48.3,0-73c-9.6,0.6-18.3,1.5-27,1.5
			c-7.9,0-16-0.4-23.8-1.5c-5.6-0.7-8.7-4.1-10.6-9.8c20.3-2,40.3-3.9,61.5-6c-1-15.5-1.8-30.4-3-45.3c-0.5-6.4-1-13.1-6.1-18
			c-1.4-1.4-3.7-2.7-5.5-2.7c-12.5,0.1-25,1.1-37.4,0.7c-5-0.2-10-3-14.7-5.2c-1.7-0.8-2.7-3.1-4.9-5.9c3.3-0.9,5.5-1.7,7.8-2
			c30.3-4,60.7-7.7,91-12c11.2-1.6,22.1-4.7,33.2-7.1c10.8-2.4,19.5,2.4,27.6,8.4c3.6,2.7,2.3,6.7-2.7,7.9c-11.5,2.6-23.1,5-34.7,7
			C318,262.8,306.8,264,294.3,265.7z"/>
		<path d="M301.7,558.9c4.8,0,8.5,0,12.1,0c19,0,38,0,57,0c1,0,2,0,3,0c3,0,6.1,0.2,6,4.2c-0.1,3.6-2.6,4.6-5.9,4.5
			c-7.8-0.1-15.7,0-23.5,0c-13.3,0-26.7,0-40,0c-1.6,0-3.2,0.1-5.7,0.3c5.7,4.7,10.6,8.8,15.6,12.8c10,8,20,16,30,24
			c2,1.6,4.6,3.2,2.6,6c-2.1,3-5,1.9-7.4,0c-7.6-6-15.1-12-22.7-18c-8.6-6.8-17.1-13.7-26.9-21.5c0,3.2,0,4.9,0,6.5
			c0,19.7,0,39.3,0,59c0,1.2,0.4,2.6-0.1,3.4c-1,1.7-2.6,3.2-3.9,4.7c-1.3-1.6-3.6-3.2-3.7-4.9c-0.4-12.7-0.3-25.3-0.3-38
			c0-10,0-20,0-31.7c-5.7,4.5-10.4,8.2-15.1,12c-11.8,9.4-23.6,18.9-35.5,28.2c-1.1,0.9-2.7,1.8-4,1.8c-1.3,0-3.5-1.1-3.6-1.9
			c-0.2-1.5,0.4-3.7,1.5-4.7c4.1-3.7,8.4-7,12.7-10.5c10.8-8.6,21.6-17.1,32.5-25.7c0.3-0.3,0.5-0.7,1.3-1.9c-2.4,0-4.1,0-5.8,0
			c-19.5,0-39,0-58.5,0c-1.2,0-2.3,0-3.5,0c-3.1,0-5-2-4.5-4.7c0.3-1.6,2.9-2.9,4.7-3.9c1-0.6,2.6-0.1,3.9-0.1c21.8,0,43.6,0,66.3,0
			c-1-1.3-1.5-2.2-2.3-2.9c-15.2-13.4-30.4-26.8-45.6-40.2c-2.2-2-4.8-4.1-2.4-7c2.5-3.1,5.3-1.3,7.7,0.9
			c15.2,13.4,30.4,26.8,45.7,40.2c1.2,1,2.5,1.9,4.6,3.5c0-4.3,0-7.5,0-10.8c0-16.2,0-32.3,0-48.5c0-3.1,0.4-6.1,4.2-6
			c3.5,0.2,3.7,3.2,3.7,6c0,19,0,38,0,58.7c5.4-4.7,9.8-8.4,14.2-12.3c11.2-9.9,22.3-19.9,33.5-29.9c0.5-0.4,1.1-0.7,1.6-1.1
			c2.3-2,5-3.6,7.4-0.8c2.4,2.9,0.2,5-2.2,7C334.5,529.7,318.7,543.9,301.7,558.9z"/>
		<path d="M396.3,387.5c0,4.5-0.4,8.8-4.9,11.2c-5,2.6-9.9,1.2-13.3-2.5c-9.4-10.7-18.4-21.8-27.3-32.9c-1.9-2.3-0.4-4.1,2.3-4.4
			c1.6-0.2,3.4-0.2,4.9,0.3c8.7,2.8,17.4,5.4,25.9,8.6C392.9,371.2,396.4,378.4,396.3,387.5z"/>
	</g>
</g>
</svg>
