<?xml version="1.0" encoding="utf-8"?>
<!-- Generator: Adobe Illustrator 22.0.1, SVG Export Plug-In . SVG Version: 6.00 Build 0)  -->
<svg version="1.1" id="Слой_1" xmlns="http://www.w3.org/2000/svg" xmlns:xlink="http://www.w3.org/1999/xlink" x="0px" y="0px"
	 viewBox="0 0 595.3 841.9" style="enable-background:new 0 0 595.3 841.9;" xml:space="preserve">
<g>
	<g>
		<path d="M299,658.8c-63.2,0-126.3,0-189.5,0c-2.1,0-4.6,0.1-6.3-0.9c-1.4-0.8-2.8-3.3-2.5-4.9c3.9-24.2,8.2-48.4,12.2-72.6
			c5.6-34.1,11.1-68.1,16.6-102.2c4.7-29.1,9.4-58.3,14.1-87.5c5-31,10-61.9,15-92.9c3.8-24,7.7-48.1,11.2-72.2
			c0.7-5,3.2-7.4,7.9-8.7c35.5-9.6,71-19,106.3-29.2c10.5-3,19.9-3.1,30.4,0.1c35.7,11.1,71.7,21.5,107.7,31.9
			c4.6,1.3,7,3.5,7.7,8.3c4.6,29.9,9.3,59.7,14,89.5c4.7,30,9.4,60,14,90c5,32.3,10,64.6,15,96.9c5,32,10,63.9,14.9,95.9
			c2.6,17.1,5,34.2,7.4,51.3c0.9,6.5,0.3,7.2-6.3,7.2c-50.3,0-100.6,0-151,0C325,658.8,312,658.8,299,658.8z M488.2,651.7
			c-1.9-13.2-3.8-26-5.7-38.8c-2.4-15.2-5-30.5-7.4-45.7c-4.9-32-9.7-64-14.6-95.9c-2.5-16.6-5.1-33.1-7.7-49.7
			c-4.8-31-9.6-62-14.5-93c-2-12.6-4.3-25.2-6.2-37.8c-3.1-20.2-6-40.4-9.2-60.5c-0.2-1.5-1.9-3.5-3.4-4c-9-2.8-18.1-5.1-27.2-7.8
			c-26.5-7.8-53.1-15.3-79.4-23.8c-9.5-3.1-17.9-2.8-27.4,0c-34.2,9.9-68.6,19-103,28.3c-3.2,0.9-5.3,1.8-5.7,6
			c-1.2,10.9-3.1,21.7-4.9,32.5c-2.5,15.4-5.3,30.7-7.8,46.1c-4.8,30-9.4,60-14.2,90c-4.9,31-9.9,61.9-15,92.8
			c-3.6,21.9-7.3,43.8-10.9,65.7c-4,24.2-7.9,48.5-11.8,72.7c-1.2,7.5-2.3,15-3.4,22.7C235.4,651.7,361.5,651.7,488.2,651.7z"/>
		<path d="M208.3,254.4c3.6-0.5,7.1-1.2,10.7-1.5c41.7-3.3,83.2-8.1,124-17.3c10.4-2.4,18.5,1.8,26.7,6.8c1.3,0.8,2.5,3.6,2.1,5
			c-0.4,1.4-2.7,2.9-4.4,3.3c-11.4,2.3-22.9,4.5-34.4,6.2c-11,1.7-22,2.9-33.9,4.4c2.5,1.7,4.6,2.9,6.4,4.5
			c4.6,3.8,4.4,7.3,2.6,12.7c-2.5,7.5-4.3,15.3-5.3,23.1c-1.4,10.5-1.7,21.1-2.5,32.9c12-2.3,22.9-3.5,33.3-6.6
			c10.2-3,19-1,27.7,3.8c1.2,0.6,2.4,1.3,3.4,2.1c3.8,3.3,3.2,6.8-1.7,7.8c-9.4,2-18.9,3.8-28.5,5.2c-11,1.7-22.1,2.9-33.4,4.3
			c0,23.8,0,47.3,0,71.5c11-0.8,21.8-1.1,32.5-2.3c20.4-2.2,40.6-5.7,61-7c12.4-0.8,23.8,4.5,32.4,13.9c3.4,3.7,2.3,6.8-2.8,7.8
			c-4.8,1-9.9,1.5-14.9,1.4c-49.9-1.6-99.7-0.3-149.4,3.8c-21.9,1.8-43.5,5.8-65.2,9.1c-12.9,2-23.3-3.8-33.5-10.3
			c-3.2-2-2.5-5,1-6.4c1.8-0.7,3.9-0.9,5.8-1c31.4-2.2,62.8-4.4,94.2-6.6c6.3-0.4,12.6-1,18.7-1.4c0-23.5,0-46.8,0-70.6
			c-6.2,0.5-11.6,1.2-17,1.2c-10.3,0.1-20.6,0.1-30.9-0.6c-5.6-0.4-10.3-3.5-12.7-9.9c2.5-0.5,4.5-1.2,6.6-1.4
			c15.7-1.6,31.5-3.3,47.2-4.7c4.8-0.4,6.5-1.9,6.1-7c-1.4-17.4-2-34.9-3.6-52.3c-0.4-4.5-3.4-8.9-5.7-13c-0.6-1.1-3.4-1.3-5.2-1.3
			c-12.6,0.4-25.3,1.2-37.9,1.5c-3.7,0.1-7.8-0.6-11.2-2.1c-3.5-1.6-6.4-4.6-9.5-7C207.7,256,208,255.2,208.3,254.4z"/>
		<path d="M297.9,571.2c0,2.3,0,4.1,0,5.9c0,20.2,0,40.3,0,60.5c0,3-0.1,6.2-4,6.1c-3.9,0-3.9-3.2-3.9-6.2c0-22.2,0-44.3-1.1-67.5
			c-4.7,3.7-9.4,7.4-14.1,11.2c-11.8,9.4-23.6,18.9-35.5,28.2c-0.9,0.7-2.1,1.7-3,1.6c-1.6-0.2-3.7-0.6-4.6-1.8
			c-0.6-0.7,0.1-3.3,1.1-4.2c2.7-2.7,5.8-4.9,8.8-7.3c12.5-10,25.1-20,39-31.1c-3.2,0-4.9,0-6.6,0c-19.7,0-39.3,0-59,0
			c-1.5,0-3.4,0.4-4.4-0.3c-1.4-1-3-2.8-3.1-4.4c-0.1-1.2,1.7-2.9,3.1-3.7c1.2-0.6,2.9-0.3,4.4-0.3c20.7,0,41.3,0,62,0
			c1.6,0,3.2,0,6.2,0c-8.4-7.4-15.7-13.7-23-20.1c-9.1-8-18.2-16-27.1-24.3c-1.2-1.1-0.8-3.7-1.2-5.7c2.1-0.1,5-1.2,6.2-0.3
			c8.3,6.7,16.2,13.8,24.2,20.8c8.9,7.9,17.8,15.8,27.9,24.7c0-5.4,0-9.2,0-12.9c0-15.2,0-30.3,0-45.5c0-1.2-0.4-2.6,0.1-3.4
			c1.1-1.6,2.7-2.8,4-4.2c1.2,1.3,3.4,2.6,3.5,4.1c0.5,4.4,0.2,9,0.2,13.5c0,15.2,0,30.3,0,46.1c1.3-0.6,2.4-0.9,3.2-1.5
			c13.9-12.2,27.7-24.4,41.5-36.6c2.1-1.9,4.1-4.1,6.6-5.2c1.5-0.7,3.8,0.4,5.7,0.8c-0.3,1.8,0,4.1-1,5.3c-2.6,3-5.7,5.5-8.7,8.1
			c-13.5,11.8-26.9,23.6-41.7,36.5c2.9,0,4.6,0,6.3,0c21.3,0,42.7,0,64,0c1.2,0,2.6-0.4,3.4,0.1c1.7,1.1,4.2,2.5,4.4,4.1
			c0.5,2.7-1.6,4.5-4.7,4.5c-6.8,0-13.7,0-20.5,0c-14.7,0-29.3,0-44,0c-1.6,0-3.2,0-6.1,0c6.3,5.2,11.4,9.5,16.6,13.7
			c9.8,7.9,19.8,15.7,29.5,23.8c1.4,1.2,2.9,4.4,2.3,5.5c-1.6,2.9-4.5,2.2-6.8,0.4c-7.6-5.9-15.2-11.9-22.8-17.9
			c-8.2-6.5-16.3-13.1-24.5-19.7C300.1,571.9,299.2,571.7,297.9,571.2z"/>
	</g>
</g>
</svg>
