<?xml version="1.0" encoding="utf-8"?>
<!-- Generator: Adobe Illustrator 22.0.1, SVG Export Plug-In . SVG Version: 6.00 Build 0)  -->
<svg version="1.1" id="Слой_1" xmlns="http://www.w3.org/2000/svg" xmlns:xlink="http://www.w3.org/1999/xlink" x="0px" y="0px"
	 viewBox="0 0 595.3 841.9" style="enable-background:new 0 0 595.3 841.9;" xml:space="preserve">
<style type="text/css">
	.st0{fill:#060606;}
	.st1{fill:#2F2F2F;}
	.st2{fill:#FD0304;}
	.st3{fill:#FD0A0B;}
	.st4{fill:#FD0404;}
</style>
<g>
	<g>
		<path class="st0" d="M104,659.9c-3.3-2.2-3.3-4.8-2.6-8.6c2.6-13.3,4.4-26.7,6.7-40c2-12.2,4.3-24.4,6.2-36.6
			c2.7-16.8,5.1-33.6,7.8-50.4c2.3-14.2,4.9-28.3,7.1-42.4c2.7-17.1,5.1-34.2,7.9-51.3c1.9-11.9,4.2-23.7,6.1-35.6
			c3.1-19.2,5.8-38.5,8.9-57.7c1.9-12.1,4.4-24,6.4-36.1c2.7-16.4,5-32.9,7.6-49.4c1.4-8.9,3.2-17.8,4.5-26.7c0.6-4,2.7-5.5,6.3-6.5
			c18.9-5.1,37.7-10.4,56.5-15.6c20.1-5.6,40.1-11.3,60.3-16.5c3.9-1,8.6-0.7,12.6,0.4c22.1,6.2,44.1,12.9,66.1,19.4
			c16.5,4.9,32.9,10,49.6,14.5c5.3,1.4,7.3,4.2,8,9c4.3,28.7,8.7,57.4,13.1,86.1c4,26.1,8,52.2,12.1,78.3
			c3.5,22.1,7.3,44.2,10.8,66.3c4.1,26.6,8,53.2,12.1,79.8c3.2,20.4,6.7,40.6,9.8,61c2.7,17.5,5,35,7.2,52.5c0.2,1.9-0.7,4-1,6
			c-0.7,0-1.3,0-2,0c-1.7-0.3-3.4-0.9-5.2-0.9c-125.2,0-250.5,0-375.7,0c-1.7,0-3.4,0.6-5.2,0.9C105.3,659.9,104.7,659.9,104,659.9z
			 M488.1,652.7c-1.9-12.8-3.6-25.4-5.5-38c-4.9-31.9-9.9-63.8-14.8-95.8c-5-32.3-10-64.5-15-96.8c-4.7-30.1-9.3-60.3-14-90.4
			c-5.2-33.2-10.5-66.5-15.5-99.7c-0.5-3.3-1.9-4.3-4.7-5.1c-9.5-2.6-19-5.3-28.5-8.1c-24.1-7-48.4-13.2-72.1-21.4
			c-12.5-4.3-23.7-4.4-36.3-0.7c-33.4,10-67.1,18.8-100.7,27.9c-2.9,0.8-3.4,2.1-3.8,4.7c-1.8,11.8-3.9,23.6-5.8,35.3
			c-2.4,15.2-4.7,30.5-7.1,45.7c-2.4,15.4-4.8,30.8-7.3,46.2c-2.5,15.5-5.1,31-7.6,46.6c-2.5,15.5-4.9,31.1-7.4,46.6
			c-2.5,15.4-5.1,30.7-7.6,46.1c-2.2,13.6-4.2,27.2-6.4,40.8c-2.4,14.9-5.1,29.7-7.6,44.6c-2.6,16-5.1,32.1-7.7,48.1
			c-1.2,7.8-2.4,15.6-3.7,23.5C235.5,652.7,361.7,652.7,488.1,652.7z"/>
		<path class="st1" d="M106,659.9c1.7-0.3,3.4-0.9,5.2-0.9c125.2,0,250.5,0,375.7,0c1.7,0,3.4,0.6,5.2,0.9
			C363.3,659.9,234.7,659.9,106,659.9z"/>
		<path class="st2" d="M380.9,326.3c0.9-7.8,1.8-15.6,2.8-23.3c0.6-4.9-3-4.8-5.8-4.3c-10.1,1.7-20.2,3.6-30.3,5.9
			c-4.8,1.1-9.4,3.4-14.1,4.9c-5.6,1.8-8.1-2.7-11-5.9c-2.2-2.4-3.8-5.2-1.8-8.6c7.7-12.8,6.6-26.8,5.7-40.8
			c-0.6-9.4-2.8-18.3-7.4-26.7c-3.6-6.6-0.8-10.8,6.6-9.5c5.9,1,11.7,3.5,17.3,5.9c3.4,1.5,4.2,4.6,3.4,8.4
			c-1.7,7.2-2.9,14.5-4.6,23.1c8.6-2.2,15.9-4,23.2-6.1c7.3-2.1,14.6-4.5,21.9-6.7c6.1-1.8,21.2,2.8,25.2,7.7
			c2.2,2.7,1.3,4.9-1.8,5.6c-4.4,0.9-8.9,1.2-13.3,1.9c-12.3,1.8-24.7,3.9-37,5.3c-6,0.7-12.2,0.1-18.5,0.1
			c-0.8,6.7-1.7,13.5-2.3,20.3c-0.4,3.8,1.3,6.2,5.6,5.5c14.3-2.2,28.5-4.5,42.8-6.7c8.1-1.2,15.5,1.3,22.1,5.7
			c3.7,2.4,2.8,5.7,1.2,9.3c-4.7,10.2-9.2,20.6-13.7,30.7c2.6,2.3,4.5,3.8,6.1,5.7c0.8,0.9,1.4,2.6,1.1,3.5c-0.3,0.8-2,1.5-3.2,1.6
			c-20.2,2.1-40.4,4.1-60.6,6.2c-1.3,0.1-3.1,1.5-3.4,2.6c-1.8,6.7-3.1,13.5-4.9,21.3c10.3-1.7,19.5-3.1,28.8-4.7
			c5.4-0.9,10.8-2.1,16.1-3.3c7.6-1.7,14.9-0.4,21.8,2.8c1.2,0.5,2,1.9,3,3c-1,1-1.9,2.6-3.1,2.9c-5,1.1-10.1,2-15.2,2.7
			c-17.1,2.4-34.2,4.6-52.2,7c-0.5,5.5-1.1,12.1-1.7,19.7c7.7-0.9,15.1-1.7,22.4-2.7c9.9-1.4,19.7-3.6,29.6-4.3
			c5.6-0.4,11.4,1.3,17,2.5c1.6,0.4,2.9,2.3,4.3,3.5c-1.6,1.2-3.1,3.2-4.9,3.6c-4.3,1-8.8,1.4-13.3,1.9c-15.1,1.6-30.1,3.2-45.2,4.6
			c-3.1,0.3-6.3,0-10,0c0,6.9,0,13.6,0,21.2c10.1-1.3,20.3-2.5,30.4-4c8.1-1.1,16.1-2.9,24.2-3.6c7.3-0.7,14.4,0.8,21.9,6.9
			c-4.6,1.7-7.9,3.7-11.3,4.1c-18,2-36.1,3.7-54.2,5.4c-3.3,0.3-6.6,0-9.9,0c0.8,8.8,8,16.3,18.3,19.5c13.1,4.1,26.6,3.9,40.1,3.3
			c8.2-0.4,16.3-1.1,23.6-5.4c7.2-4.2,12.3-9.9,14.2-18.4c1.4-6.2,3.1-12.2,4.8-18.3c0.5-1.7,1.3-3.3,2.5-6.4c1.3,3,2.2,4.6,2.7,6.3
			c1.7,6.4,2.9,13,5,19.3c1.5,4.7,3.5,9.3,6,13.5c3.7,6.2,3.9,8.8-0.8,14.3c-6.1,7.2-14.6,10.5-23.2,12.9c-25.1,6.9-50.3,6.6-75.5,0
			c-3.7-1-7.2-2.5-10.7-4c-15.4-6.8-23.2-19-23.9-35.6c-0.5-12,0-24,0.1-35.9c0.2-19,0.6-38,0.7-57c0-3.4-1.3-6.8-1.9-10.2
			c-0.4-2.3-1.5-6.1-0.8-6.5c2.2-1.3,5.2-1.3,8-1.7c0.3,0,0.7,0.1,0.9,0.3c10.6,9.8,22.6,4.4,34.1,2.9
			C363.5,330,371.7,328,380.9,326.3z"/>
		<path class="st2" d="M240.6,452.6c7.2,0.6,13.4,1,19.5,1.5c7.9,0.7,10.2-0.6,10.8-8.5c1.2-16,1.9-32.1,2.8-49.3
			c-9.6,8.4-17.9,15.6-26.2,22.9c-0.9,0.8-1.7,1.5-2.6,2.3c-8.7,7.6-12.3,7.4-20-1.2c-0.8-0.9-1.5-1.7-1.8-2.1
			c-4.8,11.7-9,23.7-14.6,35c-5.7,11.5-14.3,20.6-26,26c-0.5-0.5-1.1-0.9-1.6-1.4c0.7-1.3,1.4-2.7,2.2-3.9
			c17.4-24.9,25-53,26.8-82.9c0.7-10.9,0.8-22,0.3-32.9c-0.2-4.1-3-7.9-4.1-12c-0.6-2.2-0.7-4.9-0.2-7.1c0.2-0.8,3.4-1.5,4.9-1
			c16.9,5.2,32.7-1.2,48.8-4.7c1.6-0.3,3.2-1.1,4.8-1.4c3.8-0.8,8.5-3.2,11.2-1.9c6.7,3.3,12.7,8.3,18.5,13c1.1,0.9,1.3,4.4,0.5,5.9
			c-4.5,8.9-5.2,18.6-5.2,28.2c0,19.3,1,38.6,1,57.9c0,9.6-0.3,19.4-2.5,28.7c-1.6,6.4-6.4,12.2-10.4,17.7c-2.2,3-5.5,3.2-8.6,0.1
			c-8.7-8.7-17.6-17.2-26.4-25.9C241.8,455.3,241.6,454.4,240.6,452.6z M224.4,410c17-2.9,32-10.3,46.6-18.7
			c0.9-0.5,1.7-2.1,1.7-3.2c-0.3-12-0.7-24-1.1-36c-0.2-4.8-2.8-6.9-7.6-6.3c-9.6,1.2-19.2,2.3-28.7,3.7c-5.8,0.9-7.3,3.3-6.8,9.6
			c0.8,0.2,1.6,0.3,2.4,0.5c8.5,2.8,17.2,5.2,25.4,8.7c7,3,8.5,11.8,3.8,17.8c-1.9,2.5-4.6,3.7-7.4,1.6c-3.6-2.6-7-5.6-10.3-8.6
			c-4.9-4.6-9.6-9.3-14.4-14C226.8,380.1,225.6,394.8,224.4,410z"/>
		<path class="st3" d="M354.2,557.7c0-4.5,0-8.4,0-13.3c10.7,5.8,20.8,11.3,31.5,17.2c-10.5,5.8-20.3,11.2-31.1,17.2
			c0-4.9,0-9,0-13.3c-15.3,0-29.9,0-45.3,0c1.1,1.5,1.7,2.5,2.4,3.2c13.2,13.3,26.4,26.7,39.7,40c0.8,0.8,2.2,1.6,2.3,2.5
			c0.4,2.2,0.2,4.5,0.2,6.7c-2.1-0.1-4.9,0.5-6.2-0.5c-4.9-4.2-9.3-9-13.9-13.6c-9.5-9.5-19-19.1-28.6-28.6
			c-0.9-0.9-1.8-1.7-3.4-3.1c0,15.8,0,30.6,0,46c4.4,0,8.4,0,13.8,0c-5.7,10.9-10.9,20.8-16.6,31.6c-6.1-10.5-11.8-20.4-17.9-31.1
			c3.9,0,7,0.3,9.9-0.1c1.4-0.2,3.5-2,3.5-3.2c0.2-13.6,0.2-27.3,0.2-40.9c-0.4-0.2-0.8-0.4-1.2-0.6c-1.2,1.2-2.5,2.3-3.7,3.5
			c-12.9,12.8-25.8,25.6-38.6,38.5c-2.4,2.4-5,4.7-8,1.6c-3-3.1-0.7-5.7,1.6-8.1c13-12.9,26-25.9,39-38.8c1.2-1.2,2.4-2.6,4.2-4.5
			c-15.8,0-30.7,0-46,0c0,4.4,0,8.5,0,13.7c-10.8-5.7-20.7-10.9-31.5-16.6c10.6-6.1,20.4-11.7,31.3-18c0,4-0.2,7.1,0.1,10.1
			c0.1,1.2,1.6,3.3,2.4,3.4c14.2,0.2,28.3,0.1,43.9,0.1c-1.9-2.3-2.7-3.4-3.7-4.4c-12.9-12.9-25.8-25.9-38.7-38.8
			c-0.7-0.7-1.4-1.5-2.1-2.2c-2.2-2.3-2.6-4.8-0.2-7c2.1-1.9,4.4-1.5,6.6,0.6c9.2,9.3,18.6,18.5,27.8,27.9c5,5,9.8,10.2,14.7,15.4
			c0.4-0.2,0.7-0.5,1.1-0.7c0-14.4,0-28.7,0-43.6c-4.3,0-8.4,0-13.4,0c5.9-10.8,11.4-20.7,17.2-31.3c5.8,10.4,11.2,20.2,17.3,31.1
			c-4.2,0-7.4-0.2-10.4,0.1c-1.2,0.1-3.2,1.6-3.2,2.4c-0.2,14.3-0.1,28.6-0.1,42.8c0.4,0.2,0.8,0.3,1.3,0.5c1.3-1.1,2.6-2.2,3.8-3.4
			c13.1-13,26.2-26.1,39.3-39.2c0.8-0.8,1.6-2.2,2.5-2.3c2-0.3,4.9-0.9,6,0.2c1,1,1.1,4.6,0.1,5.9c-3.5,4.2-7.6,7.9-11.5,11.8
			c-10.8,10.9-21.6,21.7-32.8,33C324.8,557.7,339.3,557.7,354.2,557.7z"/>
		<path class="st4" d="M250,248.5c-6.2-8.5-12.4-16.8-18.4-25.4c-1-1.4-0.9-3.7-1.3-5.5c1.7-0.3,3.7-1.2,5.2-0.8
			c8.4,2.4,17,4.4,24.9,8c7.3,3.3,8.3,10.2,4.3,20.5c5.1-1.6,9.6-2.7,14-4.4c8.2-3.1,14.6,1,20.8,5.1c3,2,2.1,5.4-1.8,6.7
			c-6.3,2.1-12.7,3.8-19.2,5.6c2.7,2.1,5.9,4,8.2,6.7c1.2,1.5,1.9,4.8,1.1,6.4c-5.5,11.1-11.5,22-17.5,33.3c8.5-1.4,17-3.5,25.7-4
			c4.7-0.3,9.6,1.6,14.2,3.3c1.6,0.6,2.3,3.7,3.5,5.6c-1.8,0.9-3.5,2.4-5.5,2.6c-17.4,2.5-35,4.2-52.3,7.4
			c-22.5,4.2-44.8,9.9-67.2,14.6c-8.6,1.8-16-1.7-22.5-7.1c-3.2-2.7-2.5-4.9,1.7-5.6c13.1-2.1,26.3-3.9,39.5-5.9
			c6.4-1,12.8-2.1,19-3.1c-4.4-15.1-8.8-30.2-13.3-45.5c-2.8-0.5-6.6-0.9-10.3-1.8c-1.7-0.4-3.4-1.4-4.7-2.6c-1.1-1-1.7-2.7-2.5-4
			c1.4-0.7,2.7-1.8,4.2-2c11.2-1.7,22.4-3.2,33.6-5C239.3,250.8,245.1,249.5,250,248.5z M219.1,267.3c18.2,10.1,20.4,26,18.9,43.4
			c6.4-1.1,12.3-1.8,18.1-3.3c1.8-0.4,4-2.4,4.5-4.1c2.1-6.5,3.9-13.1,5.1-19.7c1.4-7.6,3.1-15.3,0-22.8
			C250.4,262.9,235.4,265,219.1,267.3z"/>
	</g>
</g>
</svg>
