<?xml version="1.0" encoding="utf-8"?>
<!-- Generator: Adobe Illustrator 22.0.1, SVG Export Plug-In . SVG Version: 6.00 Build 0)  -->
<svg version="1.1" id="Слой_1" xmlns="http://www.w3.org/2000/svg" xmlns:xlink="http://www.w3.org/1999/xlink" x="0px" y="0px"
	 viewBox="0 0 595.3 841.9" style="enable-background:new 0 0 595.3 841.9;" xml:space="preserve">
<style type="text/css">
	.st0{fill:#040404;}
	.st1{fill:#2F2F2F;}
	.st2{fill:#FD0303;}
	.st3{fill:#FD0B0B;}
	.st4{fill:#FD0202;}
</style>
<g>
	<g>
		<path class="st0" d="M302,184.9c16.7,5,33.3,10,50,15c13.1,3.9,26.2,7.9,39.3,11.8c10.3,3.1,20.5,6.4,30.9,9c5.1,1.3,7,4,7.7,8.7
			c4.6,29.6,9.4,59.3,13.9,88.9c4.5,29,8.8,58.1,13.2,87.1c4.9,32.3,9.9,64.6,15,96.8c2.8,18,6,35.9,8.8,53.9
			c4.2,27.1,8.2,54.1,12.2,81.2c0.8,5.4,1.7,10.8,2.2,16.2c0.2,2.1-0.8,4.2-1.3,6.4c-0.7,0-1.3,0-2,0c-1.7-0.3-3.4-0.9-5.2-0.9
			c-125.2,0-250.4,0-375.7,0c-1.7,0-3.4,0.6-5.2,0.9c-0.7,0-1.3,0-2,0c-3.3-1.8-3.9-4.1-3.1-8c2.7-13.5,4.8-27.1,7.1-40.6
			c2.1-12.6,4.2-25.2,6.3-37.8c5.2-31.7,10.4-63.4,15.5-95.2c4.6-28.6,9.2-57.2,13.8-85.8c5.1-31.4,10.2-62.8,15.2-94.2
			c3.8-24,7.6-48,11.2-72c0.7-4.8,3.1-7.1,7.6-8.3c28.2-7.6,56.4-15.3,84.5-23.1c11.6-3.2,23.2-6.6,34.9-9.9
			C298.7,184.9,300.3,184.9,302,184.9z M108.7,652.7c126.6,0,252.9,0,379.4,0c-1.8-12.4-3.5-24.7-5.4-36.9
			c-5.1-32.7-10.2-65.5-15.3-98.2c-2-12.8-4.4-25.5-6.4-38.3c-2.9-19-5.5-38.1-8.4-57.1c-4.6-30.1-9.3-60.3-14-90.4
			c-5.2-33.4-10.5-66.8-15.6-100.2c-0.4-2.9-1.8-3.9-4.1-4.6c-9-2.6-18.1-5-27.1-7.7c-29.9-8.8-59.8-17.7-89.7-26.5
			c-1.5-0.4-3.3-0.7-4.8-0.3c-37,10.1-73.8,20.5-110.9,30.2c-7.4,1.9-9.7,5.3-10.7,12.3c-3.3,23.5-7.2,46.9-10.9,70.3
			c-3.2,20.2-6.7,40.5-9.9,60.7c-4.4,27.5-8.7,55-13.1,82.5c-4.9,30.1-9.9,60.1-14.9,90.2c-4,24-7.9,48-11.8,72.1
			C113,624.7,110.9,638.6,108.7,652.7z"/>
		<path class="st1" d="M106,659.9c1.7-0.3,3.4-0.9,5.2-0.9c125.2,0,250.4,0,375.7,0c1.7,0,3.4,0.6,5.2,0.9
			C363.3,659.9,234.7,659.9,106,659.9z"/>
		<path class="st2" d="M253.9,355.5c0-7.3-0.3-14,0.1-20.7c0.5-7.6,2.5-15.2,2.4-22.7c-0.4-19.5-1.3-38.9-2.5-58.4
			c-0.4-5.9-2.9-11.6-4.1-17.4c-1.1-5.2-0.2-6,4.9-5.6c9.7,0.8,17.9,5,24.9,11.4c3.7,3.4,4.3,7.3,2.6,12.2
			c-2.1,6.4-4.6,13.1-4.6,19.7c-0.1,21.6,0.9,43.2,1.5,64.9c0,1,0.4,1.9,0.7,3.3c1.4-0.5,2.6-0.8,3.8-1.3
			c13.3-6,26.7-11.9,39.9-18.1c4.6-2.2,9-5.1,13.2-7.9c3.4-2.3,5.4-5.2,2.7-9.6c-2-3.3,0-5.2,3.4-5c11,0.6,20.8,4.6,28.5,12.7
			c4.5,4.7,3.9,9.3-2.1,12.1c-10.7,4.9-21.6,9.5-32.8,13c-27.8,8.5-55.6,17.2-81.2,31.4c-8.5,4.7-16.5,10.6-24.2,16.6
			c-3.6,2.8-6.5,6.7-8.9,10.6c-8,13.3-3.6,26.3,10.7,32.2c13.4,5.6,27.6,7.1,41.9,8.1c20,1.5,39.5-2.3,58.9-6.3
			c3.6-0.7,7.2-1,10.8-1.7c11.1-2.1,18.6,3.4,24.6,11.6c4.4,5.9,3.7,9.8-3.1,12.4c-7.7,2.9-15.8,5.5-23.9,6.6
			c-26.5,3.6-53.1,4.2-79.4-2.3c-14.3-3.6-27.6-9.6-40.1-17.4c-18.3-11.5-22.8-31.7-11.7-50.3c5.2-8.7,12.5-15.1,20.9-20.4
			C239.2,364.1,246.8,359.7,253.9,355.5z"/>
		<path class="st3" d="M297,567.6c0,23.7,0,46.7,0,69.7c0,2.9,1.3,7.4-3.4,7.4c-4.7,0.1-3.6-4.3-3.6-7.3c-0.1-21.3,0-42.7,0-64
			c0-1.8,0-3.6,0-5.8c-6.1,0-11.7,0-17.3,0c-16.5,0-33,0-49.5,0c-1,0-2.2,0.4-3-0.1c-1.7-1-3.3-2.5-4.9-3.7c1.6-1.2,3.2-3.5,4.9-3.5
			c10.8-0.3,21.7-0.2,32.5-0.2c9.9,0,19.9,0,30.8,0c-5.7-5.2-10.7-9.7-15.7-14.1c-9.3-8.3-18.7-16.5-28.1-24.7
			c-2.2-1.9-4.3-4-2.1-6.6c2.2-2.6,4.7-1,6.9,1c13.6,12,27.2,24,40.8,35.9c1.2,1.1,2.5,2,4.6,3.6c0-3.6,0-6.3,0-9.1
			c0-14.2,0-28.3,0-42.5c0-3-1.2-7.3,3.4-7.5c4.8-0.1,3.6,4.3,3.6,7.2c0.1,15,0,30,0,45c0,1.6,0,3.2,0,5.9c3.2-2.6,5.8-4.6,8.2-6.7
			c11.2-9.9,22.3-20,33.5-29.9c1.4-1.2,2.7-2.8,4.3-3.3c1.6-0.5,3.6,0.2,5.4,0.3c-0.3,1.8,0,4.2-1,5.2c-7.5,7.1-15.1,13.9-22.9,20.7
			c-7.1,6.2-14.3,12.3-22.1,19.1c2,0.1,3.4,0.3,4.7,0.3c19.2,0,38.3,0,57.5,0c1.2,0,2.5-0.4,3.5,0.1c1.7,0.9,4.1,2.1,4.3,3.5
			c0.5,2.7-1.8,4-4.5,3.9c-1.7,0-3.3,0-5,0C341.2,567.6,319.4,567.6,297,567.6z"/>
		<path class="st4" d="M444,607.6c0,9.5,0.1,19-0.1,28.5c0,1.6-1.5,3.2-2.3,4.7c-0.9-1.5-2.5-3-2.5-4.5c-0.2-19.3-0.2-38.6,0-57.9
			c0-1.5,1.6-3,2.5-4.5c0.8,1.6,2.2,3.1,2.3,4.7C444.1,588.3,444,598,444,607.6z"/>
	</g>
</g>
</svg>
