<?xml version="1.0" encoding="utf-8"?>
<!-- Generator: Adobe Illustrator 22.0.1, SVG Export Plug-In . SVG Version: 6.00 Build 0)  -->
<svg version="1.1" id="Слой_1" xmlns="http://www.w3.org/2000/svg" xmlns:xlink="http://www.w3.org/1999/xlink" x="0px" y="0px"
	 viewBox="0 0 595.3 841.9" style="enable-background:new 0 0 595.3 841.9;" xml:space="preserve">
<style type="text/css">
	.st0{fill:#0A0A0A;}
	.st1{fill:#FD0303;}
	.st2{fill:#FD0B0C;}
	.st3{fill:#FD0404;}
	.st4{fill:#FD0505;}
	.st5{fill:#FD0304;}
</style>
<g>
	<g>
		<path class="st0" d="M298.5,658.5c-62.8,0-125.6,0-188.5,0c-2,0-4-0.2-5.9-0.5c-3-0.5-3.8-2.2-3.3-5.4c4.7-27,9.4-53.9,13.9-80.9
			c5.1-31.1,10.1-62.2,15.1-93.3c2.3-14.5,4.7-29,7-43.4c2.8-18.2,5.4-36.5,8.3-54.7c1.9-11.9,4.2-23.7,6.1-35.6
			c2.7-17.1,5.2-34.3,7.9-51.4c1.9-12,4.2-24,6.3-36c1.9-11.2,3.7-22.4,5.4-33.6c0.5-3.5,2.3-5,5.6-5.9c17.6-4.8,35.1-9.8,52.7-14.6
			c21.4-5.9,42.7-11.9,64.2-17.4c4.2-1.1,9.2-0.9,13.4,0.3c22.1,6.2,44.1,12.9,66.1,19.4c16.8,4.9,33.6,10,50.6,14.6
			c4.9,1.3,6.1,4.6,6.7,8.6c3.8,24.6,7.4,49.3,11.2,74c3.1,20,6.7,40,9.8,60c4.2,27.2,8,54.5,12.2,81.8c3.1,20,6.6,40,9.7,60
			c3.5,22.7,6.7,45.4,10.2,68.1c3.5,22.7,7.3,45.3,10.8,67.9c0.7,4.6,0.9,9.2,1.5,13.8c0.4,3.1-1.1,4.2-3.9,4.4c-1,0-2,0-3,0
			C425.2,658.5,361.9,658.5,298.5,658.5z M488.2,651.7c-1.9-13-3.7-25.6-5.6-38.2c-4.9-31.8-9.8-63.5-14.7-95.3
			c-5-32.4-10.1-64.8-15.1-97.3c-4.6-30-9.3-59.9-13.9-89.9c-5.2-33.6-10.5-67.1-15.9-100.7c-0.3-1.6-2.1-3.7-3.7-4.2
			c-9.1-2.9-18.4-5.3-27.5-8c-24.7-7.2-49.7-13.6-74-21.9c-12.4-4.2-23.4-4.3-35.8-0.6c-33.5,10-67.4,18.7-101.2,28.2
			c-1.4,0.4-3.2,2.3-3.4,3.7c-4.2,25.7-8.2,51.4-12.3,77.1c-3.9,23.8-8,47.6-11.8,71.5c-3.8,23.7-7.3,47.5-11.1,71.2
			c-4.9,30.6-9.9,61.2-14.9,91.7c-3.6,21.7-7.3,43.4-10.8,65.2c-2.6,15.7-5,31.4-7.5,47.4C235.2,651.7,361.5,651.7,488.2,651.7z"/>
		<path class="st1" d="M305.1,321.2c-0.5,9-0.9,17.1-1.3,25.6c11.4-1.2,22.2-2.3,33.1-3.4c18.7-1.9,37.4-3.7,56.1-5.5
			c1.3-0.1,2.8-0.3,4,0.2c9.6,4.4,19.3,8.9,28.7,13.7c4.1,2,4.7,5.8,2.3,9.3c-10.2,15.4-10.4,33-11.9,50.4c-1.5,17.6-4,35-10,51.8
			c-5.6,15.9-15.5,28.2-30.4,36.2c-8,4.3-10.7,3.6-15.7-3.9c-7.2-10.8-14.2-21.7-21.1-32.7c-0.8-1.3-0.5-3.2-0.7-4.9
			c1.5,0.1,3.1,0,4.5,0.5c5.6,2.1,11.2,4.2,16.7,6.6c5,2.2,8.8,0.8,12.7-2.6c10.9-9.8,17.1-22.2,18.7-36.5
			c2.1-18.2,3.5-36.4,4.9-54.7c0.8-10.6-3.8-15.2-14.3-15.2c-43.7,0.2-87.2,3.4-129.9,13.1c-6.7,1.5-13.1,4.5-19.5,7.3
			c-5.4,2.4-7.7,2.5-11.3-2.2c-5.2-6.8-8.5-13.8-4.9-23c5.8-14.5,7.2-30,7.9-45.5c0.6-14.6,0.8-29.3,1.1-44
			c0.2-9.3-1.2-18.1-6.5-26.2c-3.5-5.4-1-10,5.4-9.4c4.8,0.5,9.4,2.8,14.1,4.2c2,0.6,4.1,1.5,6.1,1.3c35.8-3.4,71.5-7.5,106.4-16.3
			c8.4-2.1,15.4,1.5,21.8,6.2c3.5,2.6,2.5,5.7-2.5,6.9c-9,2.2-18.2,4.1-27.3,5.6c-11.5,1.9-23,3.2-35.2,4.9
			c4.2,4.1,3.4,8.5,2.3,13.3c-1.1,4.5-1.2,9.2-1.8,14.5c9.5-1.6,18.3-3,27-4.4c10.2-1.6,19.8,0.6,29,5.1c1.4,0.7,3.3,2.6,3.2,3.8
			c-0.1,1.3-2,3.1-3.5,3.6c-3.9,1.4-7.9,2.6-12,3.1c-14.5,1.7-29.1,3.2-44.2,4.7c-0.4,7.6-0.8,14.8-1.3,22.7
			c11.2-1.7,21.8-3.4,32.4-4.9c10.1-1.5,19.5,0.9,28.4,5.4c4.4,2.2,4.3,4.9-0.2,7c-3.6,1.6-7.5,2.7-11.4,3.2
			C338.6,317.9,322,319.4,305.1,321.2z M237.8,326.2c-0.3,7.5-0.8,16.2-0.9,25c-0.1,2.9,0.4,5.9,4.8,5.2c14.6-2.4,29.2-4.7,43.8-7
			c0-8.6,0-16.9,0-24.8C269.4,325.1,253.9,325.6,237.8,326.2z M245,241.9c-1.5,11.3-3,22.1-4.6,33.6c15.7-1.9,30-3.6,44.6-5.3
			c-0.4-8.8,1.2-17.2-3.1-25c-1.3-2.4-2.7-3.5-5.8-3.4C266.4,242.1,256.6,241.9,245,241.9z M285,285.9c-15.1,0.9-29.9,4.2-44.9,0.1
			c-0.5,9.4-1,18.3-1.6,27.7c15.9-1.8,31.2-3.5,46.4-5.2C285,300.6,285,293.4,285,285.9z"/>
		<path class="st2" d="M318.8,513.6c12.3-3.6,23-6.8,34.8-10.2c-3.4,11.7-6.5,22.6-10.2,35.3c-3.3-4.4-5.7-7.8-7.6-10.3
			c-11.6,11.1-22.3,21.2-34.2,32.5c2.9,0,4.4,0,6,0c21.5,0,43,0,64.5,0c1.5,0,3.2-0.4,4.4,0.3c1.4,0.7,3.4,2.6,3.2,3.6
			c-0.3,1.8-1.9,3.5-3.4,4.7c-0.8,0.7-2.6,0.2-3.9,0.2c-21,0-42,0-63,0c-2.3,0-4.6,0.2-5.9,0.3c10.1,10.7,20.5,21.7,31.7,33.6
			c2.9-3.6,5.4-6.9,8.9-11.3c3.9,12.5,7.2,23.3,10.8,34.8c-11.8-3.1-22.7-6.1-34.5-9.2c3.2-3.4,6-6.3,8.4-8.9
			c-10.6-11.2-21.1-22.2-32.4-34c-0.2,2.6-0.3,4-0.3,5.3c0,20.2,0,40.3-0.1,60.5c0,1.9-0.8,4.5-2.2,5.5c-2.8,2.1-5.7-0.6-5.7-5.2
			c-0.1-19.2-0.1-38.3-0.2-57.5c0-2.3,0-4.6,0-6.6c-10.6,10.4-21.3,20.9-32.5,31.9c3.2,2.6,6.4,5.2,9.6,7.8
			c-0.2,0.5-0.4,1.1-0.6,1.6c-10.8,3.3-21.6,6.7-33.3,10.3c3.2-11.9,6.2-22.9,9.1-33.9c0.4-0.3,0.9-0.6,1.3-0.9
			c2.4,3.4,4.8,6.7,6.6,9.2c11.9-11.3,22.7-21.5,34.5-32.7c-3.9-0.3-6.5-0.7-9.1-0.7c-20.7,0-41.3,0-62,0c-1,0-2.4,0.3-2.9-0.2
			c-1.3-1.3-3-2.8-3.2-4.4c-0.1-1.2,1.6-3,3-3.8c1.1-0.7,2.9-0.3,4.4-0.3c20.8,0,41.7,0,62.5,0c1.6,0,3.2,0,4.6,0
			c-10.1-10.6-20.1-21-31.2-32.6c-2.7,3.7-5.1,7.2-7.6,10.6c-0.5-0.3-1-0.7-1.4-1c-3.2-10.9-6.3-21.7-9.7-33.4
			c11.7,3.4,22.4,6.5,33.2,9.6c0.4,0.5,0.8,1.1,1.2,1.6c-2.5,2-5.2,3.9-7.5,6.1c-0.8,0.8-1.2,3.4-0.6,4c10,10.2,20.3,20.2,31.5,31.2
			c0.1-2.9,0.3-4.4,0.3-5.9c0-17.5,0-35,0-52.5c0-1,0-2,0-3c-0.1-3,0.8-5.9,4.1-5.3c1.5,0.3,3.6,3.4,3.6,5.3
			c0.3,17.8,0.2,35.7,0.2,53.5c0,2.1,0.2,4.2,0.2,5c10.5-10,21.4-20.4,33.1-31.4C325.7,519.6,322.7,516.9,318.8,513.6z"/>
		<path class="st3" d="M195.7,413.4c-2.9,11.2-5.7,22.4-8.9,33.5c-0.7,2.6-2.5,5-4,7.4c-1.9,2.9-3.9,6-8.2,5.2
			c-4.6-0.9-8.1-3.3-9.6-7.8c-2.6-8-2.6-16.1,0.5-23.9c5.4-13.5,11.1-26.9,16.7-40.3c0.4-1.1,1.5-2.2,2.6-2.5c0.6-0.2,2,1.1,2.4,2
			c3.8,8.3,8,16.5,7.1,26.1C194.8,413.2,195.2,413.3,195.7,413.4z"/>
		<path class="st3" d="M365.6,410.2c-0.3,4.7-0.7,9.3-5.6,11.6c-5.2,2.4-10.2,0.9-13.6-3c-8.6-9.9-16.8-20.1-25-30.3
			c-2.1-2.7-0.5-5.4,3.1-5c12.2,1.3,23.8,4.7,34.2,11.2C364.2,397.9,365.6,404,365.6,410.2z"/>
		<path class="st4" d="M310,415.2c-0.5,2.4-0.7,5-1.6,7.2c-2.5,6.4-10.9,8.2-15.5,2.5c-7.6-9.6-14.3-19.9-20.9-30.2
			c-1.9-2.9,0.4-5,3.4-4.6c10.4,1.5,20.8,4.2,28.8,11.2c3.5,3,4.5,8.8,6.7,13.3C310.6,414.8,310.3,415,310,415.2z"/>
		<path class="st5" d="M255.1,422.1c-0.1,0.7-0.3,2.7-0.8,4.5c-2.4,7.6-10.4,9.7-15.4,3.7c-4.8-5.9-8.7-12.5-12.8-18.9
			c-1.7-2.6-3.2-5.4-4.4-8.3c-0.8-2-0.9-4.2-1.3-6.4c2.2-0.3,4.6-1.3,6.6-0.7c5.8,1.8,11.6,4,17.2,6.4
			C252.1,405.8,255.2,412.4,255.1,422.1z"/>
	</g>
</g>
</svg>
