<?xml version="1.0" encoding="utf-8"?>
<!-- Generator: Adobe Illustrator 22.0.1, SVG Export Plug-In . SVG Version: 6.00 Build 0)  -->
<svg version="1.1" id="Слой_1" xmlns="http://www.w3.org/2000/svg" xmlns:xlink="http://www.w3.org/1999/xlink" x="0px" y="0px"
	 viewBox="0 0 595.3 841.9" style="enable-background:new 0 0 595.3 841.9;" xml:space="preserve">
<g>
	<g>
		<path d="M299.5,185c62.8,0,125.6,0,188.5,0c2.1,0,4.6-0.2,6.3,0.8c1.5,0.9,3.2,3.5,2.9,5c-2.5,15.9-5.4,31.7-8.1,47.6
			c-4.2,25.4-8.3,50.8-12.4,76.2c-5.2,31.8-10.3,63.5-15.5,95.3c-5,30.6-9.9,61.2-14.8,91.9c-4.7,29.3-9.5,58.6-14.2,88
			c-1.5,9.3-3.1,18.6-4.1,28c-0.6,5.2-2.9,7.8-8,9.2c-35.3,9.5-70.7,18.9-105.9,29.1c-10.8,3.1-20.6,3.2-31.4-0.2
			c-35.6-11.1-71.4-21.4-107.2-31.7c-5-1.4-7-4.1-7.7-8.8c-2.2-14.6-4.7-29.2-6.9-43.8c-3.7-24.3-7.3-48.6-11.1-72.9
			c-3.6-23.1-7.3-46.2-10.9-69.2c-4.7-30-9.3-60-14-90.1c-5-32-10.1-63.9-14.9-95.9c-2.6-17.1-5-34.2-7.4-51.3
			c-0.9-6.5-0.2-7.2,6.3-7.2C172.6,185,236.1,185,299.5,185z M109.8,192.2c2,13.2,3.8,26.2,5.8,39.1c4.8,31.5,9.7,62.9,14.6,94.4
			c5.1,33,10.3,65.9,15.4,98.9c4.6,29.3,9,58.7,13.6,88.1c5.2,33.6,10.5,67.2,15.9,100.8c0.3,1.6,2.1,3.7,3.7,4.2
			c9.1,2.9,18.4,5.3,27.6,8c29.9,8.8,59.7,17.7,89.6,26.4c1.8,0.5,3.9,0.3,5.7-0.2c14.6-3.9,29.1-8,43.6-12
			c24-6.6,47.9-13.1,71.9-19.8c1.4-0.4,3.3-1.9,3.5-3.2c2.5-14.4,4.8-28.8,7.1-43.2c4.4-28.2,8.8-56.4,13.3-84.6
			c3.1-19.5,6.6-38.9,9.7-58.3c4.1-25.7,8.1-51.5,12.2-77.2c3.5-21.6,7.2-43.2,10.8-64.8c4.1-24.7,8-49.5,12-74.2
			c1.2-7.3,2.2-14.7,3.4-22.4C362.6,192.2,236.4,192.2,109.8,192.2z"/>
		<path d="M365.7,519.7c1.6,17.1,3,33.2,4.8,49.2c0.3,3,2.3,5.8,3.7,8.6c2.6,4.9,0.5,9.3-4.9,8.6c-6-0.7-12.1-2.2-17.7-4.5
			c-5.2-2.1-5.1-5.1-4.5-11.7c1.3-15.7,1.8-31.4,2.7-47.5c-15.2,1.5-29.1,2.8-42.4,4c0,9.8-0.2,19.2,0,28.7c0.5,16,1.3,32,1.9,47.9
			c0.2,6.9,1.2,13.5,5.3,19.4c2.9,4.2,0.5,8.7-4.6,8.9c-8,0.3-15.5-1.8-22.2-6.2c-3.5-2.3-4-5.6-3.5-9.6c1.4-12,2.5-24.1,3.8-37.2
			c-9,1.8-16.6,3.3-24.1,4.8c-5.1,1-10.1,2-15.1,3.4c-9.2,2.6-17-0.4-24.4-5.4c-1.6-1.1-3.1-3.3-3.2-5c-0.1-1,2.7-2.8,4.4-3.1
			c9.5-1.6,19.1-3.1,28.6-4c10.7-1,21.5-1.4,33-2.1c0-12.2,0-25.3,0-39.1c-7.5,0.6-15.5,0.9-23.3,1.9c-21.6,2.7-43.1,6.6-64.8,8.3
			c-12.9,1-24.7-4.8-33.8-14.4c-3.7-3.9-2.3-7.7,3.1-8.6c5.5-0.9,11.2-1.1,16.9-1.2c34.5-0.6,68.9-1.1,103.4-1.7
			c0.9,0,1.8-0.1,3.7-0.3c-1.5-0.9-2.1-1.4-2.8-1.8c-7.4-4.5-7.9-6.7-5.5-14.8c1.6-5.5,2.6-11.3,2.9-17.1c0.6-15.8,0.2-31.7,1-47.4
			c0.2-4.5,2.7-9.2,5.2-13.2c2.7-4.4,7.4-4.1,10.1,0.4c4.7,8,7.4,16.4,3.7,25.7c-0.7,1.8-1.2,3.8-1.3,5.8
			c-0.8,18.9-2.7,37.9,3.2,56.5c1.3,4,3.2,4.8,7.2,4.5c23.8-1.8,47.3-5.5,70.4-11.2c6.8-1.7,13.2-1.4,19.5,1.3
			c5.5,2.4,11,4.8,16.2,7.7c1.7,0.9,2.5,3.5,3.7,5.3c-1.9,1.2-3.7,3.2-5.6,3.4c-8,0.7-16,0.7-24,1.1
			C386.4,518.4,376.4,519.1,365.7,519.7z"/>
		<path d="M404.9,331.8c-2.4,1-4.7,2.1-7.1,3.1c-44.3,18.6-85,43.3-121.7,74.4c-5.8,4.9-11,10.7-16.3,16.2c-5.8,6-8.8,13.2-8.8,21.6
			c0,1.3-0.1,2.7-0.3,4c-1.1,6.3-3.9,8-9.8,5.8c-8.7-3.3-15.2-9.4-20.5-16.8c-1.9-2.6-2.5-5.3,0.4-8c21.5-19.7,42.6-39.7,67-55.9
			c31.2-20.7,65-35.5,101.2-44.8c4.9-1.3,10.2-1.4,15.3-2.1C404.5,330.2,404.7,331,404.9,331.8z"/>
		<path d="M406.5,408c-1.1,1.3-2.2,2.7-3.4,4c-13.3,15.2-25.7,31.1-34.5,49.4c-2.3,4.8-3.5,10.3-4.3,15.7c-0.5,3.4-2,4.8-4.8,3.9
			c-6.9-2.3-14-4.4-20.2-7.9c-5.8-3.2-5.2-8-0.2-12.5c4.2-3.8,8.1-7.9,11.8-12.2c13.7-16,28.7-30.6,47.6-40.4
			c2.2-1.1,4.8-1.2,7.3-1.8C406,406.7,406.3,407.3,406.5,408z"/>
		<path d="M306,272.9c0,20.6,0,41.3,0,61.9c0,1.7,0.4,3.7-0.5,4.9c-1.2,1.7-3.3,3.8-5,3.8c-1.7,0-3.8-2.1-5-3.8
			c-0.8-1.2-0.5-3.2-0.5-4.9c0-41.3,0-82.6,0-123.9c0-1.5-0.4-3.4,0.3-4.4c1.3-1.8,3.4-4.3,5.1-4.3c1.8,0,3.9,2.4,5.2,4.2
			c0.8,1.2,0.3,3.2,0.3,4.9C306,231.9,306,252.4,306,272.9z"/>
		<path d="M244.6,499.1c-3.6-0.4-7.4-0.2-10.7-1.4c-12.4-4.3-24.9-8.3-36.8-13.7c-11.1-5-16.9-18-15.1-30.1c0.5-3.5,2.6-6.1,5.9-5.2
			c5.3,1.4,11.4,2.6,15.4,6c11.3,9.6,21.7,20.1,32.3,30.4c2.8,2.7,5.2,5.6,7.7,8.5c1,1.2,1.5,2.7,2.3,4
			C245.2,498.2,244.9,498.7,244.6,499.1z"/>
	</g>
</g>
</svg>
