<?xml version="1.0" encoding="utf-8"?>
<!-- Generator: Adobe Illustrator 22.0.1, SVG Export Plug-In . SVG Version: 6.00 Build 0)  -->
<svg version="1.1" id="Слой_1" xmlns="http://www.w3.org/2000/svg" xmlns:xlink="http://www.w3.org/1999/xlink" x="0px" y="0px"
	 viewBox="0 0 595.3 841.9" style="enable-background:new 0 0 595.3 841.9;" xml:space="preserve">
<g>
	<g>
		<path d="M492,183.9c3.4,1.8,3.8,4.2,3,8.1c-2.7,12.5-4.7,25.1-6.8,37.7c-2.3,13.6-4.3,27.2-6.5,40.8
			c-5.1,31.6-10.3,63.2-15.4,94.8c-4.7,28.8-9.3,57.6-13.9,86.5c-5,31.1-10.1,62.2-15.1,93.4c-3.8,24-7.6,48.1-11.2,72.2
			c-0.7,4.7-2.9,7.2-7.5,8.5c-28.1,7.6-56.2,15.4-84.3,23.1c-10.4,2.8-20.7,6-31.2,8.4c-4.2,0.9-9,1.1-13.1-0.1
			c-38.8-11.2-77.5-22.9-116.3-34.1c-5.1-1.5-6.9-4.2-7.6-8.9c-2.2-14.6-4.7-29.2-6.9-43.8c-3.8-24.5-7.4-48.9-11.2-73.4
			c-3.5-22.9-7.3-45.8-10.9-68.7c-4.7-30-9.3-60-14-90c-5-32-10-63.9-14.9-95.9c-2.6-16.9-4.9-33.8-7.3-50.8
			c-0.1-0.6-0.5-1.2-0.8-1.8c0-2,0-4,0-6C230.7,183.9,361.3,183.9,492,183.9z M107.9,191.2c1.9,12.8,3.6,25.4,5.6,38
			c4.9,32,9.9,63.9,14.9,95.9c5,32.3,10,64.6,15.1,96.9c4.7,30,9.3,60,13.9,90c5.2,33.3,10.5,66.6,15.5,99.9c0.5,3,1.7,4.2,4.4,5
			c9.7,2.7,19.4,5.4,29.1,8.3c24,7,48.2,13.4,71.9,21.3c12.3,4.1,23.4,4.5,35.9,0.7c33.5-10.1,67.3-18.8,101.1-27.9
			c2.8-0.8,3.5-2.1,3.9-4.8c1.5-11.2,3.3-22.4,5.1-33.5c4.9-30.8,9.9-61.6,14.9-92.4c5-31.1,10-62.2,15.1-93.3
			c4.9-30.5,9.9-60.9,14.9-91.4c3.9-23.7,7.9-47.5,11.8-71.2c2.2-13.7,4.3-27.5,6.5-41.6C360.7,191.2,234.4,191.2,107.9,191.2z"/>
		<path d="M339.8,583.9c-4.1-1.4-8.1-2.4-11.8-4.2c-6-2.8-12.1-5.6-17.6-9.3c-6.1-4.1-7.4-13.1-3.6-19.3c1.9-3.2,4.9-4.6,8-2.2
			c4.7,3.6,9.2,7.6,13.4,11.8c5.1,5.2,9.8,10.8,14.6,16.1c11.1-18.3,22-36.2,33-54.3c-3.1,0.5-6.7,0.9-10,1.8
			c-9.8,2.6-19.6,5.3-29.3,8.2c-4.2,1.2-14.3-1.5-17.1-5c-2.4-2.9-0.8-4.7,2-5.5c6.4-1.9,12.8-3.5,19.2-5.2c1.9-0.5,3.8-0.8,6.5-1.4
			c-10.6-6.3-1.3-14.9-3.8-22.6c-4.1,1.2-8.3,2.2-12.3,3.5c-7.6,2.4-13.7-1-19.5-5c-3.1-2.2-2.1-5.1,2.3-6.2
			c9.8-2.5,19.8-4.6,30.5-7c0-17.4,0-35.4,0-53.9c-8,3-16.2,6.2-24.5,9c-3.4,1.1-7.1,1.5-10.6,1.7c-1.3,0.1-3.6-1.4-3.8-2.4
			c-0.3-1.4,0.5-3.7,1.7-4.7c2-1.7,4.5-2.8,6.9-3.8c19.6-7.8,39.4-15.3,58.9-23.3c7.3-3,14.3-7,21.3-10.9c3.7-2.1,7.5-3,10.7-0.4
			c5.6,4.4,10.8,9.2,16,14.1c1,0.9,1.6,3.6,1,4.4c-0.9,1.2-3.2,2.2-4.6,1.9c-19-4.3-36.1,3.2-53.6,8.3c-2.1,0.6-4,1-3.8,4.1
			c0.8,17.1,1.3,34.3,1.9,51.4c0,0.6,0.2,1.3,0.2,1.2c7.8,0,15.2-0.5,22.6,0.2c4.3,0.4,8.5,2.4,12.5,4c1,0.4,1.3,2.4,1.9,3.7
			c-1.2,0.5-2.3,1.2-3.5,1.4c-9.2,1.4-18.5,2.6-27.7,3.9c-1.8,0.3-3.5,0.8-6.6,1.4c1.4,6.7,2.5,13.2,4.2,19.5
			c0.7,2.7,2.9,4.3,6.1,3.9c1.6-0.2,3.6-0.4,4.9,0.2c6.2,3.2,9.4-0.6,13.2-4.7c10.4-11.3,22.3-21,35.8-28.5
			c3.3-1.8,7.2-2.6,10.8-3.9c0.3,0.6,0.7,1.1,1,1.7c-1.1,1.2-2.2,2.6-3.4,3.7c-30.6,28.6-54.6,61.9-70.8,100.5
			c-2.8,6.7-3.2,14.5-3.9,21.9c-0.7,8.1-3.1,9.9-10.4,6.2c-2.3-1.2-4.5-2.9-6.5-4.6c-8.5-7.3-8.8-8.8-3.7-18.9
			C339,585.8,339.3,585.1,339.8,583.9z"/>
		<path d="M281,502.8c0.5-8.2,1-16.6,1.4-25.1c0.9-22.3,1.7-44.6,2.5-66.9c0.2-6-0.9-6.7-6.4-4.2c-9.7,4.3-19.4,8.7-29.1,13.1
			c-2.1,0.9-4.3,1.6-6.4,2.4c-0.4-0.3-0.8-0.7-1.2-1c0.8-1.5,1.3-3.3,2.5-4.4c14.4-13.4,28.9-26.7,43.3-40.1c3.5-3.2,6.8-2,9.1,0.9
			c5.2,6.4,8.2,13.1,5.3,22.1c-2.6,8-4,16.5-4.5,24.9c-2.3,43.9-4.4,87.9-1.2,131.8c0.6,7.8,3.3,15.5,4.8,23.3c0.5,2.6,1,6-0.2,7.8
			c-0.9,1.3-5.1,1.4-7.2,0.5c-12.6-5.5-24.6-0.8-36.6,1.8c-9.1,2-17.8,5.4-26.6,8.4c-5.2,1.8-9.9,2.2-14.7-1.1
			c-5-3.5-10.7-6.2-15.4-10c-1.8-1.4-3.1-6-2.2-7.7c7.8-13.4,9-28.8,13.2-43.3c2.4-8.5,4.1-17.2,6.5-25.6c0.8-2.9,2.6-5.9,4.8-7.9
			c3.5-3.2,7.7-2.4,9.9,1.8c1.4,2.7,3,2.9,5.6,2.6c10.2-1.3,20.5-2.4,30.8-3.5C272.8,503.1,276.6,503,281,502.8z M277.9,547.5
			c-4.3,0.7-8.7,1.4-13.1,2c-12.4,1.8-24.8,7.8-38.4-0.1c-0.6,10.7-1.2,20.3-1.5,29.9c-0.1,4,2.3,5.7,6.2,5
			c15.3-2.7,30.6-5.4,46.7-8.3C277.9,566.9,277.9,557.7,277.9,547.5z M227.7,543.5c17.6-2,34.2-3.8,51.4-5.7
			c0.4-7.7,0.8-16.1,1.2-25.4c-9,1.5-17.1,2.8-25.3,4.1c-7.2,1.1-14.4,4.2-22.4,0.7C231,526.2,229.4,534.8,227.7,543.5z"/>
		<path d="M235.7,456.7c-1.6-1.8-2.7-3-3.8-4.2c-21.1-21.7-47.2-34.2-76.1-41.6c-2.4-0.6-4.9-1.1-7.2-2.1c-1.5-0.7-2.5-2.2-3.8-3.3
			c1.2-1,2.2-2.6,3.6-3c9.9-2.7,19.9-5.3,29.9-7.7c13.7-3.2,24.3,1.8,32.8,12.7c13.7,17.7,27.3,35.3,41.5,52.5
			c5.2,6.3,12,11.3,17.9,17.2c1.6,1.6,2.4,3.9,3.6,5.9c-2.2,0.9-4.7,2.9-6.4,2.4c-4-1.2-8.3-2.9-11.2-5.8
			c-6.1-5.8-11.5-12.5-17.7-19.5c-3.3,3.3-7.2,6.3-9.8,10.1c-5.4,7.6-10.3,15.4-14.9,23.5c-2.3,4-4.6,5.2-8.2,2.6
			c-3.9-2.8-8-5.5-11.4-8.9c-5.1-5.2-3.8-9.1,2.8-12.2C209.8,469.4,222.4,463.1,235.7,456.7z"/>
		<path d="M305,289.7c0,20,0,38.6,0,57.2c0,1.5,0.4,3.2-0.2,4.4c-0.6,1.3-2.2,3.3-3.1,3.1c-1.4-0.3-2.8-1.8-3.6-3.2
			c-0.6-1-0.2-2.6-0.2-3.9c0-17.8,0-35.7,0-53.5c0-1.6,0-3.2,0-5.8c-1.9,1.7-3.1,2.7-4.2,3.8c-16.9,16.8-33.7,33.7-50.6,50.6
			c-0.8,0.8-1.5,2.1-2.5,2.4c-1.4,0.4-3.5,0.7-4.3,0c-0.8-0.8-1-3.1-0.5-4.3c0.5-1.4,2.1-2.5,3.3-3.7c18.7-18.7,37.5-37.5,56.4-56.4
			c-9.1-9.1-18-18-27-26.9c-10.4-10.4-20.7-20.7-31.1-31.1c-1.9-1.8-3.7-3.9-1.3-6.4c2.6-2.8,4.4-0.3,6.2,1.5
			c18.2,18.1,36.3,36.3,54.4,54.5c1.2,1.2,2,2.6,3.2,4.1c19-19,37.4-37.4,55.8-55.8c1.1-1.1,2-2.5,3.2-3.1c1.3-0.6,3.8-1,4.2-0.4
			c0.8,1.2,1.2,3.3,0.7,4.7c-0.5,1.4-2.1,2.5-3.3,3.7c-18.4,18.4-36.7,36.8-55.3,55.3c18.5,18.5,36.9,36.9,55.2,55.3
			c2.1,2.1,6.6,4.4,3,8c-3.8,3.9-5.8-1.2-7.8-3.2C339.2,324,322.6,307.4,305,289.7z"/>
		<path d="M370,436.7c0-6.4,2.2-10.5,6.5-10.8c2.2-0.1,5.5,0.6,6.6,2.1c5.6,8,10.7,16.4,15.7,24.7c0.4,0.7-1,3.6-1.9,3.9
			c-8.5,2.1-25.2-9-26.6-17.4C370.1,438.3,370.1,437.3,370,436.7z"/>
		<path d="M339.8,433.6c-2.8,5.6-5.9,11-8.3,16.8c-2.2,5.3-3.7,11-5.2,16.6c-0.7,2.8-2.1,4-4.5,2.3c-4.3-3-8.7-6.1-12.4-9.8
			c-2.6-2.7-3.1-6.4,0.8-9c7.9-5.2,15.8-10.4,23.7-15.5c1.6-1,3.4-1.6,5.1-2.4C339.4,433,339.6,433.3,339.8,433.6z"/>
	</g>
</g>
</svg>
