<?xml version="1.0" encoding="utf-8"?>
<!-- Generator: Adobe Illustrator 22.0.1, SVG Export Plug-In . SVG Version: 6.00 Build 0)  -->
<svg version="1.1" id="Слой_1" xmlns="http://www.w3.org/2000/svg" xmlns:xlink="http://www.w3.org/1999/xlink" x="0px" y="0px"
	 viewBox="0 0 595.3 841.9" style="enable-background:new 0 0 595.3 841.9;" xml:space="preserve">
<g>
	<g>
		<path d="M498,192.9c-2,10.4-4.1,20.7-5.8,31.1c-2.6,15.5-5,31.1-7.5,46.7c-5.1,31.6-10.3,63.2-15.4,94.8c-4.6,28.3-9,56.7-13.6,85
			c-5.1,31.6-10.3,63.2-15.4,94.8c-3.9,24-7.6,48.1-11.2,72.2c-0.7,4.8-3.2,7.1-7.7,8.3c-27,7.3-54,14.7-81,22.1
			c-11.5,3.2-22.9,6.7-34.5,9.4c-4.1,1-9,0.9-13.1-0.3c-21.7-6.1-43.2-12.7-64.9-19.1c-17-5-33.9-10.2-51-14.9c-5-1.4-7.1-4-7.8-8.7
			c-4.6-29.7-9.3-59.3-14-89c-4.7-30-9.4-60-14-90c-5-32.3-10-64.6-15-96.9c-4.8-31-9.5-62-14.2-93c-2.8-18.4-5.6-36.7-8.2-55.1
			c-0.3-2,0.8-4.3,1.3-6.4c131,0,262,0,393,0C498,186.9,498,189.9,498,192.9z M110.9,191.2c1.9,12.8,3.6,25.4,5.6,38
			c4.9,32,9.9,63.9,14.9,95.9c5,32.3,10.1,64.6,15.1,96.9c4.7,30,9.3,60,13.9,90c5.2,33.3,10.5,66.6,15.5,99.9c0.5,3,1.7,4.3,4.4,5
			c9.7,2.7,19.4,5.4,29.1,8.3c24,7,48.2,13.3,71.9,21.3c12.3,4.1,23.4,4.5,35.9,0.8c33.5-10.1,67.3-18.8,101-27.9
			c2.8-0.8,3.5-2.1,3.9-4.8c1.5-11.2,3.3-22.4,5.1-33.5c4.9-30.8,9.9-61.6,14.9-92.4c5-31.1,10-62.2,15.1-93.3
			c4.9-30.1,9.9-60.2,14.9-90.4c4-24.1,7.9-48.1,11.8-72.2c2.2-13.7,4.3-27.5,6.5-41.6C363.7,191.2,237.4,191.2,110.9,191.2z"/>
		<path d="M357.7,428.4c11.9-48.3,30.5-81.9,45.6-80.4c-0.7,1.8-1.2,3.4-2,4.9c-18.2,32.5-26.3,67.8-28.2,104.6
			c-0.8,15.1-1.2,30.3-0.8,45.4c0.1,5.7,2.9,11.4,4.6,17.1c0.4,1.4,1.2,2.8,1.6,4.2c1.6,5.8-0.8,8.9-6.5,7.6
			c-21.6-5.1-42.6,1.5-63.9,2.8c-1.6,0.1-3.8,1.6-4.6,3c-8.2,13.7-16.2,27.6-24.1,41.4c-0.7,1.3-0.7,3.1-1,4.6
			c1.7,0.1,3.5,0.5,5,0.1c13.6-3,27.2-6.3,40.8-9.3c2.2-0.5,4.8-0.9,6.9-0.3c6.3,1.6,10.3-1.6,14.8-5.4c8.9-7.4,18.5-14.1,27.9-20.8
			c2.3-1.7,5.1-3.3,8.4-0.1c-1.3,1.4-2.5,2.7-3.7,4.1c-16.6,18.8-32.3,38.2-42.6,61.3c-1.8,4.1-2.3,8.9-2.8,13.5
			c-0.4,3.2-1.9,5-4.8,4.1c-6.6-2.1-13.4-4.1-19.5-7.4c-6.4-3.6-5.9-8.5-0.8-13.7c7.2-7.3,13.8-15.1,20.6-22.7
			c-0.4-0.7-0.8-1.3-1.2-2c-10.7,2.9-21.5,5.5-31.9,8.9c-8.8,2.9-17.3,7-25.9,10.4c-7.9,3.1-22.9-0.7-28.4-7.1
			c-3-3.5-2.8-6.7,1.4-9.8c18.7-13.5,30.5-33.3,45.9-50.3c-9.3,1.8-18.6,3.5-27.9,5.4c-6.8,1.4-13.6,3-20.5,4.5
			c-1.5,0.3-3.2,1-4.4,0.6c-9.7-3.8-18.9-8.5-24.8-17.5c-1-1.5-0.6-4.7,0.4-6.5c4.2-8.3,5.6-17.2,5.5-26.2
			c-0.1-31.1-0.7-62.3-1-93.4c-0.1-12-0.4-24,3.1-35.7c2.3-7.5,6-14.1,11.8-19.4c4.3-4,7-3.7,11.1,0.5
			c10.6,11.1,21.2,22.1,31.7,33.2c0.9,1,1.5,2.3,2.2,3.4c-0.2,0.4-0.5,0.8-0.7,1.1c-2.4-0.4-4.8-0.6-7.1-1.2
			c-5.7-1.4-11.3-2.9-16.9-4.3c-7.7-1.9-11,0.2-11.9,8.2c-1,9.3-1.6,18.6-2.1,27.9c-0.3,5.1-0.1,10.3-0.1,15.9
			c5.5,0.3,11.1,0.8,16.7,1c31.1,0.9,61.9-1.1,92.3-8C349.4,425.7,353.5,427.7,357.7,428.4z M236.9,489.9c0.5,11,0.9,21.6,1.6,32.2
			c0.3,4.9,3.9,6.2,8.2,6c10.8-0.6,21.6-1.2,32.4-1.9c4-0.3,8-0.9,12.5-1.4c-5.3-5.1-4.9-5.2-3.9-12.1c1.1-7.8,1.3-15.7,1.9-24.2
			c-9.8,1.5-18.5,2.4-26.9,4.1c-8.1,1.7-15.8,2.1-23.2-2.2C238.9,490.2,238.2,490.2,236.9,489.9z M236.9,481.1
			c17.9-2,35.2-3.9,52.9-5.9c0-9.4,0-18.6,0-28.3c-10.5,1.1-20.8,1.5-30.9,3.4c-8.1,1.6-14.9-0.9-22-4.4
			C236.9,458,236.9,469.4,236.9,481.1z M307.3,486.7c0.4,8.5,0.5,16.4,1.3,24.1c0.3,3.2,2.1,6.3,3.6,9.2c0.6,1.1,2.7,2.1,3.9,1.9
			c9.6-1.1,19.1-2.4,28.7-3.9c1.5-0.2,3.4-1.6,3.9-2.9c4.4-10.3,3.1-21.1,3.1-32.2C336.6,484.2,322.1,485.4,307.3,486.7z
			 M352.2,473.3c1.1-11.1,2.1-21.7,3.2-33c-16.9,1.9-33.4,3.6-50,5.5c0.4,9.8,0.8,18.9,1.2,27.6
			C322.1,473.3,336.8,473.3,352.2,473.3z"/>
		<path d="M357.8,244c-3.5-3.3-6.4-6.1-8.6-8.1c-12.6,11.9-25,23.8-36.4,34.6c12.2,12.9,23.9,25.4,36.7,39c2.9-3.8,5.4-7,8.7-11.3
			c3.7,12.5,6.8,23.4,10.3,35.4c-11.7-3.4-22.6-6.5-35.2-10.1c4.4-3.1,7.7-5.4,10.3-7.3c-13-13.8-24.8-26.2-36-38.1
			c-12.8,12.4-25.3,24.4-38.9,37.5c3.6,2.8,6.8,5.4,10.9,8.6c-12.3,3.6-23.1,6.8-35.3,10.3c3.4-11.9,6.5-22.9,9.7-33.8
			c0.5-0.3,1-0.6,1.6-0.9c2.4,3.4,4.8,6.8,6.6,9.2c13.4-12.8,25.9-24.7,37.5-35.7c-12.2-12.8-24-25.3-36.9-38.9
			c-2.8,3.7-5.2,7-7.7,10.3c-0.5-0.2-1-0.5-1.6-0.7c-3.4-10.8-6.7-21.6-10.4-33.3c12,3.2,23,6.2,34.9,9.4c-3.4,3.6-6.1,6.5-8,8.6
			c12.1,12.8,23.9,25.3,35.1,37.1c12.7-12.2,25.1-24,38.5-36.9c-3.8-2.7-7.1-5.1-10.5-7.5c0.3-0.6,0.6-1.2,0.8-1.8
			c10.7-3.3,21.4-6.7,33.3-10.4C363.9,221.2,360.9,232.2,357.8,244z"/>
	</g>
</g>
</svg>
