<?xml version="1.0" encoding="utf-8"?>
<!-- Generator: Adobe Illustrator 22.0.1, SVG Export Plug-In . SVG Version: 6.00 Build 0)  -->
<svg version="1.1" id="Слой_1" xmlns="http://www.w3.org/2000/svg" xmlns:xlink="http://www.w3.org/1999/xlink" x="0px" y="0px"
	 viewBox="0 0 595.3 841.9" style="enable-background:new 0 0 595.3 841.9;" xml:space="preserve">
<g>
	<g>
		<path d="M298.2,185c63,0,126,0,189,0c2,0,4,0.1,5.9,0.5c2.7,0.7,4,2.1,3.4,5.4c-2.9,15.8-5.7,31.7-8.3,47.5
			c-4.2,25.4-8.3,50.8-12.4,76.2c-5.2,31.8-10.3,63.5-15.5,95.3c-4.9,30.5-9.8,60.9-14.7,91.4c-4.8,29.5-9.6,59-14.3,88.4
			c-1.5,9.5-3,19-4.2,28.5c-0.6,4.7-2.9,7.2-7.5,8.5c-27.2,7.3-54.3,14.8-81.5,22.2c-12.1,3.3-24.2,6.9-36.4,9.8
			c-3.3,0.8-7.3,0.4-10.7-0.6c-38.8-11.3-77.5-22.9-116.3-34.2c-5.1-1.5-6.9-4.3-7.6-8.9c-4.6-29.5-9.3-59-13.9-88.5
			c-4.1-26.6-8.1-53.2-12.2-79.8c-3.2-20.8-6.6-41.6-9.9-62.4c-4.8-31-9.4-62-14.2-93c-4.9-31.3-10.3-62.6-14.6-93.9
			c-1.5-10.9-5.2-12.6,10.4-12.6C174.5,185.1,236.3,185,298.2,185z M302.9,591.7c9.1-13,17.1-24.5,25.1-35.9
			c18.5-26.1,40.4-48.9,67.4-66c11.7-7.4,24.6-13.1,37.1-19.2c2-1,4.8-0.5,7.3-0.7c0.1,0.5,0.3,1,0.4,1.6c-1.4,1.1-2.7,2.2-4.1,3.3
			c-11.1,8.5-22.8,16.3-33.1,25.7c-28.7,26.2-55.8,54.1-74.5,88.8c-3,5.6-4.8,12-6.5,18.2c-1,3.9-0.7,8.3-1.1,12.4
			c-0.6,6.8-3.6,8.9-9.6,5.8c-4.2-2.2-8.2-5.1-11.7-8.4c-7.1-6.5-7.1-8.3-2.2-16.6c0.2-0.4,0.2-0.9,0-0.1
			c-8.7-7.9-16.9-15.2-24.8-22.7c-8.8-8.4-17.5-16.9-26-25.6c-25-25.5-57.5-37.8-89.7-51.6c0.5,4.4,0.7,8.1,1.3,11.9
			c5.2,33.6,10.4,67.2,15.9,100.8c0.3,1.6,2.1,3.8,3.7,4.3c9,2.8,18.1,5.2,27.2,7.8c29.7,8.8,59.3,17.7,89.1,26.3
			c2.2,0.6,4.9,0.6,7.2,0c14.4-3.8,28.7-7.9,43.1-11.9c24-6.6,47.9-13.1,71.9-19.8c1.4-0.4,3.3-1.9,3.5-3.2
			c2.5-14.4,4.8-28.8,7.1-43.2c4.4-28.2,8.8-56.4,13.3-84.6c3.1-19.5,6.6-38.9,9.7-58.4c4.1-25.7,8.1-51.5,12.2-77.2
			c3.5-21.6,7.2-43.2,10.8-64.8c4.1-24.7,8-49.5,12-74.2c1.2-7.3,2.2-14.7,3.4-22.3c-126.6,0-252.8,0-379.5,0
			c15.8,101.6,31.5,202.8,47,303.1c13.6-2.5,26.6-5,39.7-7.4c13.5-2.5,24,2.3,32.4,13c16.5,21.2,32.9,42.4,49.8,63.2
			C285.3,573.5,294.1,582.2,302.9,591.7z"/>
		<path d="M317.3,390c0,22.6,0,44.8,0,67.8c14.6-1.8,28.1-3.6,41.6-5.3c8.9-1.1,16.2,2.7,23.3,7.2c0.7,0.5,1,1.6,2.2,3.6
			c-22.2,4.5-44.4,5-66.2,8.9c0.2,11-1.9,22.3,6.9,31.9c12-4.1,23.8-3.7,33.6,5.7c0,0.6,0,1.3,0,1.9c-5,1-9.9,2.1-14.9,3
			c-20.1,3.9-40.2,7.7-60.3,11.6c-7,1.3-19.6-4-23.2-10c-2.2-3.6,0.2-5,3.2-5.3c8.6-0.8,17.3-1.3,25.9-2.1c4.3-0.4,8.6-0.9,12.8-1.3
			c0-0.6,0.2-1,0-1.1c-8.2-5.3-8-5.3-6.3-15c0.9-5.2,1.1-10.5,1.7-16.7c-7.1,0.9-13.4,1.7-19.8,2.6c-4.1,0.6-8.2,1.2-12.3,1.9
			c-10.8,2.1-19.1-2.6-26.5-9.6c-3.5-3.4-2.8-6.3,2.1-6.8c10.4-1.1,20.9-1.3,31.4-1.9c8.3-0.5,16.6-1,25.3-1.5
			c0.7-22.9,1.4-45.3,2.2-68.5c-6.8,0.5-13.3,0.6-19.6,1.4c-16.2,1.9-32.3,4.7-48.5,6.1c-11.8,1-22.2-3.7-30.4-12.2
			c-3.3-3.4-2.2-6.6,2.6-7.4c4.7-0.9,9.6-1.2,14.4-1c36.5,0.9,73,0.3,109.4-3.1c16-1.5,32-4.5,47.8-7.3c12.1-2.2,21.7,3.1,31.2,9.1
			c2.9,1.8,2.1,4.8-1.3,5.9c-2.2,0.7-4.6,0.7-6.9,0.9c-26.2,2.1-52.4,4.2-78.7,6.3C318.8,389.5,317.7,389.9,317.3,390z"/>
		<path d="M300,290.7c-2,1.5-3.4,2.4-4.6,3.4c-12.4,11-24.8,22.2-37.4,33.1c-2.5,2.1-5.6,6.8-9.1,2.9c-3.6-4,1.6-5.9,3.9-8
			c7-6.6,14.3-12.9,21.5-19.2c6.4-5.7,12.9-11.4,20.4-18.1c-2.8,0-4.5,0-6.1,0c-18.7,0-37.3,0-56,0c-1.2,0-2.6,0.4-3.5-0.1
			c-1.8-1-3.2-2.5-4.8-3.7c1.7-1.2,3.2-2.6,5-3.5c0.9-0.5,2.3-0.1,3.5-0.1c20.3,0,40.7,0,61,0c1.8,0,3.6,0,6.1,0c0-2.1,0-3.9,0-5.7
			c0-21.5,0-43,0-64.5c0-1.5-0.3-3.2,0.3-4.4c0.5-1.1,2.1-2.5,3.2-2.5c1.1,0,2.7,1.3,3.2,2.4c0.6,1.2,0.3,2.9,0.3,4.4
			c0,21.3,0,42.7,0,64c0,1.8,0,3.6,0,5.9c2.1,0.1,3.8,0.3,5.6,0.3c19.7,0,39.3,0,59,0c1,0,2,0,3,0c2.9,0.1,6.8-0.8,6.9,3.6
			c0.1,4.5-3.7,3.7-6.6,3.8c-3.3,0.1-6.7,0-10,0c-15.2,0-30.3,0-45.5,0c-1.6,0-3.2,0.1-5.6,0.3c5.6,5.1,10.6,9.6,15.6,14.1
			c9.2,8.2,18.4,16.3,27.7,24.4c2.1,1.8,4.5,3.9,2.3,6.6c-2.2,2.7-4.7,1.1-6.9-0.8c-13.6-12-27.2-24-40.8-35.9c-1.2-1-2.5-2-4.6-3.6
			c0,5.3,0,9.6,0,13.8c0,13.3,0,26.7,0,40c0,2.7-0.5,5.6-3.7,5.1c-1.3-0.2-3.2-3.2-3.2-5c-0.3-15.7-0.1-31.3-0.1-47
			C300,294.9,300,293.3,300,290.7z"/>
		<path d="M234.6,429.3c1.8-2,3.1-4.4,5-5.4c13.9-7.5,27.9-14.8,42-21.9c2.2-1.1,5.1-0.8,7.7-1.2c-1.3,1.9-2.4,4-4,5.7
			c-10.6,11-18.2,23.7-23.6,37.9c-2.3,5.9-3.9,6.6-9.2,3.1c-4.8-3.2-9.4-6.9-13.6-10.8C237,435,236.2,432.3,234.6,429.3z"/>
		<path d="M335.5,407.4c0-0.4,0.1-1.6,0.2-2.7c0.4-3.7,1.8-6.6,5.5-8.1c3.7-1.5,7.1-0.7,9.6,2c4.3,4.8,8.5,9.8,12.2,15
			c3.6,5,6.7,10.3,9.9,15.5c2.1,3.5,0.8,5.8-3,5.3c-10.3-1.4-20.1-4.8-28.5-11C336.7,419.9,335.6,414.1,335.5,407.4z"/>
	</g>
</g>
</svg>
