<?xml version="1.0" encoding="utf-8"?>
<!-- Generator: Adobe Illustrator 22.0.1, SVG Export Plug-In . SVG Version: 6.00 Build 0)  -->
<svg version="1.1" id="Слой_1" xmlns="http://www.w3.org/2000/svg" xmlns:xlink="http://www.w3.org/1999/xlink" x="0px" y="0px"
	 viewBox="0 0 595.3 841.9" style="enable-background:new 0 0 595.3 841.9;" xml:space="preserve">
<g>
	<g>
		<path d="M494,183.9c3.4,1.8,3.8,4.2,3,8.1c-2.6,12.5-4.7,25.1-6.8,37.7c-2.3,13.6-4.3,27.2-6.5,40.8
			c-5.1,31.6-10.3,63.2-15.4,94.8c-4.6,28.7-9.2,57.3-13.8,86c-5,31.3-10.2,62.6-15.2,93.9c-3.8,24.1-7.6,48.1-11.2,72.2
			c-0.8,5.1-3.5,7.2-8.2,8.5c-34.2,9.2-68.5,18.1-102.5,28.2c-13,3.9-24.7,3.9-37.6-0.3c-34.4-10.9-69.2-20.8-103.9-30.7
			c-5.3-1.5-7.2-4.3-7.9-9.2c-4.2-27.4-8.6-54.8-12.9-82.2c-4.4-28.7-8.7-57.4-13.2-86.1c-3.2-20.8-6.7-41.6-9.9-62.4
			c-4.1-26.8-8.1-53.5-12.2-80.3c-3.1-20.1-6.6-40.2-9.7-60.4c-2.7-17.6-5.2-35.2-7.5-52.8c-0.3-1.9,0.9-3.9,1.4-5.9
			C234,183.9,364,183.9,494,183.9z M274.4,644.5c7,2.2,13.3,4.4,19.6,6c2.9,0.7,6.2,0.8,9.1,0c14.1-3.7,28.1-7.8,42.2-11.6
			c24-6.6,47.9-13.1,71.9-19.8c1.4-0.4,3.4-1.9,3.6-3.2c2.5-14.4,4.8-28.8,7.1-43.2c4.4-28.2,8.8-56.4,13.3-84.6
			c2.8-17.3,5.9-34.6,8.7-52c4.5-28,8.8-56.1,13.3-84.1c3.5-21.8,7.2-43.5,10.8-65.3c4-24.4,8-48.8,11.9-73.2
			c1.2-7.3,2.2-14.7,3.4-22.4c-126.6,0-252.8,0-379.4,0c1.9,13.1,3.7,25.8,5.7,38.6c4.9,31.6,9.8,63.3,14.7,94.9
			c5.1,33,10.3,65.9,15.5,98.9c4.6,29.3,9,58.7,13.6,88.1c5.2,33.6,10.5,67.2,15.9,100.8c0.3,1.6,2.2,3.7,3.7,4.2
			c19.8,6,39.7,11.7,59.6,17.4c8,2.3,16,4.7,24,7c-3.1-3.7-6.7-6.3-9.8-9.5c-3.5-3.6-2.4-7.5,2.2-9.5c1.4-0.6,2.9-0.8,4.3-1.3
			c13.6-4.3,27.2-8.6,42-13.2c-8.4-3.7-7.8-9.7-6.6-16.2c1.2-6.7,1.8-13.6,2.7-20.7c-2.9,0.2-4.6,0.2-6.2,0.5
			c-19.7,3.1-39.5,5.8-59.1,9.6c-14.8,2.9-28.1,1.6-39.2-9.4c-1.5-1.5-3.5-4.5-2.9-5.7c0.9-1.8,3.7-2.9,5.9-3.6
			c2.2-0.7,4.6-0.6,6.9-0.7c20.5-1.2,40.9-2.2,61.4-3.5c10.9-0.7,21.8-2,32.6-3c0.5-5.9,0.5-5.9-4.3-7.8c-21.9-9-44-17.3-65.4-27.2
			c-14.8-6.9-28.8-15.9-42.8-24.5c-7.1-4.4-9.4-11.3-7.1-19.6c1.6-5.5,4.6-8.3,10.2-7c4.4,1,8.6,3.3,12.4,5.8
			c30.6,20.1,61,40.5,91.5,60.7c1.6,1.1,3.3,1.9,5.7,3.3c0-2.4,0-3.8,0-5.3c0-10.5-0.6-21,0.3-31.5c0.5-5.9,2.5-12,5.2-17.4
			c2.7-5.3,7.7-4.9,10.9,0.1c1.1,1.7,1.8,3.5,2.6,5.4c3.6,8.3,2.4,17,1.6,25.6c-0.5,5.8-1,11.7-1.5,17.5c0.4,0.3,0.9,0.6,1.3,0.8
			c32.2-41.4,71.5-71.3,124.7-79.4c-43.8,25.1-84.7,53.6-114.8,96.3c1.7,0,2.4,0.1,3,0c19-3.1,38.2-5.8,57.1-9.5
			c11.6-2.3,21.3,1.5,30.7,7.2c1.3,0.8,2.1,2.3,3.1,3.5c-0.1,0.6-0.1,1.3-0.2,1.9c-34.8,5.7-70,8.5-105.1,14.1
			c0.1,11.8-0.3,23.2,3.5,34.2c10.4-1.8,20.3-3.8,30.3-5.2c9.8-1.3,19.8-2.6,29.7,0.7c-2.2,1.7-4.5,2.7-7,3.3
			C337.4,609.4,303.4,620.4,274.4,644.5z"/>
		<path d="M345.3,363.9c1.1-3.6,2-7.1,3.4-10.5c0.5-1.4,1.8-3.4,2.9-3.5c1.2-0.2,3,1.3,3.8,2.6c5.6,9.2,8.6,19,6.2,30
			c-4.5,20.4-6.3,41.1-5.3,62c0.3,6,2.1,12.1,4.1,17.8c2.8,7.9,1.1,10.5-7.3,9.8c-0.8-0.1-1.8,0-2.5-0.4c-10-5.4-20.2-2-30.1,0
			c-15.5,3-30.8,6.8-46.1,10.7c-5.4,1.4-10.1,1.1-14.6-2c-4.9-3.4-10.2-6.3-14.9-10c-3.7-2.8-4.5-6.4-1.5-10.9
			c1.8-2.7,2.1-6.5,2.5-9.9c2.5-23.2-0.4-46.2-2.2-69.2c-1.1-13.7,3.1-26,13.6-35.5c6-5.4,8.7-4.7,11.8,2.6
			c2.4,5.7,4.8,11.3,6.9,17.1c1.1,2.9,2.6,4,5.9,3.7c15.6-1.5,31.1-2.9,46.7-4.1C334,363.5,339.5,363.9,345.3,363.9z M270.6,378.7
			c-3.8,7.3-5.8,34.6-3.5,40c24.4-2.3,48.4-7.2,73.2-5.4c0.9-12.1,1.8-24,2.8-37c-12.5,1.5-24.5,3-36.5,4.2
			C294.5,381.7,282.3,386.8,270.6,378.7z M266.9,427.6c0,9.1-0.2,17.5,0.1,25.9c0.3,9.1,0.7,9.4,9.8,9.8c20.1,1.1,39.7-3,59.4-6.1
			c1-0.1,2.5-1.5,2.5-2.3c0.6-10.7,1-21.4,1.5-32.7c-10.7,1.9-20.5,4-30.4,5.2C295.5,429.2,281.2,437,266.9,427.6z"/>
		<path d="M287.7,320.5c4.2-0.3,7.4-0.6,11.3-0.9c0-2.1,0-4,0-6c0-35,0-69.9,0-104.9c0-1.7-0.5-3.7,0.3-4.9c1.3-2,3.5-4.6,5.3-4.6
			c1.8,0,3.8,2.8,5.2,4.8c0.7,1,0.2,2.9,0.2,4.4c0,35,0,69.9,0,104.9c0,1.8,0,3.6,0,5.8c4.1,0,7.8,0,12.3,0
			c-5.4,10.7-10.4,20.7-16.1,32C299.9,340.7,294.1,331.1,287.7,320.5z"/>
	</g>
</g>
</svg>
