<?xml version="1.0" encoding="utf-8"?>
<!-- Generator: Adobe Illustrator 22.0.1, SVG Export Plug-In . SVG Version: 6.00 Build 0)  -->
<svg version="1.1" id="Слой_1" xmlns="http://www.w3.org/2000/svg" xmlns:xlink="http://www.w3.org/1999/xlink" x="0px" y="0px"
	 viewBox="0 0 595.3 841.9" style="enable-background:new 0 0 595.3 841.9;" xml:space="preserve">
<style type="text/css">
	.st0{fill:#060606;}
	.st1{fill:#FD0404;}
	.st2{fill:#FC0B0C;}
	.st3{fill:#FD1010;}
</style>
<g>
	<g>
		<path class="st0" d="M497,196.9c-0.6,1.1-1.5,2.1-1.7,3.3c-1.8,10.3-3.5,20.6-5.2,31c-2.2,13.6-4.3,27.2-6.5,40.7
			c-5.1,31.6-10.3,63.1-15.4,94.6c-4.6,28.8-9.3,57.5-13.9,86.3c-2.9,18.5-5.5,37-8.4,55.5c-1.9,12.1-4.3,24.1-6.3,36.2
			c-3,18.8-5.7,37.6-8.7,56.4c-1,6.4-2.3,12.7-3.3,19c-0.5,3.6-2.4,5.3-5.9,6.3c-19.4,5.2-38.8,10.7-58.2,16
			c-20.7,5.7-41.4,11.3-62,16.9c-0.2,0.1-0.4,0.5-0.5,0.7c-2,0-4,0-6,0c-10.6-3.3-21.2-6.8-31.8-10c-29.1-8.7-58.2-17.4-87.4-25.8
			c-5-1.4-7-4-7.7-8.7c-4.6-29.6-9.3-59.3-13.9-88.9c-4.1-26.6-8-53.1-12.1-79.7c-3.2-20.8-6.7-41.5-9.9-62.3
			c-4.5-29-8.7-58.1-13.2-87.1c-2.8-18-6-35.9-8.7-53.9c-2.7-17.7-5.1-35.5-7.7-53.2c-0.5-3.6,0.9-5.4,4.5-5.4c1,0,2,0,3,0
			c123.1,0,246.3,0,369.4,0c5.9,0,11.8,0.6,17.7,0.9C497,189.6,497,193.2,497,196.9z M109.8,192c1.9,13.1,3.8,25.9,5.7,38.6
			c2.4,15.4,5.1,30.7,7.4,46.1c4.9,31.9,9.7,63.9,14.6,95.8c2.5,16.5,5.1,33.1,7.7,49.6c4.8,31.1,9.7,62.2,14.6,93.3
			c2,12.5,4.3,24.9,6.2,37.3c3.1,20.3,6,40.6,9.2,60.9c0.2,1.4,1.8,3.2,3.1,3.6c9,2.7,18.1,5,27.1,7.7c25.5,7.5,51,14.7,76.3,22.9
			c11.2,3.6,21.9,5.8,32.9,0.2c0.6-0.3,1.3-0.2,1.9-0.3c33.6-9.2,67.2-18.4,100.7-27.8c1.5-0.4,3.3-2.5,3.6-4.1
			c2.2-11.7,4-23.5,5.9-35.3c2.4-15.2,4.9-30.4,7.3-45.6c2.5-15.5,4.9-31.1,7.4-46.7c2.5-15.4,5.1-30.7,7.6-46.1
			c2.6-15.8,5.1-31.7,7.7-47.5c2.4-15.2,4.9-30.4,7.3-45.6c2.2-13.6,4.2-27.2,6.4-40.8c2.4-14.9,5.1-29.7,7.5-44.6
			c2.6-16,5.2-32.1,7.7-48.1c1.2-7.8,2.4-15.5,3.7-23.5C362.6,192,236.5,192,109.8,192z"/>
		<path class="st1" d="M325.7,399.9c0,14.2,0,27.3,0,39.8c10.1,0,19.6-0.1,29,0.1c2.7,0.1,5.7,0.8,8.1,2c2.1,1.1,3.6,3.3,5.4,5.1
			c-2,1.4-3.9,3.5-6.1,4c-4.8,1.1-9.9,1.3-14.8,1.9c-6.8,0.8-13.6,1.5-21,2.3c0.6,12.2-1.9,24.7,6.8,35.5c13,1,27.7-5.1,39.1,6.4
			c0,0.6,0,1.2-0.1,1.8c-1.5,0.4-2.9,0.9-4.4,1.1c-28.4,3.6-56.7,7.2-85.1,10.9c-7.3,1-19-4.1-21.6-10.6c16.1-5.2,32.9-5.1,50.6-7.8
			c-8.3-3.3-7.8-8.7-6.3-15.2c1.3-6.1,1.3-12.5,1.9-19.1c-5.6,0.8-10.3,1.2-15.1,2.1c-9.4,1.7-18.1-0.8-26.6-4.5
			c-1.6-0.7-2.7-2.6-4.1-3.9c1.4-1.3,2.6-3.4,4.2-3.8c5.4-1.4,11-2.4,16.6-3.1c8.2-1,16.5-1.5,25.3-2.3c0.5-13.6,1.1-26.8,1.6-40.9
			c-7.5,0.5-14.8,0.7-22,1.5c-14,1.6-28,3.9-42.1,5.3c-11.7,1.1-21.8-3.6-30-11.7c-3.5-3.4-2.4-6.5,2.4-7.4c4.5-0.8,9.3-1.2,13.9-1
			c37.2,1.4,74.3,0,111.3-3.7c10.7-1.1,21.4-3.2,32-5.1c11.5-2.1,20.7,3.3,29.7,9c2.9,1.8,2.1,4.4-1,5.5c-2.1,0.7-4.5,0.9-6.8,1
			C372.7,396.7,349.2,398.3,325.7,399.9z"/>
		<path class="st1" d="M309.2,582.9c11.6-14.4,22.5-29.1,34.5-42.9c20.9-23.9,45.9-42.4,75.3-54.7c5.7-2.4,11.6-4.9,19.8-3.1
			c-48.2,29.1-87.4,65.4-114.8,115.2c6.7,1.5,12.7,2.9,18.8,4.3c2.2,0.5,4.7,0.9,6.5,2.2c1.6,1.1,2.3,3.4,3.4,5.2
			c-1.8,1-3.5,2.7-5.3,2.8c-7,0.4-14,0-21,0.4c-4.5,0.3-7.8-1.1-10.9-4.4c-15.5-15.8-31.2-31.4-46.9-47.1
			c-21.4-21.3-48-33.7-75.9-43.8c-7.7-2.8-15.5-5.2-23-8.2c-2.3-0.9-4-3.4-5.9-5.1c2-1.4,3.9-3.6,6.1-4.1c14.7-3.4,29.6-6.6,44.9-6
			c6.4,0.2,11.7,2.7,16.7,6.8c21.1,17.6,38.1,39.1,56.7,59.1C295.5,567.5,302.6,575.6,309.2,582.9z"/>
		<path class="st2" d="M295,284.7c-21,0-41.5,0-62,0c-1.3,0-2.9,0.4-3.9-0.1c-1.4-0.7-3.7-2.4-3.5-3.2c0.3-1.5,1.9-3.1,3.4-4
			c1-0.6,2.6-0.2,3.9-0.2c22.5,0,45,0,68.2,0c0-1.9,0-3.7,0-5.5c0-21.5,0-43,0-64.5c0-1.5-0.3-3.2,0.2-4.4c0.5-1.2,2-2.7,3-2.7
			c1.3,0.1,2.9,1.4,3.6,2.6c0.6,1.2,0.3,2.9,0.3,4.4c0,21.5,0,43,0,64.5c0,1.6,0,3.3,0,5.5c2.1,0,3.9,0,5.6,0c20.5,0,41,0,61.5,0
			c1.3,0,3-0.4,3.9,0.2c1.5,0.9,3.1,2.5,3.4,4c0.2,0.9-2.1,3-3.5,3.2c-3.6,0.5-7.3,0.2-11,0.2c-17.5,0-35,0-53.5,0
			c7.2,6.4,13.7,12.1,20.2,17.9c8.3,7.4,16.7,14.7,24.9,22.2c1.1,1,0.7,3.5,1.1,5.3c-1.9,0.1-4.6,1-5.7,0.1
			c-7.4-5.9-14.4-12.2-21.5-18.5c-8.1-7.1-16.1-14.4-24.8-22.2c-0.2,2.2-0.4,3.4-0.4,4.6c0,15.8,0,31.7,0,47.5
			c0,1.2,0.4,2.6-0.1,3.4c-0.9,1.5-2.4,2.6-3.6,3.9c-1.1-1.2-2.5-2.3-3.3-3.7c-0.5-1.1-0.1-2.6-0.1-3.9c0-16.5,0-33,0-50.1
			c-1.5,0.9-2.6,1.4-3.5,2.2c-12.7,11.2-25.4,22.5-38.1,33.8c-1.5,1.3-3,3-4.7,3.5c-1.6,0.5-3.5-0.4-5.3-0.7c0.3-1.7,0-3.9,1-4.9
			c7.8-7.2,15.8-14.2,23.7-21.3c6.6-5.8,13.2-11.5,19.8-17.3C294.3,286.1,294.5,285.5,295,284.7z"/>
		<path class="st3" d="M162.4,230.8c8.1-8.3,16.2-16.6,24.4-25.1c2.5,2.3,1.2,4.1-0.6,6.1c-6.8,7.3-13.5,14.6-20.6,22.4
			c6.1,6.1,13.2,13.2,20.3,20.3c1.9,1.9,3.3,3.7,1.3,6.2c-7.1-7.4-14-14.7-20.9-21.9c-0.8,0.5-1.5,0.9-2.3,1.4c0,5.7,0,11.3,0,17
			c0,1.3,0.3,2.8-0.1,4c-0.4,1.1-1.6,2-2.4,2.9c-0.6-1-1.8-1.9-1.8-2.9c-0.2-7.3-0.1-14.6-0.1-23.3c-8.5,8.4-16.2,16-24,23.7
			c-3-3.1-1.5-4.9,0.3-6.9c6.9-7.4,13.8-14.8,20.9-22.4c-5.7-5.7-12.4-12.5-19.1-19.3c-0.8-0.8-2-1.5-2.4-2.5
			c-0.6-1.3-0.7-2.9-1-4.4c1.3,0.4,2.9,0.4,3.8,1.2c7,6.6,13.8,13.4,20.7,20.1C159.6,228.2,160.5,229,162.4,230.8z"/>
	</g>
</g>
</svg>
