<?xml version="1.0" encoding="utf-8"?>
<!-- Generator: Adobe Illustrator 22.0.1, SVG Export Plug-In . SVG Version: 6.00 Build 0)  -->
<svg version="1.1" id="Слой_1" xmlns="http://www.w3.org/2000/svg" xmlns:xlink="http://www.w3.org/1999/xlink" x="0px" y="0px"
	 viewBox="0 0 595.3 841.9" style="enable-background:new 0 0 595.3 841.9;" xml:space="preserve">
<style type="text/css">
	.st0{fill:#060606;}
	.st1{fill:#FD0304;}
	.st2{fill:#FC0B0C;}
	.st3{fill:#FD191A;}
</style>
<g>
	<g>
		<path class="st0" d="M299.1,185c63.2,0,126.3,0,189.5,0c2.1,0,4.6-0.1,6.2,0.9c1.4,0.8,2.7,3.3,2.5,4.8
			c-4.6,29.1-9.5,58.2-14.3,87.3c-4.8,28.8-9.6,57.5-14.3,86.3c-4.9,29.8-9.7,59.5-14.5,89.3c-2.6,15.9-5.1,31.7-7.6,47.6
			c-4.8,29.6-9.6,59.2-14.4,88.8c-1.5,9.4-3,18.9-4.2,28.4c-0.6,5.2-3.5,7.2-8.1,8.5c-28,7.6-56,15.3-84.1,23
			c-11.3,3.1-22.5,6.3-33.9,8.9c-3.2,0.7-6.9,0.3-10.1-0.6c-21.7-6.3-43.4-12.8-65.1-19.2c-16.9-5-33.8-10.2-50.8-14.8
			c-5.3-1.4-7.2-4.2-7.9-9.1c-4.2-27.4-8.6-54.7-12.8-82.1c-2.8-18.3-5.4-36.7-8.2-55c-2.1-13.6-4.5-27.1-6.7-40.7
			c-2.5-16-4.8-32.1-7.3-48.2c-2.5-16.2-5.1-32.4-7.6-48.6c-2.5-15.9-4.9-31.8-7.3-47.7c-2.5-16.2-5.2-32.4-7.7-48.6
			c-2.8-18.2-5.3-36.4-8-54.6c-0.4-2.9,1-4.4,3.9-4.6c1.2-0.1,2.3,0,3.5,0C172.8,185,235.9,185,299.1,185z M109.9,192.1
			c1.9,12.8,3.6,25.4,5.5,37.9c4.9,31.9,9.9,63.8,14.8,95.8c5,32.4,10.1,64.8,15.1,97.3c4.6,30,9.2,59.9,13.9,89.9
			c5.2,33.4,10.5,66.8,15.6,100.2c0.4,2.9,1.7,4,4.1,4.6c9,2.6,18.1,5,27.1,7.7c29.9,8.8,59.8,17.7,89.7,26.5c1.8,0.5,3.9,0.4,5.7,0
			c14.7-3.9,29.3-8,43.9-12.1c24-6.6,48.1-13.2,72.1-20c1.3-0.4,3.1-2,3.3-3.3c4.2-25.7,8.1-51.4,12.3-77.2
			c3.2-19.9,6.7-39.8,9.8-59.7c4.5-27.8,8.7-55.7,13.2-83.5c4.9-30.1,9.9-60.1,14.9-90.2c4-24,7.9-48,11.8-72.1
			c2.2-13.9,4.3-27.8,6.5-41.9C362.7,192.1,236.4,192.1,109.9,192.1z"/>
		<path class="st1" d="M296.4,453.4c-10.6,1.8-19.9,3.8-29.3,4.8c-9.4,1-18.5-1.4-26.8-6.1c-3.4-1.9-3.2-4.6,0-6
			c4.5-1.9,9.4-3.5,14.2-4.1c13.8-2,27.7-3.4,42-5.1c0.6-12.3,1.1-24.2,1.7-36.5c-1.4-0.1-2.5-0.3-3.6-0.2
			c-29.4,2.5-58.7,5-88.1,7.7c-12.4,1.2-22.3-3.9-31.1-11.9c-1.7-1.6-3.1-5.5-2.3-7.4c0.7-1.8,4.4-3.5,6.8-3.5c11,0,22,0.6,33,0.9
			c36.9,1,73.6-1.2,110.3-5c25-2.5,49.7-6.8,74.6-9.9c4-0.5,8.7,0.3,12.4,2c5.5,2.6,10.5,6.4,15.3,10.2c3.6,2.8,2.7,5.4-1.8,6.4
			c-1.3,0.3-2.6,0.2-4,0.3c-23.7,1.8-47.5,3.6-71.2,5.5c-10.4,0.8-20.8,1.9-31.1,2.8c0,11.7,0,23.1,0,34.9c10.8-0.9,21-2.3,31.2-2.5
			c6.7-0.1,13.5,1.3,20,2.8c2,0.5,3.4,3.5,5.1,5.3c-2.1,1.4-4.1,3.7-6.4,4c-13,2-26.1,3.5-39.1,5.2c-3.3,0.4-6.5,1-10.4,1.6
			c1.6,12.2-1.8,24.9,6.2,35.9c2.5,3.5,0,8.1-4.3,8.4c-8.5,0.6-16.5-1.7-23.7-6.3c-4-2.6-3.7-6.6-3.1-10.7
			C294.4,469.4,295.3,461.8,296.4,453.4z"/>
		<path class="st1" d="M300.1,556.7c0-12.7,0-24.9,0-37.6c-9,1.1-18.4,2.1-27.7,3.3c-15.3,2-30.6,4.7-46,6.1c-11,1-19.8-4.6-27-12.6
			c-2.2-2.5-1.2-4.7,1.8-5.8c2-0.7,4.2-1.1,6.3-1.2c34.4-2.1,68.9-3.5,103.2-6.3c22.7-1.8,45.3-5.3,67.9-8.3
			c10.2-1.3,18.5,2.8,26.7,7.8c1,0.6,1.5,2,3.2,4.4c-30.3,5-59.8,6.2-88.5,10.4c0,12.7,0,25,0,36.8c13.5-0.3,26.3-1.1,39.1-0.6
			c4.7,0.2,9.4,3.3,14,5.4c1,0.5,2,2.6,1.8,3.7c-0.2,0.9-2.2,1.8-3.5,1.9c-11.9,1.4-23.8,2.5-35.7,3.9c-4.9,0.6-9.8,1.4-14,1.9
			c0,15-0.3,29.5,0.2,43.9c0.1,4.1,3,8,4.2,12.1c0.7,2.2,1.6,5.1,0.7,6.8c-0.9,1.7-4.1,3.4-6,3c-6.6-1.2-13.3-2.7-19.6-5
			c-4.8-1.8-6.1-5.8-5.5-11.4c1.8-15,2.8-30.1,4.2-46.5c-12,2.5-22.8,4-33.2,7.2c-9.7,3-18,1.3-26.1-3.6c-2.1-1.3-3.3-4.1-4.9-6.2
			c2-1.3,3.8-3.4,6-3.8c16.5-3.1,33.1-5.8,49.6-8.6C293.8,557.4,296.4,557.1,300.1,556.7z"/>
		<path class="st2" d="M301,277.2c0-6.3,0-12.1,0-17.9c0-17.5,0-35,0-52.5c0-2.9-0.8-6.8,3.7-6.7c4,0.1,3.4,3.8,3.4,6.5
			c0,21.5,0,43,0,64.5c0,1.8,0,3.6,0,5.8c2.1,0.1,3.8,0.2,5.6,0.2c20.5,0,41,0,61.5,0c1.3,0,3-0.4,3.9,0.2c1.5,0.9,3.1,2.4,3.4,4
			c0.2,0.9-2.1,2.9-3.5,3.2c-2.6,0.5-5.3,0.2-8,0.2c-18.5,0-37,0-56.6,0c7.2,6.4,13.6,12.1,20.1,17.8c8.3,7.4,16.7,14.7,24.9,22.2
			c1.1,1,0.8,3.5,1.1,5.3c-1.9,0.1-4.6,1.1-5.7,0.1c-7.5-6.1-14.6-12.5-21.8-18.9c-8-7.1-16-14.2-25-22.1c0,17.2,0,33,0,48.8
			c0,1.8-0.1,3.7,0,5.5c0.1,2.7-0.4,5.4-3.7,5.3c-3.4-0.1-3.5-2.9-3.4-5.6c0-17.2,0-34.3,0-52.4c-1.8,1.3-3.1,2.1-4.2,3.1
			c-12.6,11.1-25,22.4-37.7,33.4c-2.5,2.1-5.6,6.7-9.1,2.8c-3.6-4,1.5-6,3.8-8.1c7.3-6.7,14.8-13.3,22.3-19.9
			c6.3-5.6,12.5-11.2,19.7-17.5c-2.6,0-4.4,0-6.1,0c-19.5,0-39,0.1-58.5-0.1c-1.9,0-5.1-1.5-5.4-2.8c-1-4.2,2.3-4.6,5.6-4.6
			c20.3,0,40.7,0,61,0C294.9,277.2,297.6,277.2,301,277.2z"/>
		<path class="st3" d="M163.8,202.9c0.3,1.8,0.6,3.5,0.8,5.3c0.8,7.4,0.9,14.9,2.5,22.2c1.6,7.4,6.2,13.5,12.2,18.4
			c1.4-1.2,2.6-2.2,4.2-3.7c1.4,5,2.7,9.5,4.3,14.9c-5.3-1.5-9.8-2.8-14.6-4.2c1.4-1.7,2.4-3,3.1-3.7c-4.7-7.3-9.2-14.3-13.2-20.6
			c-4,6.3-8.5,13.3-13.2,20.7c0.6,0.7,1.6,2,3.1,3.7c-4.9,1.4-9.4,2.7-14.6,4.3c1.5-5.3,2.8-9.9,4.2-14.8c1.6,1.4,2.8,2.4,4.3,3.6
			c6.8-5.6,11.5-12.7,13.1-21.2c1.5-8.1,1.6-16.4,2.4-24.6C162.7,202.9,163.3,202.9,163.8,202.9z"/>
	</g>
</g>
</svg>
