<?xml version="1.0" encoding="utf-8"?>
<!-- Generator: Adobe Illustrator 22.0.1, SVG Export Plug-In . SVG Version: 6.00 Build 0)  -->
<svg version="1.1" id="Слой_1" xmlns="http://www.w3.org/2000/svg" xmlns:xlink="http://www.w3.org/1999/xlink" x="0px" y="0px"
	 viewBox="0 0 595.3 841.9" style="enable-background:new 0 0 595.3 841.9;" xml:space="preserve">
<style type="text/css">
	.st0{fill:#060606;}
	.st1{fill:#FD0404;}
	.st2{fill:#FD0000;}
	.st3{fill:#FC0B0C;}
	.st4{fill:#FD0506;}
</style>
<g>
	<g>
		<path class="st0" d="M299.2,185c63.2,0,126.3,0,189.5,0c2,0,4.3-0.2,5.7,0.8c1.4,1,3,3.5,2.7,5.1c-4.6,29-9.4,57.9-14.2,86.9
			c-2.5,15.2-5.2,30.3-7.6,45.5c-2.5,15.7-4.8,31.5-7.4,47.2c-2,12.6-4.3,25.1-6.3,37.7c-3,18.5-5.7,37-8.7,55.4
			c-2,12.4-4.3,24.8-6.3,37.3c-4.9,29.8-9.7,59.5-14.5,89.3c-1.5,9.4-3,18.9-4.2,28.4c-0.6,4.9-3.3,7-7.7,8.2
			c-28,7.6-56,15.3-84.1,23c-10.5,2.9-20.9,6.1-31.5,8.5c-4.1,0.9-8.9,0.8-13-0.3c-21.8-6.1-43.4-12.7-65.1-19.1
			c-16.9-5-33.8-10.2-50.8-14.8c-5-1.4-7-4-7.7-8.7c-4.6-29.6-9.3-59.3-13.9-88.9c-4.1-26.6-8-53.1-12.1-79.7
			c-3.2-20.8-6.7-41.5-9.9-62.3c-4.5-29-8.7-58.1-13.2-87.1c-2.8-18-6-35.9-8.7-53.9c-2.7-17.7-5.1-35.5-7.7-53.2
			c-0.5-3.6,0.7-5.5,4.4-5.4c1,0,2,0,3,0C172.9,185,236.1,185,299.2,185z M109.9,192c1.8,12.7,3.5,25,5.4,37.3
			c5.1,32.9,10.2,65.8,15.4,98.7c2,12.6,4.3,25.2,6.3,37.8c2.9,19.2,5.6,38.4,8.5,57.5c4.5,29.8,9.2,59.6,13.8,89.4
			c5.2,33.6,10.5,67.1,15.9,100.7c0.3,1.6,2.1,3.7,3.7,4.2c9.4,3,19,5.5,28.5,8.2c24.4,7.1,49,13.4,73.1,21.6
			c12.3,4.2,23.3,4.4,35.8,0.7c33.5-10,67.4-18.8,101.2-28c2.6-0.7,3.3-1.8,3.7-4.3c1.6-11.5,3.4-23,5.3-34.5
			c2.5-15.5,5.1-31,7.7-46.6c2.6-15.7,5.1-31.4,7.6-47.1c2.5-15.2,4.9-30.4,7.4-45.6c2.5-15.5,4.8-31.1,7.3-46.6
			c2.5-15.7,5.1-31.4,7.7-47.1c2.3-13.7,4.6-27.5,6.9-41.2c2.4-14.6,4.7-29.1,7.1-43.7c2.6-16,5.2-32.1,7.7-48.1
			c1.2-7.7,2.4-15.5,3.6-23.4C362.5,192,236.4,192,109.9,192z"/>
		<path class="st1" d="M307.2,456c6.4,6.2,8.9,14,8.5,22.6c-0.9,20-2.2,39.9-3.2,59.8c-0.2,4.1,0,8.1,0,13.7
			c29-40,64-69.4,112.2-79.9c-36.5,28.1-74.7,54.1-100.1,95.9c10.7-1.4,19.9-2.5,29.1-3.8c7.7-1.1,15.5-2.3,23.2-3.5
			c9.9-1.5,18.2,2.4,26.4,7.2c0.7,0.4,1.3,1.1,1.8,1.7c0.4,0.5,0.6,1.1,1.2,2.1c-5.6,3.9-12.1,3.3-18.2,4
			c-24.5,2.9-48.9,5.6-73.4,8.4c-0.7,0.1-1.3,0.3-2.6,0.6c0.7,16.1-1.7,32.4,4.4,48.1c1.9,4.9,1,6.6-4.4,6.2
			c-4.1-0.3-8.2-1.2-12-2.7c-7.9-3-9.6-6.6-8.5-15.1c1.5-11.3,2.8-22.7,4.3-34.8c-12.2,1.7-23.4,3.1-34.5,4.7
			c-7.1,1-14.1,2.3-21.2,3.3c-11.9,1.8-21.5-2.8-29.7-11c-3.8-3.8-2.8-6.9,2.7-7.8c4.7-0.8,9.6-0.8,14.4-1.1
			c22.4-1.2,44.8-2.3,67.5-3.5c0-6.8,0-12.7,0-18.9c-10.7-2.9-21.5-5.2-32-8.7c-14.6-4.8-29.2-10-43.5-16
			c-12.7-5.4-22.3-14.4-26-28.4c-1.8-6.9,1.1-10.9,8.2-10.5c3.7,0.2,7.8,1.1,10.8,3.1c15.4,9.8,30.6,20.1,45.9,30.1
			c10.3,6.7,20.8,13.1,31.3,19.6c1.5,0.9,3.2,1.6,5.6,2.8c0-2.4,0-4.2,0-5.9c0-19.3,0-38.7,0-58c0-8.8,1.3-17.2,7.8-23.9
			C304.5,456.4,305.8,456.2,307.2,456z"/>
		<path class="st2" d="M307.2,456c-1.4,0.2-2.7,0.5-4.1,0.7c-16.4,2.5-32.8,5.1-49.2,7.4c-4.5,0.6-10.1,2-13.6,0.1
			c-7.3-4-13.6-9.9-20-15.3c-0.9-0.8-1-4.1-0.1-5.3c8-11.4,9.4-25,12.8-37.9c0.4-1.6,0.8-3.2,1.2-4.8c0.2-0.6,0.4-1.1,0.6-1.7
			c0.8-4.7,1.7-9.4,2.6-14.8c0.3,0.6,0.2,0.2,0,0c-1.5-2.4-3-4.8-4.5-7.2c2.5-0.5,5-1.3,7.5-1.4c30.1-1.8,60.2-3.6,90.3-5.3
			c5.1-0.3,10.3-0.5,15.5-0.8c0.1-0.1,0.4-0.3,0.6-0.6c1.8-2.6,3.5-5.2,5.2-7.9c2.3,2.1,5.9,3.9,6.8,6.5c2.4,6.8,3.9,14,5.3,21.1
			c2.8,14,4.7,28.2,8.3,42c1.4,5.6,6.3,10.2,9.4,15.4c0.9,1.5,2.4,3.7,1.9,4.9c-0.5,1.3-3,2.8-4.6,2.7c-5.1-0.3-10.1-2-15.1-1.7
			C345,453,326.1,454.6,307.2,456z M312.7,444.2c0.4,0,0.8-0.1,1.3-0.1c13.6-1.5,27.2-3,41.4-4.6c-3-18.6-6-36.7-9-55.2
			c-2.1,0-4.2,0-6.3,0c-2.4-3.1-4.7-8.5-7.3-8.7c-7.6-0.5-15.4,1.1-23,1.8c3.4,4.4,8.6,3.9,13.9,3.1c4.3-0.7,8,0.1,10.3,4.2
			c-8.7,0.6-17.3,1.3-26,1.9c-0.3,0-0.6,0.1-1,0.1c-3,0.3-6,0.5-9.1,0.8c-0.3,0-0.6,0.1-0.9,0.1c-12.9,1.4-25.7,2.7-39.6,4.2
			c-1.5,16.5-3,33.2-4.6,49.9c-0.3,3.5,1.6,5.5,4.7,6c4.1,0.6,8.2,0.6,12.4,0.9c1-0.2,2.1-0.3,3.1-0.5c12-1.1,24-2.2,36-3.2
			c0.8,0.9,1.7,1.7,2.5,2.6c0.3-1.1,0.5-2.1,0.8-3.2C312.3,444.3,312.7,444.2,312.7,444.2z M248,414.9c3.1-2,3.1-4,0-6
			c0-5.6,0-11.1-1.4-17.1c-4.9,5.7,0,14.2-8.1,17.5c-0.5,0.2-0.6,1.9-0.5,2.8c0.6,3.5,1.3,6.9,2.1,10.5c-6.4,0.9-3.5,5.9-4.2,9.4
			c-0.5,0.3-1,0.5-1.6,0.8c0.5,0.4,1,0.8,1.6,1.2c0.2,2.5-0.1,4.5-2.8,6.2c-2.6,1.6-3.7,4.4,0.1,6.5c0.7,0.4,1.4,1,1.8,1.6
			c4.3,7.2,10.7,10.4,18.9,10.6c0.7-0.3,1.3-0.7,2-1c-2.8-3.3-9.8-2.7-8.5-8.5c-2.5-1.8-5.2-2.8-6-4.6c-0.6-1.3,0.6-4.7,2-5.5
			c5-3.1,4.8-7.6,4.6-12.5C247.9,422.8,248,418.9,248,414.9z M359.7,392.5c-0.5,0-1,0-1.6,0c0,2.4-0.1,4.8,0,7.1
			c0.1,1.8,1.3,4.1,0.5,5.2c-3,4.4-1.5,9.2-1.5,13.8c0,1.6,1.3,3.2,2.1,4.8c0.6-1.7,1.5-3.4,1.7-5.1c0.1-1.2-0.7-2.5-1-3.8
			c-0.3-1.4-1-3.3-0.4-4.2C363.8,404.3,360,398.4,359.7,392.5z M249.7,385.2c0,0.6,0.1,1.2,0.1,1.8c3.9-0.5,7.8-0.9,11.7-1.4
			c-0.1-0.5-0.1-1.1-0.2-1.6C257.4,384.4,253.6,384.8,249.7,385.2z M304.9,378.6c0-0.7-0.1-1.5-0.1-2.2c-1.3,0.1-2.6,0.2-3.9,0.5
			c-0.2,0,0,1.4-0.1,2.1C302.1,378.8,303.5,378.7,304.9,378.6z"/>
		<path class="st3" d="M314.6,284.7c10.9,9.7,21,18.7,31.1,27.7c4.5,4,9.2,7.7,13.3,12c1.2,1.3,1,3.9,1.4,5.9
			c-2-0.1-4.6,0.6-5.8-0.3c-7.4-6.1-14.6-12.6-21.8-18.9c-7.9-7-15.9-14-24.8-21.8c0,12.8,0,24.2,0,35.6c0,6.2,0,12.3,0,18.5
			c0,2.7-0.2,5.4-3.6,5.5c-3.4,0-3.6-2.7-3.6-5.4c0-16.5,0-33,0-49.5c0-0.8-0.1-1.5-0.2-3.3c-3.4,2.8-6.2,5-8.9,7.4
			c-10.9,9.7-21.8,19.5-32.7,29.3c-1.5,1.3-3,2.9-4.8,3.5c-1.4,0.5-4,0.1-4.7-0.8c-0.7-1-0.4-3.8,0.5-4.7
			c7.7-7.3,15.7-14.3,23.7-21.3c6.9-6.1,13.9-12.2,21.5-18.8c-2-0.1-3.4-0.3-4.7-0.3c-19.3,0-38.7,0-58,0c-1.2,0-2.6,0.4-3.4-0.1
			c-1.5-0.9-2.7-2.4-4-3.6c1.3-1.3,2.4-3.2,3.9-3.7c2-0.6,4.3-0.2,6.4-0.2c19.8,0,39.7,0,59.5,0c1.8,0,3.6,0,5.9,0c0-2.2,0-4,0-5.7
			c0-21.5,0-43,0-64.5c0-1.3-0.4-2.9,0.2-3.9c0.7-1.3,2.2-2.9,3.4-2.9c1.2,0,2.7,1.6,3.4,2.9c0.6,1,0.2,2.6,0.2,3.9
			c0,21.5,0,43,0,64.5c0,1.8,0,3.6,0,5.7c9.5,0,18.5,0,27.4,0c13.3,0,26.7,0,40,0c3.1,0,7.2-0.8,7.1,3.9c-0.1,4.4-4,3.6-6.9,3.6
			c-18.5,0-37,0-55.5,0C318.6,284.7,317.1,284.7,314.6,284.7z"/>
		<path class="st4" d="M157.2,262c2.1,0.1,3.9,0.2,6.3,0.4c-2.7,5.5-5.2,10.6-8.1,16.5c-3.2-5.5-6.1-10.4-9.2-15.7
			c2.2-0.3,3.6-0.4,5.7-0.7c0-1.8,0-3.6,0-5.4c0-17,0-33.9,0-50.9c0-1.2-0.3-2.5,0.1-3.5c0.5-1.4,1.6-2.5,2.5-3.7
			c0.9,1.3,2.1,2.5,2.8,3.9c0.4,0.8,0.1,2,0.1,3c0,17,0,33.9,0,50.9C157.2,258.5,157.2,260.2,157.2,262z"/>
		<path class="st1" d="M234.7,399.2c-0.2,0.6-0.4,1.1-0.6,1.7C234.4,400.3,234.6,399.7,234.7,399.2z"/>
		<path class="st2" d="M236,431.9c0.6-3.5-2.2-8.5,4.2-9.4c-0.7-3.6-1.5-7-2.1-10.5c-0.2-0.9,0-2.6,0.5-2.8
			c8.1-3.2,3.2-11.8,8.1-17.5c1.3,6,1.4,11.5,1.4,17.1c0,2,0,4,0,6c0,4-0.1,7.9,0,11.9c0.2,4.8,0.4,9.4-4.6,12.5
			c-1.4,0.8-2.6,4.2-2,5.5c0.8,1.8,3.5,2.8,6,4.6c-1.3,5.7,5.8,5.1,8.5,8.5c-0.7,0.3-1.3,0.7-2,1c-8.2-0.2-14.6-3.5-18.9-10.6
			c-0.4-0.7-1.1-1.3-1.8-1.6c-3.8-2.1-2.7-4.9-0.1-6.5c2.7-1.7,3-3.6,2.8-6.2C236,433.2,236,432.6,236,431.9z"/>
		<path class="st2" d="M340.1,384.3c-2,0.1-4.1,0.3-6.1,0.4c-2.3-4.1-6-4.9-10.3-4.2c-5.2,0.8-10.4,1.3-13.9-3.1
			c7.6-0.7,15.4-2.3,23-1.8C335.4,375.7,337.7,381.2,340.1,384.3z"/>
		<path class="st2" d="M359.7,392.5c0.3,5.9,4.1,11.8-0.2,17.9c-0.6,0.9,0.2,2.8,0.4,4.2c0.3,1.3,1.1,2.6,1,3.8
			c-0.2,1.8-1.1,3.4-1.7,5.1c-0.7-1.6-2.1-3.2-2.1-4.8c0-4.6-1.5-9.4,1.5-13.8c0.8-1.1-0.4-3.5-0.5-5.2c-0.1-2.4,0-4.8,0-7.1
			C358.6,392.5,359.2,392.5,359.7,392.5z"/>
		<path class="st2" d="M249.7,385.2c3.9-0.4,7.7-0.8,11.6-1.2c0.1,0.5,0.1,1.1,0.2,1.6c-3.9,0.5-7.8,0.9-11.7,1.4
			C249.8,386.4,249.7,385.8,249.7,385.2z"/>
		<path class="st2" d="M304.9,378.6c-1.4,0.1-2.7,0.2-4.1,0.4c0-0.7-0.1-2,0.1-2.1c1.3-0.3,2.6-0.4,3.9-0.5
			C304.8,377.1,304.8,377.9,304.9,378.6z"/>
		<path class="st2" d="M248,414.9c0-2,0-4,0-6C251.1,410.9,251.1,412.9,248,414.9z"/>
		<path class="st2" d="M309,444.9c1.1-0.2,2.2-0.4,3.3-0.6c-0.3,1.1-0.5,2.1-0.8,3.2C310.7,446.6,309.8,445.7,309,444.9z"/>
		<path class="st1" d="M269.9,448.6c1-0.2,2.1-0.3,3.1-0.5C272,448.3,270.9,448.4,269.9,448.6z"/>
		<path class="st2" d="M236,431.9c0,0.7,0,1.3,0,2c-0.5-0.4-1-0.8-1.6-1.2C235,432.4,235.5,432.1,236,431.9z"/>
		<path class="st2" d="M254,458.9c0.7-0.3,1.3-0.7,2-1C255.3,458.2,254.7,458.6,254,458.9z"/>
		<path class="st1" d="M308,386.6c-0.3,0-0.6,0.1-1,0.1C307.3,386.7,307.7,386.7,308,386.6z"/>
		<path class="st1" d="M298,387.5l-0.4,0.2c0,0-0.5-0.1-0.5-0.1C297.3,387.6,297.6,387.6,298,387.5z"/>
		<path class="st1" d="M312.7,444.2c0.4,0,0.8-0.1,1.3-0.1C313.6,444.1,313.1,444.1,312.7,444.2z"/>
	</g>
</g>
</svg>
