<?xml version="1.0" encoding="utf-8"?>
<!-- Generator: Adobe Illustrator 22.0.1, SVG Export Plug-In . SVG Version: 6.00 Build 0)  -->
<svg version="1.1" id="Слой_1" xmlns="http://www.w3.org/2000/svg" xmlns:xlink="http://www.w3.org/1999/xlink" x="0px" y="0px"
	 viewBox="0 0 595.3 841.9" style="enable-background:new 0 0 595.3 841.9;" xml:space="preserve">
<g>
	<g>
		<path d="M495,183.9c3.4,1.8,3.8,4.3,3,8.1c-2.6,12.5-4.7,25.1-6.8,37.7c-2.3,13.6-4.3,27.2-6.5,40.8
			c-5.1,31.6-10.3,63.2-15.4,94.8c-4.6,28.7-9.2,57.3-13.8,86c-5,31.3-10.2,62.6-15.2,93.9c-3.8,24.1-7.6,48.1-11.2,72.2
			c-0.8,5.1-3.5,7.2-8.2,8.5c-34.2,9.2-68.5,18.1-102.5,28.2c-13,3.9-24.7,3.9-37.6-0.3c-34.4-11-69.2-20.8-103.9-30.7
			c-5.3-1.5-7.2-4.3-7.9-9.2c-4.2-27.4-8.6-54.8-12.9-82.2c-4.4-28.7-8.7-57.4-13.2-86.1c-3.2-20.6-6.6-41.3-9.8-61.9
			c-4.1-26.6-8.1-53.2-12.2-79.8c-3.2-20.5-6.7-40.9-9.8-61.4c-2.7-17.6-5.2-35.2-7.5-52.8c-0.3-1.9,0.9-3.9,1.4-5.9
			C235,183.9,365,183.9,495,183.9z M110.8,191.1c2,13.4,3.8,26.2,5.8,39c4.8,31.5,9.7,62.9,14.6,94.4c5.1,32.8,10.2,65.6,15.3,98.4
			c4.6,29.7,9.1,59.4,13.7,89c5.2,33.5,10.4,66.9,15.8,100.3c0.3,1.6,2,3.8,3.6,4.3c9,2.8,18.1,5.1,27.2,7.8
			c29.7,8.8,59.3,17.7,89.1,26.4c2.2,0.6,4.9,0.6,7.2,0c14.6-3.9,29.1-8,43.6-12c23.8-6.6,47.6-13,71.4-19.7
			c1.5-0.4,3.5-2.2,3.7-3.6c3.2-18.6,6.2-37.3,9.2-56c3.8-23.8,7.4-47.6,11.2-71.3c2.5-15.4,5.3-30.7,7.8-46.1
			c4.8-30,9.4-60,14.2-90c3.5-21.9,7.3-43.8,10.9-65.8c4-24.2,7.9-48.5,11.9-72.7c1.2-7.4,2.2-14.9,3.4-22.5
			C363.5,191.1,237.4,191.1,110.8,191.1z"/>
		<path d="M298.6,421c-7.5,0.4-14.8,0.4-22,1.1c-24.8,2.6-49.6,6.1-74.4,8.1c-12.9,1.1-24.4-4.3-33.4-13.8c-3.5-3.7-2.3-6.8,2.8-7.8
			c4.8-1,9.9-1.5,14.8-1.4c49.8,1.6,99.6,0.3,149.3-3.8c22-1.8,43.8-6,65.7-9.2c12.8-1.8,23.3,3.8,33.3,10.6c2.9,2,2,4.8-1.3,6.1
			c-1.8,0.7-3.9,0.9-5.8,1.1c-31.4,2.2-62.8,4.4-94.1,6.5c-5,0.3-10,0.7-14.8,1.1c0,24.4,0,48.6,0,73.3c9.6-0.6,18.4-1.5,27.2-1.5
			c7.9,0,15.9,0.5,23.8,1.5c4.7,0.6,8.4,3.7,10.9,9.7c-20.7,2-40.9,4-62,6.1c1,15.6,1.9,30.5,3.1,45.4c0.5,6.5,1.1,13.1,6.2,18
			c1.4,1.4,3.7,2.5,5.6,2.5c12.3-0.1,24.6-1.2,36.9-0.7c5.1,0.2,10.3,3.1,15.1,5.3c1.7,0.8,2.6,3.2,4.6,5.8
			c-3.1,0.8-5.2,1.6-7.4,1.9c-30.4,4-60.7,7.7-91,12c-11,1.6-21.8,4.4-32.7,7c-11,2.7-19.9-2.2-28.2-8c-3.8-2.7-2.7-6.8,2.1-8
			c9.5-2.4,19.1-4.5,28.8-6.1c12.6-2.1,25.4-3.5,38.1-5.2c0.6-0.1,1.2-0.4,2.1-0.8c-2.9-1.8-5.5-3.2-7.8-5.1
			c-4.7-3.8-4.6-7.2-2.3-12.6c2.2-5.3,3.7-11,4.5-16.7c1.5-10.3,2.3-20.7,3.5-32.2c-11.5,2-21.6,2.9-31.3,5.5
			c-10.8,2.9-20.6,2.3-30.2-3.5c-1.1-0.7-2.4-1.3-3.3-2.2c-3.6-3.2-3-6.4,1.7-7.4c9.4-1.9,19-3.5,28.5-4.9c11-1.5,22.1-2.6,33.5-4
			C298.6,470.3,298.6,445.9,298.6,421z"/>
		<path d="M309,290.3c0,18,0,34.8,0,51.6c0,2.8,0.5,5.8-0.2,8.5c-0.5,2-2.4,3.6-3.7,5.4c-1.3-1.8-3.8-3.5-3.8-5.3
			c-0.4-11.5-0.2-23-0.2-34.5c0-7.8,0-15.6,0-24.3c-1.8,1.3-3.1,1.9-4.1,2.8c-14.1,12.4-28.1,24.9-42.2,37.4c-1.5,1.3-3,3-4.7,3.6
			c-1.7,0.5-3.9-0.3-5.8-0.5c0.3-1.9,0-4.6,1.1-5.7c8.6-8,17.5-15.8,26.4-23.6c7.5-6.7,15.1-13.3,23.4-20.6c-2.4-0.1-4-0.3-5.5-0.3
			c-21.5,0-43,0-64.5,0c-1.5,0-3.2,0.4-4.4-0.3c-1.4-0.7-3.4-2.6-3.2-3.6c0.4-1.7,2-3.5,3.5-4.6c0.9-0.7,2.6-0.2,3.9-0.2
			c20.5,0,41,0,61.5,0c1.6,0,3.3,0,6.3,0c-6-4.9-11-9.1-16-13.2c-10-8-20-16-30-24c-2.1-1.6-4.4-3.3-2.4-6c2-2.7,4.7-1.8,7,0
			c7.6,6,15.2,11.9,22.7,17.9c8.7,6.9,17.3,13.9,26.8,21.5c0.1-3,0.3-4.8,0.3-6.5c0-20.3-0.1-40.7,0.2-61c0-2,1.7-5.4,3.1-5.7
			c4.1-0.9,4.6,2.4,4.6,5.7c0,20.5,0.1,41,0.1,61.5c0,1.8,0,3.6,0,7c5.6-4.5,10.2-8.1,14.8-11.8c11.8-9.4,23.6-18.9,35.5-28.3
			c0.9-0.7,2-1.7,3-1.7c1.7,0.1,4,0.4,4.7,1.5c0.6,0.9-0.1,3.7-1.1,4.6c-4.6,4.1-9.5,7.8-14.3,11.7c-10.6,8.5-21.3,17-32.9,26.3
			c2.6,0.1,4.3,0.3,6,0.3c19.8,0,39.7,0,59.5,0c1.5,0,3.4-0.4,4.4,0.4c1.4,1.1,2.7,2.9,3,4.6c0.1,1-1.6,2.7-2.9,3.4
			c-1.2,0.6-2.9,0.4-4.4,0.4c-20.7,0-41.3,0-62,0c-1.6,0-3.2,0-4.9,0c-0.5,0.6-1,1.3-1.5,1.9c1.3,0.6,2.9,0.9,3.9,1.8
			c15.1,13.2,30.2,26.5,45.3,39.8c2.2,1.9,4,4.2,1.8,6.8c-2.1,2.5-4.8,1.5-7-0.5c-15.3-13.5-30.7-27-46.1-40.5
			C312.7,293.1,311.3,292.1,309,290.3z"/>
		<path d="M242.4,485.4c-12.4-2.7-24.2-5.6-34.5-12.3c-6.6-4.3-9.3-16.2-6.2-23.5c1.9-4.5,6.7-7,11.5-5c3.1,1.3,6.5,3.1,8.6,5.6
			c8.3,9.7,16.2,19.8,24.1,29.8c0.6,0.8,1,2.9,0.4,3.5C245.3,484.4,243.6,484.8,242.4,485.4z"/>
	</g>
</g>
</svg>
