<?xml version="1.0" encoding="utf-8"?>
<!-- Generator: Adobe Illustrator 22.0.1, SVG Export Plug-In . SVG Version: 6.00 Build 0)  -->
<svg version="1.1" id="Слой_1" xmlns="http://www.w3.org/2000/svg" xmlns:xlink="http://www.w3.org/1999/xlink" x="0px" y="0px"
	 viewBox="0 0 595.3 841.9" style="enable-background:new 0 0 595.3 841.9;" xml:space="preserve">
<g>
	<g>
		<path d="M298.2,185c63,0,126,0,189,0c2.1,0,4.6-0.2,6.3,0.9c1.5,0.9,3,3.5,2.7,5.1c-2.5,15.9-5.4,31.7-8,47.6
			c-4.2,25.5-8.3,51.1-12.5,76.7c-5.1,31.6-10.3,63.2-15.4,94.8c-4.9,30.3-9.7,60.6-14.6,90.9c-4.8,29.6-9.6,59.3-14.4,88.9
			c-1.5,9.5-3,19-4.2,28.5c-0.6,4.8-3,7.2-7.6,8.4c-27,7.3-54,14.7-81,22.1c-11.5,3.2-22.9,6.7-34.5,9.4c-4.1,1-9,1.1-13.1-0.1
			c-38.8-11.2-77.5-22.9-116.4-34.1c-5.1-1.5-6.8-4.3-7.5-9c-4.6-29.5-9.3-59-13.9-88.5c-4.5-29-8.8-58.1-13.3-87.1
			c-2.8-18.4-5.9-36.7-8.8-55c-4.1-26.3-8-52.5-12.1-78.8c-3.2-20.6-6.7-41.2-9.8-61.9c-2.7-17.7-5.1-35.5-7.8-53.2
			c-0.7-4.9,2-5.6,5.9-5.6c20.3,0.1,40.7,0,61,0C211.6,185,254.9,185,298.2,185z M108.9,192.1c1.9,13,3.7,25.6,5.6,38.3
			c4.9,31.8,9.8,63.6,14.8,95.4c5,32.5,10.1,64.9,15.1,97.4c4.6,29.8,9.2,59.7,13.9,89.5c5.2,33.5,10.5,66.9,15.6,100.4
			c0.4,2.8,1.6,4,4.1,4.7c9.1,2.5,18.2,5,27.2,7.7c29.9,8.8,59.7,17.7,89.6,26.4c1.9,0.6,4.3,0.4,6.2-0.1c14.6-3.9,29.1-8,43.6-12
			c24-6.6,47.9-13.1,71.8-19.9c1.5-0.4,3.2-2.6,3.5-4.2c2-11.3,3.5-22.7,5.4-34c2.5-15.2,5.3-30.4,7.7-45.6c4.8-30,9.4-60,14.2-90
			c4.9-31,9.9-61.9,15-92.8c3.6-21.9,7.3-43.8,10.9-65.7c4-24.2,7.9-48.5,11.8-72.7c1.2-7.5,2.3-15,3.4-22.7
			C361.7,192.1,235.6,192.1,108.9,192.1z"/>
		<path d="M315.9,490.1c14.1-0.5,27.1-1.2,40-1.1c4.7,0,9.5,1.4,13.9,3.2c2.6,1.1,4.5,4,7.9,7.2c-3.5,0.9-5.4,1.6-7.4,1.8
			c-16.1,1.7-32.1,3.3-48.2,4.8c-4,0.4-5.8,1.4-5.5,6c1.3,17.8,2,35.6,3.6,53.3c0.4,4.5,3.4,8.8,5.8,12.9c0.6,1.1,3.4,1.2,5.2,1.2
			c12.6-0.4,25.3-1.2,37.9-1.4c3.7-0.1,7.6,0.9,11.2,2c4,1.3,7.4,3.8,8.8,9.1c-3.2,0.7-6.2,1.6-9.2,1.8
			c-37.6,2.5-74.8,7.6-111.9,14.2c-3.8,0.7-7.6,1.2-11.2,2.5c-10.4,3.8-19.3,0-28-5c-1.8-1.1-3.6-3.8-3.7-5.8
			c-0.1-1.2,3.1-3.4,5-3.7c16.2-2.9,32.5-5.6,48.7-8.1c6-1,12.1-1.5,19.2-2.3c-2.1-1.4-3.4-2.2-4.7-3.1c-6.3-4.2-6.5-8.1-3.9-15.1
			c2.6-7.1,3.6-14.8,4.9-22.3c0.9-4.9,1.4-9.9,1.6-14.9c0.3-5.6,0.1-11.3,0.1-17.9c-12.5,2.4-24.5,4.1-36.1,7.2
			c-10.6,2.8-18.9-1.5-27.2-6.4c-1.4-0.8-2.8-3.5-2.5-4.9c0.3-1.3,2.7-2.9,4.4-3.2c14.2-2.5,28.5-4.9,42.8-7.1
			c5.9-0.9,11.9-1.4,18.3-2.2c0-23.7,0-47.4,0-71.6c-11,0.8-21.7,1.1-32.5,2.3c-20.4,2.2-40.6,5.7-61,7c-12.4,0.8-23.7-4.6-32.4-14
			c-3.3-3.6-2.3-6.6,2.5-7.6c5-1,10.2-1.6,15.3-1.5c49.9,1.6,99.7,0.3,149.3-3.8c21.9-1.8,43.5-5.8,65.2-9.1
			c12.9-1.9,23.3,3.8,33.4,10.3c3.1,2,2.4,5-1.2,6.3c-1.8,0.7-3.9,1-5.8,1c-37.6-0.4-74.7,5.5-112.1,8c-0.3,0-0.6,0.2-0.7,0.3
			C315.9,443.7,315.9,466.9,315.9,490.1z"/>
		<path d="M299.1,292.7c-1.9,1.3-3.2,2.1-4.2,3c-14.1,12.4-28.1,24.9-42.2,37.4c-1.4,1.2-2.7,2.9-4.3,3.3c-1.9,0.5-4.1-0.2-6.2-0.4
			c0.4-1.9,0.2-4.4,1.3-5.7c2.7-3.1,6-5.7,9.1-8.4c13-11.4,26-22.8,39-34.1c0.3-0.3,0.5-0.8,0.9-1.6c-1.9-0.1-3.5-0.2-5.1-0.2
			c-21.3,0-42.7,0-64,0c-1.2,0-2.6,0.4-3.4-0.1c-1.8-1-4.3-2.4-4.6-4c-0.5-2.7,1.4-4.6,4.6-4.6c3.8,0,7.7,0,11.5,0
			c17.7,0,35.3,0,53,0c1.6,0,3.2,0,6.3,0c-7.8-6.3-14.4-11.6-21-16.9c-8.8-7.1-17.7-14.1-26.4-21.3c-1.1-0.9-1-3.1-1.5-4.7
			c1.8-0.5,3.7-1.7,5.3-1.2c2.1,0.6,4,2.3,5.8,3.7c13.8,11,27.5,22.1,41.3,33.1c1.2,1,2.6,1.8,4.8,3.3c0-2.7,0-4.5,0-6.2
			c0-19.3,0-38.7,0-58c0-0.8,0-1.7,0-2.5c-0.1-3-0.1-6.2,3.9-6.3c3.9-0.1,4.1,3,4.1,6.1c0,10.8,0.1,21.7,0.1,32.5
			c0,9.8,0,19.7,0,29.5c0,1.6,0,3.2,0,6.3c5.5-4.3,10.1-7.8,14.6-11.4c11.8-9.4,23.6-18.9,35.5-28.3c0.9-0.7,2-1.8,2.9-1.8
			c1.8,0.1,3.5,0.8,5.3,1.3c-0.5,1.6-0.4,3.8-1.5,4.7c-8.9,7.5-18.1,14.7-27.2,21.9c-6.3,5.1-12.7,10.1-20.3,16.2c3.1,0,4.8,0,6.5,0
			c19.7,0,39.3,0,59,0c1.3,0,3-0.5,3.9,0.2c1.6,1.1,3.4,2.8,3.7,4.4c0.2,1.1-2,3-3.5,3.8c-1.2,0.6-2.9,0.2-4.4,0.2
			c-20.5,0-41,0-61.5,0c-1.6,0-3.2,0-6.4,0c3.6,3.1,6.1,5.1,8.5,7.2c13.7,12.1,27.3,24.3,41,36.4c2.2,2,4,4.4,1.5,6.7
			c-1.2,1.1-5,0.8-6.5-0.4c-8.3-6.9-16.3-14.2-24.4-21.3c-8.6-7.5-17.2-15-26.6-23.2c-0.2,2.8-0.3,4.3-0.3,5.9c0,17.2,0,34.3,0,51.5
			c0,1.2,0.4,2.6-0.1,3.4c-1,1.8-2.6,3.2-3.9,4.8c-1.3-1.6-3.2-3.1-3.7-5c-0.6-2.3-0.2-5-0.2-7.5c0-15.3,0-30.7,0-46
			C299.1,296.8,299.1,295.2,299.1,292.7z"/>
	</g>
</g>
</svg>
