<?xml version="1.0" encoding="utf-8"?>
<!-- Generator: Adobe Illustrator 22.0.1, SVG Export Plug-In . SVG Version: 6.00 Build 0)  -->
<svg version="1.1" id="Слой_1" xmlns="http://www.w3.org/2000/svg" xmlns:xlink="http://www.w3.org/1999/xlink" x="0px" y="0px"
	 viewBox="0 0 595.3 841.9" style="enable-background:new 0 0 595.3 841.9;" xml:space="preserve">
<style type="text/css">
	.st0{fill:#040404;}
	.st1{fill:#2F2F2F;}
	.st2{fill:#FD0404;}
	.st3{fill:#FD0B0B;}
	.st4{fill:#FD0405;}
</style>
<g>
	<g>
		<path class="st0" d="M493,183.9c3.3,1.8,3.9,4.1,3.1,8c-2.7,13.5-4.8,27.1-7.1,40.7c-2.1,12.7-4.3,25.5-6.4,38.3
			c-5.2,31.6-10.3,63.1-15.4,94.7c-4.6,28.6-9.2,57.2-13.8,85.9c-2.9,18.5-5.6,37-8.5,55.5c-1.9,12-4.2,23.8-6.1,35.8
			c-3,19.1-5.9,38.3-8.9,57.4c-0.9,6-2.3,12-3,18.1c-0.6,4.8-3.6,6.6-7.7,7.7c-20.4,5.6-40.7,11.4-61.1,16.9
			c-19.3,5.2-38.6,10.4-57.9,15.2c-3,0.7-6.6,0-9.6-0.9c-21.7-6.3-43.4-12.8-65.1-19.2c-16.9-5-33.8-10.2-50.8-14.8
			c-5-1.4-7-4-7.7-8.8c-4.6-29.6-9.4-59.3-13.9-88.9c-4.5-29-8.7-58-13.2-87.1c-4.9-32.3-9.9-64.6-15-96.8c-2.8-18-6-35.9-8.8-53.9
			c-4.2-27.1-8.2-54.1-12.2-81.2c-0.8-5.4-1.7-10.8-2.2-16.2c-0.2-2.1,0.9-4.2,1.3-6.4c0.7,0,1.3,0,2,0c1.7,0.3,3.4,0.9,5.2,0.9
			c125.2,0,250.4,0,375.7,0c1.7,0,3.4-0.6,5.2-0.9C491.7,183.9,492.3,183.9,493,183.9z M108.9,191c1.8,12.7,3.5,25,5.4,37.3
			c5.1,32.9,10.2,65.8,15.4,98.7c2,12.6,4.3,25.2,6.3,37.8c2.9,19.2,5.6,38.4,8.5,57.5c4.5,29.8,9.2,59.6,13.8,89.4
			c5.2,33.6,10.5,67.1,15.9,100.7c0.3,1.6,2.1,3.7,3.7,4.2c9.3,2.9,18.7,5.5,28,8.2c24.6,7.1,49.4,13.5,73.6,21.7
			c12.3,4.1,23.3,4.4,35.8,0.7c33.5-10,67.4-18.8,101.2-28c2.6-0.7,3.3-1.8,3.6-4.3c1.6-11.5,3.4-23,5.3-34.5
			c2.5-15.5,5.1-31,7.7-46.6c2.6-15.7,5.1-31.4,7.6-47.1c2.5-15.2,4.9-30.4,7.4-45.6c2.5-15.5,4.8-31.1,7.3-46.6
			c2.5-15.5,5.2-31,7.7-46.6c2.3-13.7,4.4-27.5,6.7-41.2c2.4-14.7,4.9-29.4,7.3-44.1c2.6-16,5.2-32.1,7.7-48.1
			c1.2-7.7,2.4-15.5,3.6-23.4C361.5,191,235.4,191,108.9,191z"/>
		<path class="st1" d="M491,183.9c-1.7,0.3-3.4,0.9-5.2,0.9c-125.2,0-250.4,0-375.7,0c-1.7,0-3.4-0.6-5.2-0.9
			C233.7,183.9,362.3,183.9,491,183.9z"/>
		<path class="st2" d="M265.4,464.4c0.5-5.8,1-12.4,1.6-19.8c-10.1,1.3-19.6,2.5-29.1,3.8c-7.9,1.1-15.8,3.2-23.7,3.4
			c-5.8,0.2-11.7-1.8-17.4-3.1c-1.2-0.3-2.1-1.9-3.1-2.9c1.1-1.1,2.1-2.5,3.4-3.1c1.7-0.9,3.7-1.5,5.7-1.7
			c18.7-1.9,37.4-3.7,56.2-5.5c2.5-0.2,5,0,8.1,0c0-6.8,0-13.5,0-21c-7.8,1-15.8,1.8-23.8,2.9c-10.2,1.4-20.4,3.4-30.6,4.5
			c-7.4,0.8-14.4-0.8-22.1-6.7c4.5-1.8,7.8-3.8,11.2-4.2c18-2.1,36.1-3.7,54.2-5.4c3.3-0.3,6.6,0,10.4,0c-1.3-8.8-6.6-14.4-14-17.5
			c-5.9-2.5-12.4-4.5-18.7-4.8c-12.4-0.5-25-0.6-37.3,0.8c-13.5,1.6-23.4,9-26.7,23.3c-1.3,5.8-2.9,11.6-4.5,17.4
			c-0.5,1.8-1.5,3.4-2.9,6.6c-1.2-3.4-2.1-5.3-2.6-7.3c-1.6-6.3-2.9-12.7-4.8-18.8c-1.3-4.2-3-8.5-5.3-12.2
			c-4.7-7.4-5-11.9,2.3-17.2c6.3-4.6,13.6-8.6,21.1-10.8c25-7.2,50.3-6.8,75.5-0.2c3.5,0.9,6.9,2.4,10.3,3.9
			c15.7,6.7,23.7,18.9,24.4,35.7c0.5,12,0,24-0.1,35.9c-0.2,19-0.6,38-0.7,57c0,3.4,1.3,6.8,1.9,10.3c0.4,2.3,1.6,6.1,0.9,6.5
			c-2.2,1.3-5.2,1.3-7.9,1.8c-0.3,0.1-0.7-0.1-0.9-0.3c-9.5-9.2-20.6-5-31.1-3.5c-9.5,1.3-18.9,3.5-28.9,5.4
			c-0.9,7.8-1.8,15.5-2.8,23.2c-0.5,3.5,1.4,4.7,4.3,4.4c5.8-0.5,11.7-0.7,17.3-2.1c8.7-2.1,17.2-5,25.7-7.9c6.5-2.2,8-1.7,13.7,4.5
			c3.5,3.8,2.9,7.2,0.9,11.7c-2.4,5.5-4.5,11.6-4.8,17.6c-0.9,16.3-0.5,32.6,7.7,47.6c3.4,6.2,0.7,10.2-6.2,9.1
			c-6.3-1-12.4-3.6-18.2-6.1c-3.4-1.5-3.8-4.9-2.9-8.6c1.6-7.1,2.8-14.2,4.5-22.6c-6.1,1.5-11,2.5-15.8,3.9c-10.1,2.9-20,6-30.1,9
			c-5.6,1.7-21.4-3.7-24.7-8.3c-2-2.9-0.4-5.4,4.4-6c5.6-0.8,11.3-1,16.9-1.8c9.4-1.3,18.7-3.2,28.1-4.3c7-0.8,14.1-0.9,21.7-1.4
			c0.7-6,1.6-12.9,2.2-19.8c0.3-3.7-1.5-5.7-5.5-5.1c-14.3,2.2-28.5,4.5-42.8,6.6c-8.1,1.2-15.5-1.3-22.2-5.6
			c-3.7-2.4-3-5.7-1.3-9.2c4.7-10.2,9.2-20.6,13.7-30.8c-2.6-2.4-4.8-4-6.4-6c-2.2-2.7-1.2-4.5,2.3-4.9c20-2,40.1-4.1,60.1-6
			c2.5-0.2,3.8-0.9,4.4-3.6c1.2-6.5,2.8-12.9,4.5-20.4c-8.2,1.2-15.5,2.2-22.8,3.5c-7.4,1.3-14.7,2.8-22,4.4
			c-7.3,1.7-14.2,0.4-20.9-2.3c-1.5-0.6-2.7-2.2-4-3.3c1.5-1.2,2.8-3,4.4-3.4c4.7-1.1,9.5-1.8,14.2-2.4
			C230.5,469,247.5,466.8,265.4,464.4z"/>
		<path class="st2" d="M356.3,391.2c-7.7-0.6-14.4-1.1-21.1-1.7c-5.4-0.5-8.4,1-8.8,6.3c-1.4,16.8-2.2,33.7-3.3,51.8
			c9.8-8.5,18.1-15.8,26.5-23c1-0.9,2-1.8,3-2.7c8.1-7,11.7-6.8,18.9,0.9c1,1.1,1.9,2.2,3.2,3.7c6.6-23.5,14.1-46.1,35.8-60
			c1.4-0.9,3.1-1.1,4.7-1.6c0.3,0.4,0.6,0.7,0.9,1.1c-0.8,1.3-1.4,2.7-2.3,4c-17.3,24.8-24.8,52.7-26.7,82.4
			c-0.7,11.1-0.8,22.3-0.3,33.4c0.2,4.1,3,7.9,4.2,12c0.6,2.1,1.2,4.8,0.3,6.6c-0.6,1.2-4,1.9-5.6,1.3c-14.2-5-27.5,0.5-41.1,2.9
			c-5.8,1-11.4,3.4-17.2,5.1c-1.4,0.4-3.2,1.4-4.3,0.9c-8-3.4-15.7-7.3-20.8-14.8c-0.8-1.2-0.6-3.8,0.1-5.2
			c4.7-9.2,5.3-19.2,5.2-29.2c-0.1-19-1.1-38-1-56.9c0-9.6,0.3-19.4,2.6-28.7c1.6-6.4,6.4-12.1,10.4-17.7c2-2.8,5.3-3.2,8.2-0.3
			c9,8.9,18.1,17.7,27.1,26.6C355.4,388.8,355.5,389.3,356.3,391.2z M372.6,434c-0.6,0-1.2-0.1-1.8,0c-16.1,3.1-30.5,10.2-44.6,18.2
			c-0.9,0.5-2,2-1.9,3.1c0.3,12.3,0.7,24.6,1.3,36.9c0.2,4.4,3,6.1,7.1,5.6c9.4-1.1,18.8-2.1,28.2-3.5c6.6-1,7.6-2.6,7.8-8.9
			c-8.9-3.1-17.8-5.7-26.4-9.3c-7.9-3.3-9.5-8.2-6.5-16.2c1.9-5.1,5.4-6.7,9.6-3.5c5.1,3.9,9.5,8.7,14.2,13.2c3.1,3,6.2,6.1,9.5,9.2
			C370.2,463.6,371.4,449.1,372.6,434z"/>
		<path class="st3" d="M295.1,271.6c0-15.8,0-30.8,0-46.2c-4.5,0-8.6,0-13.6,0c5.6-10.7,10.8-20.6,16.5-31.3
			c6.1,10.6,11.8,20.5,17.4,30.2c-0.7,0.6-0.8,0.8-0.9,0.8c-12.3,0.3-12.2,0.3-12.1,12.7c0.1,10.5,0,21,0,33.1
			c2.3-2.2,3.5-3.3,4.7-4.5c13-12.9,26-25.9,38.9-38.8c2.2-2.2,4.5-4.1,7.3-1.7c3.6,3.1,1.4,5.9-1.2,8.4c-13,12.9-26,25.9-39,38.8
			c-1.2,1.2-2.4,2.6-4.3,4.6c15.8,0,30.6,0,45.9,0c0-4.4,0-8.4,0-13.8c10.9,5.7,20.9,11,31.6,16.7c-10.8,6.1-20.6,11.8-31.3,17.9
			c0-4.2,0.3-7.4-0.1-10.4c-0.2-1.2-1.8-3-2.8-3.1c-14-0.2-28-0.1-42.1-0.1c-0.2,0.5-0.4,0.9-0.6,1.4c1,1.1,2,2.3,3.1,3.3
			c12.8,12.8,25.6,25.7,38.4,38.5c0.9,0.9,2.4,1.8,2.6,2.9c0.3,2,0.7,5-0.4,6.1c-1,1-4.7,0.9-5.9-0.2c-5.2-4.6-10-9.7-14.9-14.7
			c-9.4-9.5-18.9-19.1-29.2-29.5c0,15.8,0,30.1,0,44.9c4.2,0,8.3,0,13.4,0c-5.9,10.8-11.4,20.7-17.2,31.3
			c-5.8-10.4-11.2-20.2-17.3-31.1c4.2,0,7.3,0.3,10.3-0.1c1.3-0.2,3.3-1.8,3.3-2.8c0.1-13.8,0-27.7-0.1-41.5c0-0.4-0.4-0.8-0.9-1.6
			c-1.3,1.2-2.5,2.3-3.7,3.4c-13.2,13.2-26.5,26.3-39.7,39.5c-1.1,1.1-2.1,2.7-3.3,2.9c-1.7,0.3-4.1,0-5.3-1c-0.9-0.8-1-3.3-0.6-4.8
			c0.5-1.4,2-2.6,3.2-3.7c12.7-12.7,25.5-25.4,38.2-38.1c1.1-1.1,2.2-2.3,3.7-4c-12,0-23.1,0-34.3,0c-10.2,0-10.2,0-10.3,9.9
			c0,0.9-0.1,1.9-0.3,3.5c-10.5-5.7-20.5-11.2-31.2-17c10.5-5.8,20.4-11.3,31.2-17.2c0,5,0,9,0,13.2c15.2,0,29.8,0,45.9,0
			c-7-7.1-13-13.2-19-19.2c-8-8-16-16-23.9-24c-1.1-1.1-2.6-2.1-2.9-3.3c-0.4-1.7-0.3-4.3,0.7-5.3c1-1,3.6-0.9,5.3-0.5
			c1.3,0.3,2.3,1.8,3.3,2.9c13.3,13.3,26.6,26.6,39.8,39.9C292.6,269.5,293.6,270.3,295.1,271.6z"/>
		<path class="st4" d="M370.5,531.2c4.4,15.2,8.8,30.1,13.2,45.5c2.8,0.5,6.7,1,10.6,1.9c1.7,0.4,3.4,1.5,4.7,2.7
			c1.1,1,1.5,2.7,2.2,4.1c-1.3,0.6-2.6,1.5-3.9,1.7c-14.6,2.4-29.2,4.6-43.9,6.9c-2.4,0.4-4.8,1-6.5,1.4
			c6.1,8.2,12.2,16.4,18.1,24.7c1.1,1.6,1.2,3.9,1.7,5.9c-2,0.3-4.3,1.4-6.1,0.9c-8.1-2.3-16.4-4.3-24-7.8
			c-7.3-3.3-8.3-9.4-4.8-20.5c-5.1,1.6-9.8,3-14.5,4.5c-5.3,1.7-16.8-1.3-20.3-5.4c-2.6-3.1-1.3-5.4,2-6.5c4.9-1.7,9.9-2.9,14.8-4.3
			c1.5-0.4,3-0.8,4.8-1.2c-3.2-2.5-6.3-4.5-8.7-7.2c-1.2-1.3-1.7-4.5-0.9-6c5.6-11.1,11.5-22,17.7-33.5c-6.7,1.2-13.4,2.9-20.2,3.5
			c-5.3,0.5-10.8-0.1-16.2-0.7c-1.8-0.2-3.7-1.7-4.9-3.1c-1.1-1.2-2-3.3-1.7-4.8c0.2-0.9,2.5-1.9,4-2.1c12-1.6,24.2-2.4,36.1-4.7
			c26.9-5.2,53.7-10.8,80.5-16.9c9.1-2.1,16.8-0.1,24.1,4.5c1.8,1.1,2.8,3.5,4.2,5.3c-2,1-3.8,2.5-5.9,2.8
			c-16.4,2.6-32.9,4.9-49.3,7.3C375,530.3,372.8,530.8,370.5,531.2z M331.2,583c15.3-2.1,30.3-4.2,46.6-6.5
			c-18-10-20.4-25.8-18.8-43.4c-6.5,1.1-12.5,1.9-18.5,3.3c-1.6,0.4-3.7,2.2-4.2,3.8c-2,6.5-3.9,13.1-5.1,19.7
			C329.9,567.4,328.3,575,331.2,583z"/>
	</g>
</g>
</svg>
