<?xml version="1.0" encoding="utf-8"?>
<!-- Generator: Adobe Illustrator 22.0.1, SVG Export Plug-In . SVG Version: 6.00 Build 0)  -->
<svg version="1.1" id="Слой_1" xmlns="http://www.w3.org/2000/svg" xmlns:xlink="http://www.w3.org/1999/xlink" x="0px" y="0px"
	 viewBox="0 0 595.3 841.9" style="enable-background:new 0 0 595.3 841.9;" xml:space="preserve">
<style type="text/css">
	.st0{fill:#040404;}
	.st1{fill:#2F2F2F;}
	.st2{fill:#FD0303;}
	.st3{fill:#FC0B0C;}
	.st4{fill:#FD0202;}
</style>
<g>
	<g>
		<path class="st0" d="M294,659.9c-10.6-3.3-21.2-6.8-31.8-10c-29.3-8.7-58.5-17.5-87.9-25.9c-4.9-1.4-6.6-4.1-7.3-8.5
			c-2.3-14.7-4.7-29.4-7-44.2c-3.8-24.8-7.4-49.5-11.2-74.3c-3.1-20.3-6.6-40.5-9.8-60.7c-4.2-26.9-8-53.8-12.2-80.6
			c-3.5-22.4-7.3-44.7-10.8-67.1c-4.2-27-8.2-54.1-12.2-81.2c-0.8-5.4-1.7-10.8-2.2-16.2c-0.2-2.1,0.9-4.2,1.3-6.3c0.7,0,1.3,0,2,0
			c1.7,0.3,3.4,0.9,5.2,0.9c125.2,0,250.4,0,375.7,0c1.7,0,3.4-0.6,5.2-0.9c0.7,0,1.3,0,2,0c3.3,1.8,3.9,4.1,3.1,8
			c-2.7,13.5-4.8,27.1-7.1,40.6c-2.1,12.6-4.2,25.2-6.3,37.8c-5.2,31.7-10.3,63.4-15.5,95.1c-4.7,28.8-9.2,57.6-13.9,86.3
			c-5,31.2-10.2,62.5-15.1,93.7c-3.9,24.2-7.6,48.3-11.2,72.5c-0.7,4.8-3.4,6.7-7.6,7.8c-28.2,7.7-56.4,15.4-84.5,23.1
			c-11.7,3.2-23.3,6.6-34.9,10C298,659.9,296,659.9,294,659.9z M108.9,192c1.8,12.7,3.5,25,5.4,37.3c5.1,32.9,10.2,65.8,15.4,98.7
			c2,12.6,4.3,25.2,6.3,37.8c2.9,19.2,5.6,38.4,8.5,57.5c4.5,29.8,9.2,59.6,13.8,89.4c5.2,33.6,10.5,67.2,15.9,100.7
			c0.3,1.6,2.1,3.7,3.7,4.2c9.4,3,19,5.5,28.5,8.2c24.4,7.1,49,13.5,73.1,21.6c12.3,4.2,23.3,4.4,35.8,0.7
			c33.5-10,67.4-18.8,101.2-28c2.6-0.7,3.3-1.8,3.7-4.3c1.6-11.5,3.4-23,5.3-34.5c2.5-15.5,5.1-31,7.7-46.6
			c2.6-15.7,5.1-31.4,7.6-47.1c2.5-15.2,4.9-30.4,7.4-45.6c2.5-15.5,4.8-31.1,7.3-46.6c2.5-15.7,5.1-31.4,7.7-47.1
			c2.3-13.7,4.6-27.5,6.9-41.2c2.4-14.6,4.8-29.1,7.1-43.7c2.6-16,5.2-32.1,7.7-48.1c1.2-7.7,2.4-15.5,3.6-23.4
			C361.5,192,235.4,192,108.9,192z"/>
		<path class="st1" d="M491,184.9c-1.7,0.3-3.4,0.9-5.2,0.9c-125.2,0-250.4,0-375.7,0c-1.7,0-3.4-0.6-5.2-0.9
			C233.7,184.9,362.3,184.9,491,184.9z"/>
		<path class="st2" d="M343.2,489.2c0,7.2,0.4,13.4-0.1,19.6c-0.6,8.1-2.7,16.2-2.6,24.2c0.3,19.5,1.3,38.9,2.6,58.4
			c0.4,5.7,2.9,11.2,4.1,16.9c1.1,5.5,0.4,6.3-5.2,5.8c-9.6-0.9-17.8-5.1-24.8-11.6c-3.5-3.3-4.1-7-2.5-11.8
			c2.1-6.4,4.6-13.1,4.6-19.7c0.1-21.6-0.9-43.2-1.5-64.9c0-1.1-0.5-2.2-1.1-4.5c-18.6,9.2-36.8,17.9-54.8,27.1
			c-4.4,2.2-7.9,5.7-4.2,11.6c1.5,2.4-0.3,4-3,4.4c-7.9,1.2-26.1-7.1-30.3-14c-2.9-4.7-2.4-8.1,3-10.6c9.7-4.6,19.7-8.9,29.9-12.1
			c26.7-8.3,53.6-16.1,78.3-29.3c10.5-5.6,20.5-12.4,30-19.5c4.3-3.3,7.8-8.3,10.4-13.2c6.2-12,2.2-24.1-10.4-28.8
			c-10.5-3.9-21.7-6.3-32.8-8c-23.6-3.6-46.8,0-69.8,5.3c-3.4,0.8-6.9,1-10.3,1.7c-11.3,2.2-18.9-3.4-25-11.8
			c-4.2-5.7-3.5-9.6,3-12.1c7.7-3,15.8-5.5,23.9-6.6c26.5-3.7,53.1-4.3,79.4,2.2c14.4,3.5,27.7,9.6,40.1,17.3
			c18.6,11.6,23.1,31.9,11.8,50.7c-5.2,8.7-12.6,15-21,20.3C357.6,480.7,350,485.2,343.2,489.2z"/>
		<path class="st3" d="M294.6,284.7c-21.7,0-42.3,0-62.9,0c-1.3,0-2.9,0.4-3.9-0.2c-1.4-0.8-3.2-2.4-3.2-3.6c0-1.3,1.8-2.8,3.2-3.6
			c1-0.6,2.6-0.2,3.9-0.2c20.8,0,41.7,0,62.5,0c1.8,0,3.6,0,5.8,0c0-6.1,0-11.7,0-17.3c0-17.7,0-35.3,0-53c0-1.3-0.4-2.9,0.2-3.9
			c0.7-1.3,2.3-2.9,3.4-2.8c1.2,0,2.7,1.7,3.3,2.9c0.6,1.2,0.2,2.9,0.2,4.4c0,23,0,46,0,69.7c2,0,3.7,0,5.5,0c20.5,0,41,0,61.5,0
			c1.3,0,2.9-0.4,3.9,0.1c1.5,0.9,3.2,2.4,3.5,3.9c0.2,0.8-2,2.6-3.4,3.3c-1.1,0.5-2.6,0.1-3.9,0.1c-19.8,0-39.7,0-60.9,0
			c2.2,1.9,3.5,3.1,4.9,4.3c13.3,11.7,26.7,23.4,39.8,35.4c1.2,1.1,0.9,3.9,1.3,6c-2-0.1-4.6,0.6-5.8-0.4
			c-7.4-6.1-14.6-12.6-21.8-19c-7.9-7-15.9-14-24.7-21.8c0,15.6,0,29.9,0,44.1c0,3.5,0.4,7.1-0.2,10.5c-0.3,1.8-2.2,3.4-3.4,5.1
			c-1.2-1.7-3.3-3.4-3.4-5.1c-0.3-15.8-0.2-31.7-0.2-47.5c0-1.5,0-3,0-6.1c-4.8,4.2-8.9,7.6-12.8,11.2c-10,9-20.1,18-30.1,26.9
			c-0.6,0.5-1.4,0.9-2,1.4c-2.1,1.9-4.8,2.7-6.4,0.1c-0.7-1.2,0.4-4.5,1.8-5.7C264.7,311.1,279.3,298.3,294.6,284.7z"/>
		<path class="st4" d="M153,237.4c0-9.5-0.1-19,0.1-28.5c0-1.7,1.6-3.3,2.5-5c0.8,1.6,2.3,3.1,2.3,4.7c0.2,19.1,0.2,38.3,0,57.4
			c0,1.6-1.5,3.2-2.3,4.7c-0.9-1.7-2.5-3.3-2.5-5C152.9,256.4,153,246.9,153,237.4z"/>
	</g>
</g>
</svg>
