<?xml version="1.0" standalone="no"?>
<!DOCTYPE svg PUBLIC "-//W3C//DTD SVG 20010904//EN"
 "http://www.w3.org/TR/2001/REC-SVG-20010904/DTD/svg10.dtd">
<svg version="1.0" xmlns="http://www.w3.org/2000/svg" width="2048" height="2048" viewBox="-539 -571 2048 1876">
<g transform="translate(-539,1140) scale(1,-1)" fill="#000000" stroke="none">
<path d="M1576 399h-1031q-47 -355 -367 -541l-37 41q293 232 293 660v498q-113 -110 -246 -207l-35 39q350 312 543 813q195 -34 195 -76q0 -30 -103 -49q-22 -47 -41 -84h391l80 92q139 -111 139 -147q0 -14 -20 -23l-64 -22q-87 -114 -208 -226h493l84 103q129 -102 129 -132
q0 -14 -17 -24l-57 -35v-997q0 -203 -234 -203q-3 61 -85 92q-69 23 -244 47v55q176 -20 362 -20q80 0 80 72v274zM579 1167h410q95 135 149 275h-419q-81 -146 -170 -259l10 -6zM555 1116v-295h438v295h-438zM1576 451v319h-464v-319h464zM1576 821v295h-464v-295h464z
M551 451h442v319h-438v-213q0 -32 -4 -106z" />
</g>
</svg>
